<svg width="589" height="141" viewBox="0 0 589 141" fill="none" xmlns="http://www.w3.org/2000/svg">
<path d="M14.6163 59V3H37.7363C46.3763 3 53.3629 5.66666 58.6963 11C64.0829 16.3333 66.7763 23 66.7763 31C66.7763 39 64.0829 45.6667 58.6963 51C53.3629 56.3333 46.3763 59 37.7363 59H14.6163ZM31.2563 45.4H36.2963C40.3496 45.4 43.5496 44.04 45.8963 41.32C48.2963 38.5467 49.4963 35.1067 49.4963 31C49.4963 26.8933 48.2963 23.48 45.8963 20.76C43.5496 17.9867 40.3496 16.6 36.2963 16.6H31.2563V45.4ZM115.435 37.08C115.435 39.0533 115.302 41 115.035 42.92H85.755C85.8617 45 86.5817 46.6267 87.915 47.8C89.3017 48.9733 91.115 49.56 93.355 49.56C96.715 49.56 98.795 48.5733 99.595 46.6H114.795C114.102 50.8133 111.808 54.1733 107.915 56.68C104.022 59.1333 99.1683 60.36 93.355 60.36C86.1017 60.36 80.395 58.52 76.235 54.84C72.1283 51.1067 70.075 45.88 70.075 39.16C70.075 32.5467 72.155 27.3467 76.315 23.56C80.475 19.72 86.0483 17.8 93.035 17.8C99.6483 17.8 105.035 19.5867 109.195 23.16C113.355 26.7333 115.435 31.3733 115.435 37.08ZM85.755 34.28H99.755C99.7017 32.0933 99.0883 30.3867 97.915 29.16C96.7417 27.9333 95.0617 27.32 92.875 27.32C90.7417 27.32 89.035 27.96 87.755 29.24C86.5283 30.52 85.8617 32.2 85.755 34.28ZM142.484 60.36C135.604 60.36 130.084 58.4133 125.924 54.52C121.764 50.6267 119.684 45.48 119.684 39.08C119.684 32.68 121.764 27.5333 125.924 23.64C130.084 19.7467 135.604 17.8 142.484 17.8C148.778 17.8 153.898 19.3733 157.844 22.52C161.844 25.6133 164.111 29.8 164.644 35.08H148.964C148.271 32.2 146.111 30.76 142.484 30.76C140.244 30.76 138.484 31.5067 137.204 33C135.978 34.44 135.364 36.4667 135.364 39.08C135.364 41.6933 135.978 43.7467 137.204 45.24C138.484 46.68 140.244 47.4 142.484 47.4C146.058 47.4 148.218 45.9867 148.964 43.16H164.644C164.111 48.44 161.844 52.6267 157.844 55.72C153.898 58.8133 148.778 60.36 142.484 60.36ZM214.263 37.08C214.263 39.0533 214.13 41 213.863 42.92H184.583C184.69 45 185.41 46.6267 186.743 47.8C188.13 48.9733 189.943 49.56 192.183 49.56C195.543 49.56 197.623 48.5733 198.423 46.6H213.623C212.93 50.8133 210.636 54.1733 206.743 56.68C202.85 59.1333 197.996 60.36 192.183 60.36C184.93 60.36 179.223 58.52 175.063 54.84C170.956 51.1067 168.903 45.88 168.903 39.16C168.903 32.5467 170.983 27.3467 175.143 23.56C179.303 19.72 184.876 17.8 191.863 17.8C198.476 17.8 203.863 19.5867 208.023 23.16C212.183 26.7333 214.263 31.3733 214.263 37.08ZM184.583 34.28H198.583C198.53 32.0933 197.916 30.3867 196.743 29.16C195.57 27.9333 193.89 27.32 191.703 27.32C189.57 27.32 187.863 27.96 186.583 29.24C185.356 30.52 184.69 32.2 184.583 34.28ZM219.998 59V19.24H235.678V25.08C237.811 20.44 242.104 18.12 248.558 18.12C258.264 18.12 263.118 23.6667 263.118 34.76V59H247.118V38.76C247.118 33.7467 245.278 31.24 241.598 31.24C237.651 31.24 235.678 33.8533 235.678 39.08V59H219.998ZM295.004 47.4C295.964 47.4 297.297 47.2933 299.004 47.08V59C296.017 59.5333 292.764 59.8 289.244 59.8C287.164 59.8 285.324 59.6133 283.724 59.24C282.124 58.8667 280.524 58.2 278.924 57.24C277.324 56.2267 276.07 54.68 275.164 52.6C274.31 50.4667 273.884 47.8267 273.884 44.68V31.24H268.044V19.24H273.884V7.64H289.564V19.24H298.604V31.24H289.564V41.4C289.564 45.4 291.377 47.4 295.004 47.4ZM305.154 59V19.24H320.834V28.12C321.527 25.08 322.914 22.7067 324.994 21C327.074 19.2933 329.5 18.44 332.274 18.44C333.287 18.44 334.274 18.52 335.234 18.68V33.48C333.9 33.2667 332.567 33.16 331.234 33.16C327.98 33.16 325.42 34.0933 323.554 35.96C321.74 37.7733 320.834 41 320.834 45.64V59H305.154ZM355.744 60.12C350.251 60.12 345.878 58.1733 342.624 54.28C339.371 50.3867 337.744 45.3467 337.744 39.16C337.744 32.9733 339.398 27.9333 342.704 24.04C346.011 20.0933 350.384 18.12 355.824 18.12C358.811 18.12 361.371 18.76 363.504 20.04C365.638 21.32 367.184 23.0267 368.144 25.16V19.24H383.904V59H368.144V53.08C367.238 55.16 365.664 56.8667 363.424 58.2C361.238 59.48 358.678 60.12 355.744 60.12ZM361.344 47.48C363.638 47.48 365.451 46.7067 366.784 45.16C368.171 43.56 368.864 41.56 368.864 39.16C368.864 36.7067 368.171 34.7067 366.784 33.16C365.451 31.56 363.638 30.76 361.344 30.76C359.104 30.76 357.318 31.56 355.984 33.16C354.651 34.7067 353.984 36.7067 353.984 39.16C353.984 41.6133 354.651 43.6133 355.984 45.16C357.318 46.7067 359.104 47.48 361.344 47.48ZM392.966 59V3H408.646V59H392.966ZM425.572 17.88C423.065 17.88 420.985 17.0533 419.332 15.4C417.679 13.6933 416.852 11.6667 416.852 9.32C416.852 6.92 417.679 4.89333 419.332 3.24C420.985 1.58666 423.065 0.759996 425.572 0.759996C428.025 0.759996 430.079 1.58666 431.732 3.24C433.439 4.89333 434.292 6.92 434.292 9.32C434.292 11.6667 433.439 13.6933 431.732 15.4C430.079 17.0533 428.025 17.88 425.572 17.88ZM417.732 59V19.24H433.412V59H417.732ZM438.338 59L456.018 32.04H440.258V19.24H478.818L461.698 46.2H477.218V59H438.338ZM524.732 37.08C524.732 39.0533 524.599 41 524.332 42.92H495.052C495.159 45 495.879 46.6267 497.212 47.8C498.599 48.9733 500.412 49.56 502.652 49.56C506.012 49.56 508.092 48.5733 508.892 46.6H524.092C523.399 50.8133 521.105 54.1733 517.212 56.68C513.319 59.1333 508.465 60.36 502.652 60.36C495.399 60.36 489.692 58.52 485.532 54.84C481.425 51.1067 479.372 45.88 479.372 39.16C479.372 32.5467 481.452 27.3467 485.612 23.56C489.772 19.72 495.345 17.8 502.332 17.8C508.945 17.8 514.332 19.5867 518.492 23.16C522.652 26.7333 524.732 31.3733 524.732 37.08ZM495.052 34.28H509.052C508.999 32.0933 508.385 30.3867 507.212 29.16C506.039 27.9333 504.359 27.32 502.172 27.32C500.039 27.32 498.332 27.96 497.052 29.24C495.825 30.52 495.159 32.2 495.052 34.28ZM559.162 3H574.842V59H559.082V53.08C558.175 55.16 556.602 56.8667 554.362 58.2C552.175 59.48 549.615 60.12 546.682 60.12C541.189 60.12 536.815 58.1733 533.562 54.28C530.309 50.3867 528.682 45.3467 528.682 39.16C528.682 32.9733 530.335 27.9333 533.642 24.04C536.949 20.0933 541.322 18.12 546.762 18.12C549.749 18.12 552.309 18.76 554.442 20.04C556.575 21.32 558.122 23.0267 559.082 25.16V19.24H559.162V3ZM552.282 47.48C554.575 47.48 556.389 46.7067 557.722 45.16C559.109 43.56 559.802 41.56 559.802 39.16C559.802 36.7067 559.109 34.7067 557.722 33.16C556.389 31.56 554.575 30.76 552.282 30.76C550.042 30.76 548.255 31.56 546.922 33.16C545.589 34.7067 544.922 36.7067 544.922 39.16C544.922 41.6133 545.589 43.6133 546.922 45.16C548.255 46.7067 550.042 47.48 552.282 47.48ZM24.2238 140.76C16.9171 140.76 11.1571 139 6.94375 135.48C2.78375 131.907 0.70375 126.973 0.70375 120.68H17.3438C17.3438 123.08 17.9571 124.973 19.1838 126.36C20.4638 127.747 22.2238 128.44 24.4638 128.44C28.1971 128.44 30.0638 126.893 30.0638 123.8C30.0638 122.52 29.6638 121.507 28.8638 120.76C28.0638 119.96 26.7038 119.187 24.7838 118.44L13.6638 114.36C5.66375 111.373 1.66375 106.093 1.66375 98.52C1.66375 93.2933 3.61042 89.1067 7.50375 85.96C11.4504 82.8133 16.8104 81.24 23.5838 81.24C30.4104 81.24 35.8504 82.84 39.9038 86.04C44.0104 89.24 46.0638 93.6133 46.0638 99.16H29.4238C29.4238 97.08 28.8904 95.48 27.8238 94.36C26.8104 93.1867 25.3438 92.6 23.4238 92.6C21.8771 92.6 20.6504 92.9733 19.7438 93.72C18.8371 94.4667 18.3838 95.5067 18.3838 96.84C18.3838 97.96 18.8371 98.9467 19.7438 99.8C20.6504 100.6 22.2504 101.427 24.5438 102.28L34.7838 106.2C42.7304 109.293 46.7038 114.68 46.7038 122.36C46.7038 128.013 44.6771 132.493 40.6238 135.8C36.5704 139.107 31.1038 140.76 24.2238 140.76ZM73.195 140.36C66.2083 140.36 60.6083 138.413 56.395 134.52C52.1817 130.573 50.075 125.427 50.075 119.08C50.075 112.733 52.1817 107.613 56.395 103.72C60.6083 99.7733 66.2083 97.8 73.195 97.8C80.235 97.8 85.8617 99.7733 90.075 103.72C94.2883 107.613 96.395 112.733 96.395 119.08C96.395 125.427 94.2883 130.573 90.075 134.52C85.8617 138.413 80.235 140.36 73.195 140.36ZM73.195 127.48C75.4883 127.48 77.3017 126.707 78.635 125.16C79.9683 123.613 80.635 121.587 80.635 119.08C80.635 116.573 79.9683 114.547 78.635 113C77.3017 111.453 75.4883 110.68 73.195 110.68C70.955 110.68 69.1417 111.48 67.755 113.08C66.4217 114.627 65.755 116.627 65.755 119.08C65.755 121.533 66.4217 123.56 67.755 125.16C69.1417 126.707 70.955 127.48 73.195 127.48ZM123.5 140.36C116.62 140.36 111.1 138.413 106.94 134.52C102.78 130.627 100.7 125.48 100.7 119.08C100.7 112.68 102.78 107.533 106.94 103.64C111.1 99.7467 116.62 97.8 123.5 97.8C129.793 97.8 134.913 99.3733 138.86 102.52C142.86 105.613 145.127 109.8 145.66 115.08H129.98C129.287 112.2 127.127 110.76 123.5 110.76C121.26 110.76 119.5 111.507 118.22 113C116.993 114.44 116.38 116.467 116.38 119.08C116.38 121.693 116.993 123.747 118.22 125.24C119.5 126.68 121.26 127.4 123.5 127.4C127.073 127.4 129.233 125.987 129.98 123.16H145.66C145.127 128.44 142.86 132.627 138.86 135.72C134.913 138.813 129.793 140.36 123.5 140.36ZM159.244 97.88C156.737 97.88 154.657 97.0533 153.004 95.4C151.35 93.6933 150.524 91.6667 150.524 89.32C150.524 86.92 151.35 84.8933 153.004 83.24C154.657 81.5867 156.737 80.76 159.244 80.76C161.697 80.76 163.75 81.5867 165.404 83.24C167.11 84.8933 167.964 86.92 167.964 89.32C167.964 91.6667 167.11 93.6933 165.404 95.4C163.75 97.0533 161.697 97.88 159.244 97.88ZM151.404 139V99.24H167.084V139H151.404ZM191.369 140.12C185.876 140.12 181.503 138.173 178.249 134.28C174.996 130.387 173.369 125.347 173.369 119.16C173.369 112.973 175.023 107.933 178.329 104.04C181.636 100.093 186.009 98.12 191.449 98.12C194.436 98.12 196.996 98.76 199.129 100.04C201.263 101.32 202.809 103.027 203.769 105.16V99.24H219.529V139H203.769V133.08C202.863 135.16 201.289 136.867 199.049 138.2C196.863 139.48 194.303 140.12 191.369 140.12ZM196.969 127.48C199.263 127.48 201.076 126.707 202.409 125.16C203.796 123.56 204.489 121.56 204.489 119.16C204.489 116.707 203.796 114.707 202.409 113.16C201.076 111.56 199.263 110.76 196.969 110.76C194.729 110.76 192.943 111.56 191.609 113.16C190.276 114.707 189.609 116.707 189.609 119.16C189.609 121.613 190.276 123.613 191.609 125.16C192.943 126.707 194.729 127.48 196.969 127.48ZM228.591 139V83H244.271V139H228.591ZM272.741 139V83H308.741V96.6H289.381V109H308.741V122.12H289.381V139H272.741ZM324.322 97.88C321.815 97.88 319.735 97.0533 318.082 95.4C316.429 93.6933 315.602 91.6667 315.602 89.32C315.602 86.92 316.429 84.8933 318.082 83.24C319.735 81.5867 321.815 80.76 324.322 80.76C326.775 80.76 328.829 81.5867 330.482 83.24C332.189 84.8933 333.042 86.92 333.042 89.32C333.042 91.6667 332.189 93.6933 330.482 95.4C328.829 97.0533 326.775 97.88 324.322 97.88ZM316.482 139V99.24H332.162V139H316.482ZM341.248 139V99.24H356.928V105.08C359.061 100.44 363.354 98.12 369.808 98.12C379.514 98.12 384.368 103.667 384.368 114.76V139H368.368V118.76C368.368 113.747 366.528 111.24 362.848 111.24C358.901 111.24 356.928 113.853 356.928 119.08V139H341.248ZM408.244 140.12C402.751 140.12 398.378 138.173 395.124 134.28C391.871 130.387 390.244 125.347 390.244 119.16C390.244 112.973 391.898 107.933 395.204 104.04C398.511 100.093 402.884 98.12 408.324 98.12C411.311 98.12 413.871 98.76 416.004 100.04C418.138 101.32 419.684 103.027 420.644 105.16V99.24H436.404V139H420.644V133.08C419.738 135.16 418.164 136.867 415.924 138.2C413.738 139.48 411.178 140.12 408.244 140.12ZM413.844 127.48C416.138 127.48 417.951 126.707 419.284 125.16C420.671 123.56 421.364 121.56 421.364 119.16C421.364 116.707 420.671 114.707 419.284 113.16C417.951 111.56 416.138 110.76 413.844 110.76C411.604 110.76 409.818 111.56 408.484 113.16C407.151 114.707 406.484 116.707 406.484 119.16C406.484 121.613 407.151 123.613 408.484 125.16C409.818 126.707 411.604 127.48 413.844 127.48ZM445.466 139V99.24H461.146V105.08C463.28 100.44 467.573 98.12 474.026 98.12C483.733 98.12 488.586 103.667 488.586 114.76V139H472.586V118.76C472.586 113.747 470.746 111.24 467.066 111.24C463.12 111.24 461.146 113.853 461.146 119.08V139H445.466ZM516.703 140.36C509.823 140.36 504.303 138.413 500.143 134.52C495.983 130.627 493.903 125.48 493.903 119.08C493.903 112.68 495.983 107.533 500.143 103.64C504.303 99.7467 509.823 97.8 516.703 97.8C522.996 97.8 528.116 99.3733 532.063 102.52C536.063 105.613 538.33 109.8 538.863 115.08H523.183C522.49 112.2 520.33 110.76 516.703 110.76C514.463 110.76 512.703 111.507 511.423 113C510.196 114.44 509.583 116.467 509.583 119.08C509.583 121.693 510.196 123.747 511.423 125.24C512.703 126.68 514.463 127.4 516.703 127.4C520.276 127.4 522.436 125.987 523.183 123.16H538.863C538.33 128.44 536.063 132.627 532.063 135.72C528.116 138.813 522.996 140.36 516.703 140.36ZM588.482 117.08C588.482 119.053 588.349 121 588.082 122.92H558.802C558.909 125 559.629 126.627 560.962 127.8C562.349 128.973 564.162 129.56 566.402 129.56C569.762 129.56 571.842 128.573 572.642 126.6H587.842C587.149 130.813 584.855 134.173 580.962 136.68C577.069 139.133 572.215 140.36 566.402 140.36C559.149 140.36 553.442 138.52 549.282 134.84C545.175 131.107 543.122 125.88 543.122 119.16C543.122 112.547 545.202 107.347 549.362 103.56C553.522 99.72 559.095 97.8 566.082 97.8C572.695 97.8 578.082 99.5867 582.242 103.16C586.402 106.733 588.482 111.373 588.482 117.08ZM558.802 114.28H572.802C572.749 112.093 572.135 110.387 570.962 109.16C569.789 107.933 568.109 107.32 565.922 107.32C563.789 107.32 562.082 107.96 560.802 109.24C559.575 110.52 558.909 112.2 558.802 114.28Z" fill="url(#paint0_radial_2_7)"/>
<defs>
<radialGradient id="paint0_radial_2_7" cx="0" cy="0" r="1" gradientUnits="userSpaceOnUse" gradientTransform="translate(295 153) rotate(90.7162) scale(40.0031 250.522)">
<stop stop-color="#D857BA"/>
<stop offset="1" stop-color="white"/>
</radialGradient>
</defs>
</svg>
