<svg width="532" height="386" viewBox="0 0 532 386" fill="none" xmlns="http://www.w3.org/2000/svg">
<path d="M443.11 104.784L415.74 243.824L415.3 246.054C415.05 247.344 414.65 248.584 414.13 249.764C411.98 254.644 407.69 258.354 402.39 259.714L367.32 268.704L188.05 314.664C175.12 317.974 162.24 309.164 160.63 295.924L149.43 203.704L133.95 76.1844C132.2 61.7844 144.57 49.6344 158.94 51.6344L432.45 89.8044C439.64 90.8044 444.52 97.6544 443.11 104.784Z" fill="url(#paint0_linear_104_81)"/>
<path d="M415.74 243.824L415.3 246.054C415.05 247.344 414.65 248.584 414.13 249.764C390.09 250.484 357.03 253.124 341.53 255.304C323.34 257.854 202.27 259.774 202.27 259.774C202.72 262.034 209.48 261.604 216.27 265.544C219.94 267.674 224.14 268.704 228.37 268.704H367.32L188.05 314.664C175.12 317.974 162.24 309.164 160.63 295.924L149.43 203.704C150.62 203.654 151.85 203.624 153.13 203.624C190.35 203.624 218.53 227.554 251.39 234.414C255.9 235.354 277.08 234.894 288.56 235.534C300.05 236.174 328.6 236.964 352.85 240.964C376.43 244.824 394.96 244.764 415.74 243.824Z" fill="#354388"/>
<path d="M280.91 126.814C241.93 206.474 193.78 258.964 115.46 315.414C110.87 314.124 105.9 311.084 101.48 307.284C95.6502 302.274 90.7602 295.944 88.9602 290.554C145.83 212.534 199.3 163.664 279.2 125.074C279.93 124.724 280.69 125.114 280.95 125.744C281.08 126.074 281.09 126.454 280.91 126.814Z" fill="#F5FCFF"/>
<path d="M107.44 317.574L101.86 344.634L97.0202 334.324L79.5202 362.494L83.1802 342.774L23.4302 385.384L66.1002 321.614H52.9102L75.5602 308.674L64.6602 304.354L86.4702 297.644C86.9602 298.424 87.4502 299.204 87.9402 299.954C88.5102 300.814 89.0902 301.644 89.6902 302.464C81.3902 312.164 73.5102 323.444 67.8102 334.854C67.4602 335.554 67.5002 336.364 67.9002 337.014C68.3102 337.674 69.0402 338.084 69.8002 338.084C70.2302 338.084 70.6602 337.954 71.0202 337.714C79.4802 332.184 88.5502 324.004 99.2002 312.304C100.84 313.594 102.63 314.814 104.59 315.984C105.51 316.524 106.45 317.054 107.44 317.574Z" fill="#F49600"/>
<path d="M104.6 315.984L89.3402 339.234L88.2602 330.384L36.3602 373.144L82.1502 306.974L74.3602 304.344L87.9402 299.944C88.5102 300.804 89.0902 301.634 89.6902 302.454C81.3902 312.154 73.5102 323.434 67.8102 334.844C67.4602 335.544 67.5002 336.354 67.9002 337.004C68.3102 337.664 69.0402 338.074 69.8002 338.074C70.2302 338.074 70.6602 337.944 71.0202 337.704C79.4802 332.174 88.5502 323.994 99.2002 312.294C100.85 313.594 102.64 314.814 104.6 315.984Z" fill="#F7F7FF"/>
<path d="M502.91 135.804C503.29 129.184 493.54 128.784 491.19 129.764C490.43 126.074 483.35 124.354 476.47 126.144C475.96 116.704 466.34 118.224 465.04 118.554C459.68 112.094 448.8 114.394 444.97 115.404C434.41 103.394 416.69 101.804 405.07 108.134C399.74 106.714 395.35 109.874 393.92 113.324C388.03 114.264 375.63 112.464 370.66 122.244C366.2 120.674 359.82 122.344 358.32 126.904C354.27 125.234 347.32 127.764 349.71 133.244C402.73 133.244 429.21 135.804 502.91 135.804Z" fill="#CEECFF"/>
<path d="M186.99 91.1144C338.98 91.0644 402.42 84.4844 528.54 84.3844C530.34 84.3844 531.8 82.9644 531.89 81.1744C532.47 70.1444 527.54 59.0944 512.5 56.1744C506.41 33.7344 491.02 29.2444 475.64 31.0144C463.95 17.4144 455.21 13.4544 436.53 15.1444C407.52 -10.1756 366.65 -0.725594 346.46 30.6944C320.5 29.4144 302.54 39.6744 294.37 59.8644C273.69 53.4544 263.91 72.5544 249.17 75.2544C236.43 77.5844 221.25 77.3944 208.94 79.1044C195.92 80.9044 186.04 84.2544 185.04 88.7844C184.78 89.9844 185.75 91.1144 186.99 91.1144Z" fill="#CEECFF"/>
<path d="M270.4 75.7344C265.46 79.7744 259.58 79.4944 256.22 82.9444C298.8 81.8344 350.52 87.4744 393.81 86.9044C334.99 88.8044 276.26 91.0844 186.99 91.1144C185.75 91.1144 184.78 89.9844 185.05 88.7744C186.05 84.2344 195.92 80.8944 208.94 79.0944C221.25 77.3844 236.44 77.5744 249.17 75.2444C263.9 72.5444 273.69 53.4444 294.37 59.8544C302.55 39.6644 320.49 29.4044 346.46 30.6844C366.65 -0.735603 407.53 -10.1856 436.54 15.1344C409.05 0.614392 368.26 3.27439 349.59 43.5844C328.03 38.2144 310.08 48.3144 302.07 66.5844C283.31 63.3844 280.1 67.7944 270.4 75.7344Z" fill="white"/>
<path d="M0.640208 179.824C47.3102 179.824 65.4602 181.204 142.41 181.204C148.82 167.904 124.43 168.624 119.04 170.174C119.22 164.964 109.45 165.084 105.8 167.354C102.32 161.784 94.1102 156.444 85.2402 160.134C71.8302 137.384 35.5002 144.334 27.5902 166.554C21.4802 164.244 -4.36979 164.754 0.640208 179.824Z" fill="white"/>
<path d="M142.41 181.204C67.8702 181.204 48.5002 179.904 4.93021 179.834C3.52021 179.834 2.08021 179.824 0.640213 179.824C4.70021 166.554 26.9702 168.174 32.7402 170.354C40.2902 148.304 74.2102 143.384 85.6902 166.074C94.0702 162.594 101.97 164.134 105.25 169.394C108.7 167.244 118.6 167.474 118.44 172.394C122.81 171.134 147.95 169.534 142.45 181.124C142.44 181.154 142.42 181.174 142.41 181.204Z" fill="#CEECFF"/>
<path d="M301.43 208.664C341.94 208.664 423.65 207.974 423.65 207.974C423.11 207.134 419.9 206.174 417.33 206.174C392.1 206.174 375.61 198.984 356.05 198.984C344.86 198.984 322.87 204.824 310.21 206.234C305.93 206.704 302.24 207.134 301.43 208.664Z" fill="#CEECFF"/>
<path d="M77.8202 69.1544H75.9102V104.484H77.8202V69.1544Z" fill="#F49600"/>
<path d="M72.5869 87.6653V85.7552H46.5069V87.6653H72.5869Z" fill="#F49600"/>
<path d="M77.8102 73.5244H75.9302C75.9302 80.2844 70.4402 85.7744 63.6802 85.7744V87.6544C70.4402 87.6544 75.9302 93.1344 75.9302 99.8944H77.8102C77.8102 93.1344 83.3002 87.6544 90.0502 87.6544V85.7744C83.2902 85.7744 77.8102 80.2844 77.8102 73.5244Z" fill="#F49600"/>
<path d="M468.18 273.764H466.01C466.01 281.404 459.81 287.604 452.17 287.604V289.774C459.81 289.774 466.01 295.974 466.01 303.614H468.18C468.18 295.974 474.38 289.774 482.02 289.774V287.604C474.37 287.594 468.18 281.404 468.18 273.764Z" fill="#F49600"/>
<path d="M468.18 268.804H466.01V273.874H468.18V268.804Z" fill="#F49600"/>
<path d="M468.18 302.244H466.01V308.794H468.18V302.244Z" fill="#F49600"/>
<path d="M496.576 289.77V287.6H477.126V289.77H496.576Z" fill="#F49600"/>
<path d="M455.256 289.77V287.6H437.616V289.77H455.256Z" fill="#F49600"/>
<path d="M102.43 267.724L96.5402 275.154L84.2802 290.624C82.3802 293.024 81.4802 293.274 78.8802 293.924C74.8802 294.914 66.3602 296.504 60.9702 298.504C56.5602 300.144 51.4002 305.124 43.2302 312.774C42.1402 313.794 41.3002 314.454 40.6502 314.814C36.7802 317.024 40.0502 308.894 41.1402 306.154C45.1602 295.994 53.4202 280.134 59.9502 275.464C69.0602 268.954 75.8402 268.054 102.08 266.994C102.46 266.984 102.69 267.434 102.43 267.724Z" fill="#D5027A"/>
<path d="M123.91 276.134C111.24 280.384 83.9502 306.264 69.3002 335.604C69.0402 336.124 69.6402 336.664 70.1302 336.344C80.1202 329.804 90.9702 319.494 103.94 304.484C119.59 286.364 123.83 280.984 124.9 277.074C125.06 276.474 124.5 275.934 123.91 276.134Z" fill="#D5027A"/>
<path d="M96.4102 357.334C103.83 349.494 108.66 344.544 110.26 340.304C112.22 335.114 113.79 326.904 114.77 323.054C115.4 320.554 115.65 319.694 117.98 317.874L140.15 300.484C140.43 300.244 140.87 300.454 140.85 300.834C139.69 326.134 138.79 332.654 132.47 341.414C127.94 347.684 112.6 355.564 102.79 359.394C99.6902 360.594 89.5102 364.624 96.4102 357.334Z" fill="#B0008B"/>
<path d="M280.91 126.814C241.93 206.474 193.78 258.964 115.46 315.414C110.87 314.124 105.9 311.084 101.48 307.284C173.55 240.694 211.6 201.344 280.95 125.754H280.96C281.08 126.074 281.09 126.454 280.91 126.814Z" fill="#D1EBFF"/>
<path d="M175.53 223.004C176.31 223.764 177.16 224.424 178.06 224.974C178.6 225.304 179.25 224.884 179.23 224.254V224.144L178.84 212.904C178.79 211.144 179.43 209.374 180.76 208.014L186.8 201.824C189.4 199.164 193.67 199.114 196.33 201.714C198.99 204.314 199.04 208.584 196.44 211.244L194.39 213.334C194 213.734 194 214.384 194.41 214.774L198.23 218.504C198.63 218.894 199.28 218.894 199.67 218.484L201.89 216.204C207.34 210.624 207.23 201.694 201.66 196.244C196.08 190.794 187.15 190.904 181.7 196.474L175.3 203.024C169.85 208.614 169.96 217.554 175.53 223.004ZM186.37 211.904C185.59 211.144 184.74 210.484 183.84 209.934C183.3 209.604 182.65 210.024 182.67 210.654V210.764L183.06 222.004C183.11 223.764 182.47 225.534 181.14 226.894L175.1 233.084C172.5 235.744 168.23 235.794 165.57 233.194C162.91 230.594 162.86 226.324 165.46 223.664L167.5 221.574C167.89 221.174 167.89 220.524 167.48 220.134L163.66 216.404C163.26 216.014 162.61 216.014 162.22 216.424L160 218.694C154.55 224.274 154.66 233.204 160.23 238.654C165.81 244.104 174.74 243.994 180.19 238.424L186.59 231.874C192.05 226.294 191.95 217.354 186.37 211.904Z" fill="#E80285"/>
<path d="M281.04 126.384C281.03 126.474 281.01 126.574 280.97 126.674C280.95 126.714 280.93 126.764 280.91 126.814C280.26 128.134 279.61 129.444 278.96 130.754C278.63 131.404 278.31 132.054 277.98 132.704C277.11 134.434 276.24 136.144 275.36 137.844C274.92 138.704 274.47 139.564 274.02 140.414C273.69 141.044 273.36 141.684 273.02 142.314C272.69 142.944 272.35 143.574 272.02 144.204C271.82 144.584 271.62 144.964 271.41 145.344C271.17 145.784 270.94 146.224 270.7 146.654C270.47 147.094 270.23 147.524 269.99 147.954C269.53 148.794 269.07 149.634 268.6 150.474C268.14 151.314 267.68 152.144 267.21 152.984C266.75 153.814 266.28 154.644 265.81 155.464C265.34 156.294 264.87 157.114 264.4 157.934C264.01 158.604 263.63 159.274 263.24 159.944C262.98 160.394 262.71 160.854 262.45 161.304C261.2 163.444 259.93 165.564 258.65 167.664C258.55 167.834 258.44 168.004 258.34 168.174C258.26 168.314 258.18 168.444 258.09 168.584C257.53 169.514 256.96 170.434 256.39 171.344C255.05 173.514 253.7 175.664 252.32 177.784C252.12 178.114 251.91 178.434 251.7 178.744C250.34 180.854 248.96 182.944 247.57 185.014C247.65 178.554 245.1 172.964 241.33 168.584C253.57 155.494 266.58 141.404 280.92 125.764H280.93C280.95 125.804 280.96 125.844 280.97 125.884C280.99 125.944 281 126.004 281.01 126.064C281.05 126.164 281.05 126.274 281.04 126.384Z" fill="#B0008B"/>
<path d="M280.95 125.764C266.6 141.404 253.59 155.494 241.35 168.584C235.72 162.034 227.35 158.184 220.84 158.184C238.81 146.204 258.08 135.284 279.2 125.094C279.93 124.734 280.68 125.134 280.95 125.764Z" fill="#D5027A"/>
<path d="M154.24 285.714C151.93 287.614 149.59 289.504 147.22 291.394C140.48 277.914 127.97 263.644 113.19 258.874C115.16 256.434 117.13 254.024 119.1 251.644C132.89 257.264 145.9 269.814 154.24 285.714Z" fill="#D5027A"/>
<path d="M154.24 285.714C151.93 287.614 149.59 289.504 147.22 291.394C144.42 285.794 140.63 280.064 136.08 274.924C138.25 272.864 140.41 270.814 142.53 268.784C147 273.774 150.98 279.494 154.24 285.714Z" fill="#B0008B"/>
<path d="M101.48 268.934L84.2902 290.634C82.3902 293.034 81.4902 293.284 78.8902 293.934C74.8902 294.924 66.3702 296.514 60.9802 298.514C56.5702 300.154 51.4102 305.134 43.2402 312.784C42.1502 313.804 41.3102 314.464 40.6602 314.824C40.7702 314.554 40.8702 314.314 40.9502 314.094C60.4302 262.644 83.8002 274.864 101.48 268.934Z" fill="#B0008B"/>
<path d="M124.9 277.064C123.83 280.964 119.59 286.354 103.94 304.464C90.9702 319.474 80.1202 329.784 70.1302 336.324C69.9302 336.454 69.7102 336.444 69.5402 336.344C79.7502 325.434 114.77 286.634 124.88 276.584C124.93 276.744 124.94 276.904 124.9 277.064Z" fill="#B0008B"/>
<path d="M399.01 29.3943C404.091 29.3943 408.21 26.9991 408.21 24.0443C408.21 21.0896 404.091 18.6943 399.01 18.6943C393.929 18.6943 389.81 21.0896 389.81 24.0443C389.81 26.9991 393.929 29.3943 399.01 29.3943Z" fill="#E6007A"/>
<path d="M399.01 69.6944C404.091 69.6944 408.21 67.2991 408.21 64.3444C408.21 61.3897 404.091 58.9944 399.01 58.9944C393.929 58.9944 389.81 61.3897 389.81 64.3444C389.81 67.2991 393.929 69.6944 399.01 69.6944Z" fill="#E6007A"/>
<path d="M386.186 36.8099C388.727 32.4098 388.712 27.6451 386.153 26.1677C383.594 24.6903 379.461 27.0597 376.92 31.4599C374.38 35.8601 374.394 40.6248 376.953 42.1021C379.512 43.5795 383.646 41.2101 386.186 36.8099Z" fill="#E6007A"/>
<path d="M421.086 56.957C423.627 52.5568 423.612 47.7922 421.053 46.3149C418.494 44.8375 414.36 47.2068 411.82 51.607C409.279 56.0072 409.294 60.7719 411.853 62.2492C414.412 63.7266 418.546 61.3572 421.086 56.957Z" fill="#E6007A"/>
<path d="M386.151 62.2459C388.71 60.7685 388.725 56.0038 386.184 51.6037C383.643 47.2035 379.51 44.8341 376.951 46.3114C374.392 47.7888 374.377 52.5535 376.918 56.9537C379.458 61.3538 383.592 63.7232 386.151 62.2459Z" fill="#E6007A"/>
<path d="M421.048 42.0963C423.607 40.6189 423.622 35.8543 421.081 31.4541C418.541 27.0539 414.407 24.6845 411.848 26.1619C409.289 27.6393 409.274 32.4039 411.815 36.8041C414.355 41.2043 418.489 43.5737 421.048 42.0963Z" fill="#E6007A"/>
<defs>
<linearGradient id="paint0_linear_104_81" x1="222.539" y1="11.4865" x2="343.344" y2="296.511" gradientUnits="userSpaceOnUse">
<stop stop-color="#2B3780"/>
<stop offset="1" stop-color="#1E1345"/>
</linearGradient>
</defs>
</svg>
