<svg width="129" height="128" viewBox="0 0 129 128" fill="none" xmlns="http://www.w3.org/2000/svg">
<path d="M128.18 64C128.18 89.8 127.05 105.3 120.73 114.56C115.27 122.56 105.95 125.91 90.16 127.22C87.83 127.42 85.3601 127.57 82.7401 127.68C77.2401 127.92 71.0801 128 64.1801 128C59.8401 128 55.78 127.97 52 127.89C49.78 127.84 47.6501 127.77 45.6101 127.68C43.0001 127.57 40.5301 127.42 38.2101 127.22C23.5901 126.01 14.5101 123.05 8.92006 116.27C8.46006 115.73 8.04005 115.16 7.63005 114.56C1.31005 105.3 0.180054 89.8 0.180054 64C0.180054 5.76 5.94007 0 64.1801 0C82.4801 0 95.6001 0.570002 104.98 3.15C113.43 5.48 118.86 9.45 122.32 16.11C125.31 21.86 126.83 29.61 127.56 40.06C128.04 46.84 128.18 54.76 128.18 64Z" fill="url(#paint0_linear_289_639)"/>
<path d="M27.9 37.98L21.4 41.73V49.23" stroke="#D8EAFD" stroke-width="3" stroke-linecap="round" stroke-linejoin="round"/>
<path d="M21.4 59.81V78.33" stroke="#D8EAFD" stroke-width="3" stroke-linecap="round" stroke-linejoin="round" stroke-dasharray="13.23 13.23"/>
<path d="M21.4 83.6201V91.1201L27.9 94.8701" stroke="#D8EAFD" stroke-width="3" stroke-linecap="round" stroke-linejoin="round"/>
<path d="M37.0601 100.16L53.1001 109.42" stroke="#D8EAFD" stroke-width="3" stroke-linecap="round" stroke-linejoin="round" stroke-dasharray="13.23 13.23"/>
<path d="M57.6901 112.07L64.1801 115.82L70.6801 112.07" stroke="#D8EAFD" stroke-width="3" stroke-linecap="round" stroke-linejoin="round"/>
<path d="M79.84 106.78L95.88 97.52" stroke="#D8EAFD" stroke-width="3" stroke-linecap="round" stroke-linejoin="round" stroke-dasharray="13.23 13.23"/>
<path d="M100.46 94.8701L106.96 91.1201V83.6201" stroke="#D8EAFD" stroke-width="3" stroke-linecap="round" stroke-linejoin="round"/>
<path d="M106.96 73.04V54.52" stroke="#D8EAFD" stroke-width="3" stroke-linecap="round" stroke-linejoin="round" stroke-dasharray="13.23 13.23"/>
<path d="M106.96 49.23V41.73L100.46 37.98" stroke="#D8EAFD" stroke-width="3" stroke-linecap="round" stroke-linejoin="round"/>
<path d="M91.3 32.6901L75.26 23.4301" stroke="#D8EAFD" stroke-width="3" stroke-linecap="round" stroke-linejoin="round" stroke-dasharray="13.23 13.23"/>
<path d="M70.6801 20.78L64.1801 17.03L57.6901 20.78" stroke="#D8EAFD" stroke-width="3" stroke-linecap="round" stroke-linejoin="round"/>
<path d="M48.52 26.07L32.48 35.33" stroke="#D8EAFD" stroke-width="3" stroke-linecap="round" stroke-linejoin="round" stroke-dasharray="13.23 13.23"/>
<path d="M22.24 103H16.56C12.48 103 9.17004 99.69 9.17004 95.61V89.93C9.17004 85.85 12.48 82.54 16.56 82.54H22.24C26.32 82.54 29.63 85.85 29.63 89.93V95.61C29.64 99.69 26.33 103 22.24 103Z" fill="#FFB103"/>
<path d="M18.7001 98.13L14.0401 93.47C13.6501 93.08 13.6501 92.45 14.0401 92.06L18.7001 87.4C19.0901 87.01 19.7201 87.01 20.1101 87.4L24.7701 92.06C25.1601 92.45 25.1601 93.08 24.7701 93.47L20.1101 98.13C19.7201 98.52 19.0901 98.52 18.7001 98.13Z" fill="#049AFB"/>
<path d="M64.1801 115.82V66.4301" stroke="#D8EAFD" stroke-width="3" stroke-miterlimit="10" stroke-linecap="round" stroke-linejoin="round" stroke-dasharray="12 12"/>
<path d="M66.8601 29.22H61.5101C57.4301 29.22 54.1201 25.91 54.1201 21.83V16.48C54.1201 12.4 57.4301 9.09003 61.5101 9.09003H66.8601C70.9401 9.09003 74.2501 12.4 74.2501 16.48V21.83C74.2501 25.91 70.9401 29.22 66.8601 29.22Z" fill="#80DBFF"/>
<path d="M64.1801 24.1201C66.9249 24.1201 69.1501 21.8949 69.1501 19.1501C69.1501 16.4052 66.9249 14.1801 64.1801 14.1801C61.4352 14.1801 59.2101 16.4052 59.2101 19.1501C59.2101 21.8949 61.4352 24.1201 64.1801 24.1201Z" fill="#435CA1"/>
<path d="M21.4 41.73L64.18 66.43" stroke="#D8EAFD" stroke-width="3" stroke-miterlimit="10" stroke-linecap="round" stroke-linejoin="round" stroke-dasharray="9 9"/>
<path d="M106.96 41.73L64.1801 66.43" stroke="#D8EAFD" stroke-width="3" stroke-miterlimit="10" stroke-linecap="round" stroke-linejoin="round" stroke-dasharray="9 9"/>
<path d="M90.76 79.72H37.65C33.57 79.72 30.26 76.41 30.26 72.33V59.98C30.26 55.9 33.57 52.59 37.65 52.59H90.76C94.84 52.59 98.15 55.9 98.15 59.98V72.33C98.15 76.41 94.84 79.72 90.76 79.72Z" fill="#FFB103"/>
<path d="M45.06 58.89C46.13 59.24 46.9901 59.8801 47.6501 60.8201C48.1801 61.5801 48.54 62.39 48.73 63.2701C48.92 64.1501 49.0201 64.99 49.0201 65.78C49.0201 67.8 48.61 69.51 47.8 70.91C46.7 72.8 45.0001 73.7401 42.7101 73.7401H36.16V58.55H42.7101C43.6501 58.57 44.43 58.68 45.06 58.89ZM39.2401 61.19V71.1001H42.17C43.67 71.1001 44.71 70.36 45.31 68.89C45.63 68.08 45.8 67.1101 45.8 65.9901C45.8 64.4401 45.56 63.2601 45.07 62.4301C44.58 61.6001 43.6201 61.19 42.1801 61.19H39.2401Z" fill="black"/>
<path d="M56.59 58.5601H60.1801L65.55 73.7501H62.11L61.11 70.6301H55.5201L54.4901 73.7501H51.17L56.59 58.5601ZM56.38 68.0001H60.2701L58.35 62.0201L56.38 68.0001Z" fill="black"/>
<path d="M77.8 58.5601V61.2501H73.26V73.7501H70.07V61.2501H65.51V58.5601H77.8Z" fill="black"/>
<path d="M83.2901 58.5601H86.8801L92.2501 73.7501H88.8101L87.8101 70.6301H82.2201L81.1901 73.7501H77.8701L83.2901 58.5601ZM83.0801 68.0001H86.9701L85.0501 62.0201L83.0801 68.0001Z" fill="black"/>
<path d="M111.8 103H106.12C102.04 103 98.73 99.69 98.73 95.61V89.93C98.73 85.85 102.04 82.54 106.12 82.54H111.8C115.88 82.54 119.19 85.85 119.19 89.93V95.61C119.19 99.69 115.88 103 111.8 103Z" fill="#049AFB"/>
<path d="M108.09 88.09L103.92 95.32C103.54 95.99 104.02 96.82 104.79 96.82H113.14C113.91 96.82 114.39 95.99 114.01 95.32L109.84 88.09C109.44 87.42 108.48 87.42 108.09 88.09Z" fill="#D8EAFD"/>
<defs>
<linearGradient id="paint0_linear_289_639" x1="9.39365" y1="6.7186" x2="124.248" y2="126.787" gradientUnits="userSpaceOnUse">
<stop offset="0.00640146" stop-color="#CE0099"/>
<stop offset="1" stop-color="#53267A"/>
</linearGradient>
</defs>
</svg>
