<svg width="129" height="128" viewBox="0 0 129 128" fill="none" xmlns="http://www.w3.org/2000/svg">
<path d="M128.18 64C128.18 89.8 127.05 105.3 120.73 114.56C115.27 122.56 105.95 125.91 90.1601 127.22C87.8301 127.42 85.3601 127.57 82.7401 127.68C77.2401 127.92 71.0801 128 64.1801 128C59.8401 128 55.7801 127.97 52.0001 127.89C49.7801 127.84 47.6501 127.77 45.6101 127.68C43.0001 127.57 40.5301 127.42 38.2101 127.22C23.5901 126.01 14.5101 123.05 8.92005 116.27C8.46005 115.73 8.04005 115.16 7.63005 114.56C1.31005 105.3 0.180054 89.8 0.180054 64C0.180054 5.76001 5.94005 0 64.1801 0C82.4801 0 95.6001 0.570009 104.98 3.15001C113.43 5.48001 118.86 9.45 122.32 16.11C125.31 21.86 126.83 29.61 127.56 40.06C128.04 46.84 128.18 54.76 128.18 64Z" fill="url(#paint0_linear_192_623)"/>
<path d="M19.67 108.85C23 100.67 27.67 91.14 30.24 86.44C40.55 67.59 46.42 73.09 61.56 72.93C65.1 72.89 68.65 73.01 72.19 73.07C74.41 73.11 76.3 75.22 76.3 77.34C76.3 79.48 74.3801 81.61 71.9601 81.6C68.6701 81.59 63.29 81.59 59.26 81.59C57.4 81.59 55.89 83.1 55.89 84.96H58.27C59.68 84.96 68.6901 85.06 72.3201 84.97C73.4001 84.95 74.58 84.59 75.53 84.05C81.07 80.95 89.73 75.36 93.16 73.68C101.7 69.49 115.01 72.89 104.13 79.77C74.9001 98.26 79.92 95.08 78.44 95.97C71.9 99.89 64.54 101.74 58.21 101.74C50.9 101.74 50 105.53 47.29 110.3C29.08 110.3 26.67 108.85 19.67 108.85Z" fill="#FFA87D"/>
<path d="M56.51 117.56L52 127.89C49.78 127.84 47.65 127.77 45.61 127.68C43 127.57 40.53 127.42 38.21 127.22C23.59 126.01 14.51 123.05 8.92004 116.27L16.05 99.92C16.94 97.89 19.3 96.97 21.32 97.85L23.98 99.01L47.8 109.4V109.41L54.44 112.3C56.46 113.18 57.39 115.54 56.51 117.56Z" fill="#049AFB"/>
<path d="M38.48 64.85H15.84C11.76 64.85 8.44995 61.54 8.44995 57.46V41.18C8.44995 37.1 11.76 33.79 15.84 33.79H38.48C42.56 33.79 45.87 37.1 45.87 41.18V57.46C45.88 61.54 42.57 64.85 38.48 64.85Z" fill="#D8EAFD"/>
<path d="M19.53 58.44C21.5016 58.44 23.1 57.1192 23.1 55.49C23.1 53.8608 21.5016 52.54 19.53 52.54C17.5583 52.54 15.96 53.8608 15.96 55.49C15.96 57.1192 17.5583 58.44 19.53 58.44Z" fill="#435CA1"/>
<path d="M32.7399 58.44C34.7116 58.44 36.3099 57.1192 36.3099 55.49C36.3099 53.8608 34.7116 52.54 32.7399 52.54C30.7683 52.54 29.1699 53.8608 29.1699 55.49C29.1699 57.1192 30.7683 58.44 32.7399 58.44Z" fill="#435CA1"/>
<path d="M23.0899 42.38H21.0299V55.49H23.0899V42.38Z" fill="#435CA1"/>
<path d="M36.2999 42.19V44.56H21.0299V42.19C21.0299 41.09 21.9299 40.19 23.0299 40.19H34.2999C35.4099 40.19 36.2999 41.09 36.2999 42.19Z" fill="#435CA1"/>
<path d="M36.3 42.38H34.24V55.49H36.3V42.38Z" fill="#435CA1"/>
<path d="M87.1999 51.97H41.1599C37.0799 51.97 33.7699 48.66 33.7699 44.58V15.49C33.7699 11.41 37.0799 8.09998 41.1599 8.09998H87.1999C91.2799 8.09998 94.5899 11.41 94.5899 15.49V44.58C94.5899 48.66 91.2799 51.97 87.1999 51.97Z" fill="#80DBFF"/>
<path d="M94.5899 35.38V44.57C94.5899 48.65 91.2799 51.96 87.1999 51.96H41.1599C37.0799 51.96 33.7699 48.65 33.7699 44.57V42.99L46.9299 32.75C47.6399 32.2 48.6399 32.22 49.3299 32.8L58.0199 40.2L77.3999 25.61C78.0399 25.13 78.9099 25.1 79.5799 25.54L94.5899 35.38Z" fill="#00AF4F"/>
<path d="M69.4099 23.8C72.2984 23.8 74.6399 21.4584 74.6399 18.57C74.6399 15.6815 72.2984 13.34 69.4099 13.34C66.5215 13.34 64.1799 15.6815 64.1799 18.57C64.1799 21.4584 66.5215 23.8 69.4099 23.8Z" fill="white"/>
<path d="M112.51 64.85H89.87C85.79 64.85 82.48 61.54 82.48 57.46V41.18C82.48 37.1 85.79 33.79 89.87 33.79H112.51C116.59 33.79 119.9 37.1 119.9 41.18V57.46C119.91 61.54 116.6 64.85 112.51 64.85Z" fill="#FFB103"/>
<path d="M107.22 48.37L96.78 43.01C96.07 42.64 95.22 43.16 95.22 43.96V54.69C95.22 55.49 96.07 56.01 96.78 55.64L107.22 50.28C107.99 49.87 107.99 48.77 107.22 48.37Z" fill="white"/>
<path d="M65.04 8.08997L55.76 38.3L49.32 32.81C48.63 32.22 47.63 32.2 46.92 32.75L33.76 42.99V15.48C33.76 11.4 37.07 8.08997 41.16 8.08997H65.04Z" fill="#83C7FF"/>
<path d="M55.76 38.3L51.57 51.96H41.16C40.2 51.96 39.29 51.78 38.45 51.45C38.11 51.31 37.78 51.16 37.47 50.98C37.32 50.89 37.17 50.8 37.02 50.7C36.63 50.43 36.26 50.13 35.93 49.8C34.59 48.46 33.76 46.61 33.76 44.57V42.99L46.92 32.75C47.63 32.2 48.63 32.22 49.32 32.81L55.76 38.3Z" fill="#00A044"/>
<defs>
<linearGradient id="paint0_linear_192_623" x1="9.38845" y1="6.7187" x2="124.243" y2="126.787" gradientUnits="userSpaceOnUse">
<stop offset="0.00640146" stop-color="#CE0099"/>
<stop offset="1" stop-color="#53267A"/>
</linearGradient>
</defs>
</svg>
