<svg width="129" height="128" viewBox="0 0 129 128" fill="none" xmlns="http://www.w3.org/2000/svg">
<path d="M128.18 64C128.18 89.8 127.05 105.3 120.73 114.56C115.27 122.56 105.95 125.91 90.1601 127.22C87.8301 127.42 85.3601 127.57 82.7401 127.68C77.2401 127.92 71.0801 128 64.1801 128C59.8401 128 55.7801 127.97 52.0001 127.89C49.7801 127.84 47.65 127.77 45.61 127.68C43.02 127.57 40.57 127.42 38.2701 127.23C38.2701 127.22 38.2701 127.22 38.2701 127.22H38.2101C23.5901 126.01 14.51 123.05 8.92004 116.27C8.46004 115.73 8.04007 115.16 7.63007 114.56C7.46007 114.31 7.30005 114.06 7.14005 113.81C6.32004 112.51 5.59007 111.09 4.95007 109.55C4.02007 107.32 3.27006 104.82 2.66006 102.03C0.650065 92.88 0.180054 80.56 0.180054 64C0.180054 5.76001 5.94005 0 64.1801 0C74.3301 0 82.8901 0.179999 90.0901 0.779999C95.8801 1.25 100.8 2.00001 104.98 3.15001C112.59 5.25001 117.75 8.68 121.22 14.2C121.61 14.81 121.98 15.45 122.32 16.11C122.71 16.85 123.07 17.63 123.41 18.44C124.34 20.67 125.09 23.16 125.71 25.95C126.6 30 127.18 34.67 127.56 40.06C128.04 46.84 128.18 54.76 128.18 64Z" fill="url(#paint0_linear_192_621)"/>
<path d="M64.17 113.09C63.28 113.09 62.38 113.07 61.48 113.02L61.86 106.03C63.72 106.13 65.56 106.11 67.37 105.97L67.56 105.96L68.09 112.94L67.9 112.95C66.66 113.05 65.41 113.09 64.17 113.09ZM42.94 108.24C41.02 107.31 39.14 106.25 37.36 105.08L41.2 99.23C42.73 100.23 44.34 101.14 45.99 101.94L42.94 108.24ZM86.51 107.75L83.33 101.52C84.96 100.69 86.54 99.74 88.05 98.71L92.02 104.47C90.26 105.68 88.41 106.78 86.51 107.75ZM23.7 91.7C22.49 89.94 21.4 88.08 20.43 86.18L26.68 83.02C27.5 84.65 28.44 86.24 29.48 87.75L23.7 91.7ZM105.36 90.76L99.49 86.94C100.49 85.4 101.4 83.79 102.18 82.14L108.49 85.16C107.58 87.09 106.53 88.97 105.36 90.76ZM15.29 67.7L18.78 67.48L15.29 67.7C15.2 66.46 15.15 65.21 15.15 63.98C15.15 63.1 15.17 62.21 15.22 61.34L22.21 61.72C22.17 62.47 22.15 63.23 22.15 63.99C22.15 65.05 22.19 66.12 22.27 67.18L18.78 67.49L15.29 67.7ZM113.22 66.62L106.23 66.26C106.27 65.54 106.29 64.81 106.29 64.08C106.29 63.02 106.25 61.95 106.17 60.89L113.14 60.2L113.15 60.36C113.24 61.61 113.29 62.86 113.29 64.09C113.29 64.93 113.26 65.78 113.22 66.62ZM26.29 45.83L19.98 42.79C20.91 40.87 21.97 38.99 23.13 37.2L28.99 41.03C27.99 42.57 27.08 44.18 26.29 45.83ZM101.73 44.96C100.9 43.34 99.96 41.75 98.92 40.24L104.69 36.28C105.9 38.04 107 39.89 107.97 41.79L101.73 44.96ZM40.47 29.31L36.51 23.54C38.27 22.33 40.13 21.23 42.03 20.27L45.2 26.51C43.57 27.33 41.98 28.27 40.47 29.31ZM87.17 28.78C85.64 27.78 84.03 26.87 82.38 26.08L85.41 19.77C87.33 20.69 89.21 21.75 91 22.92L87.17 28.78ZM61.08 22.08L60.5 15.1C62.7 14.93 64.77 14.91 66.87 15.02L66.5 22.01C64.71 21.93 62.89 21.95 61.08 22.08Z" fill="#80DBFF"/>
<path d="M60.52 100.75C59.33 100.63 58.46 99.56 58.58 98.37C58.7 97.18 59.76 96.31 60.96 96.43H60.95C62.15 96.55 63.02 97.61 62.9 98.81C62.78 99.93 61.84 100.76 60.74 100.76C60.68 100.76 60.59 100.76 60.52 100.75ZM70.66 98.24C70.37 97.07 71.07 95.9 72.23 95.6C73.39 95.3 74.57 96.01 74.87 97.17C75.16 98.33 74.46 99.51 73.3 99.81C73.12 99.85 72.94 99.87 72.76 99.87C71.8 99.87 70.91 99.22 70.66 98.24ZM48.2 97.28C47.12 96.76 46.66 95.46 47.18 94.38C47.7 93.3 49 92.85 50.08 93.37V93.36C51.16 93.88 51.61 95.18 51.09 96.26C50.72 97.04 49.94 97.49 49.14 97.49C48.81 97.49 48.49 97.42 48.2 97.28ZM81.97 93.97C81.29 92.98 81.55 91.62 82.54 90.95C82.54 90.95 82.54 90.95 82.55 90.95C82.57 90.93 82.6 90.91 82.62 90.89C83.61 90.22 84.96 90.47 85.64 91.46C86.31 92.45 86.06 93.8 85.07 94.47C85.07 94.48 85.06 94.48 85.06 94.48C85.03 94.5 85.01 94.52 84.98 94.54C84.61 94.79 84.18 94.92 83.76 94.92C83.07 94.92 82.39 94.58 81.97 93.97ZM37.78 89.79C36.95 88.94 36.97 87.56 37.83 86.73C38.69 85.89 40.06 85.91 40.89 86.77C41.73 87.63 41.71 89 40.85 89.84C40.43 90.25 39.88 90.45 39.34 90.45C38.77 90.45 38.22 90.23 37.78 89.79ZM91.2 86.01C90.23 85.32 90 83.96 90.7 82.99C91.4 82.01 92.76 81.79 93.73 82.49C94.7 83.18 94.93 84.54 94.23 85.51C93.81 86.11 93.14 86.42 92.47 86.42C92.03 86.42 91.59 86.29 91.2 86.01ZM30.57 79.21C30.07 78.12 30.56 76.83 31.65 76.34C32.74 75.84 34.03 76.33 34.52 77.42C35.02 78.51 34.53 79.8 33.44 80.29C33.15 80.42 32.85 80.48 32.55 80.48C31.72 80.48 30.93 80.01 30.57 79.21ZM97.09 75.46C95.93 75.14 95.26 73.94 95.58 72.79C95.9 71.63 97.1 70.96 98.25 71.28C99.41 71.6 100.08 72.8 99.76 73.96C99.49 74.91 98.62 75.54 97.67 75.54C97.49 75.54 97.28 75.52 97.09 75.46ZM27.41 66.79C27.33 65.59 28.22 64.55 29.42 64.46C30.61 64.37 31.65 65.27 31.74 66.47C31.83 67.66 30.93 68.7 29.74 68.79C29.68 68.8 29.63 68.8 29.57 68.8C28.45 68.8 27.49 67.93 27.41 66.79ZM96.7 61.53C96.61 60.34 97.51 59.3 98.7 59.21C99.9 59.12 100.94 60.01 101.03 61.21C101.12 62.4 100.22 63.44 99.03 63.53C98.97 63.54 98.92 63.54 98.86 63.54C97.74 63.54 96.78 62.67 96.7 61.53ZM30.2 56.72C29.04 56.39 28.37 55.19 28.69 54.04C29.02 52.89 30.21 52.21 31.37 52.54C32.52 52.86 33.19 54.06 32.87 55.21C32.6 56.17 31.73 56.8 30.78 56.8C30.58 56.8 30.39 56.77 30.2 56.72ZM93.89 50.59C93.39 49.49 93.87 48.21 94.96 47.71C96.06 47.22 97.34 47.7 97.84 48.79C98.33 49.88 97.85 51.17 96.76 51.66C96.47 51.8 96.16 51.86 95.86 51.86C95.04 51.86 94.25 51.38 93.89 50.59ZM34.74 45.52C33.76 44.82 33.54 43.46 34.24 42.49C34.94 41.52 36.29 41.3 37.26 41.99C38.24 42.69 38.46 44.05 37.76 45.02C37.34 45.61 36.67 45.93 36 45.93C35.55 45.93 35.11 45.79 34.74 45.52ZM87.5 41.25C86.66 40.39 86.68 39.02 87.54 38.18C88.39 37.34 89.77 37.36 90.6 38.22C91.44 39.07 91.42 40.45 90.57 41.28C90.15 41.7 89.6 41.9 89.05 41.9C88.49 41.9 87.93 41.68 87.5 41.25ZM42.83 36.56C42.16 35.57 42.41 34.22 43.4 33.55C43.4 33.55 43.4 33.55 43.4 33.54C44.39 32.87 45.75 33.12 46.42 34.11C47.1 35.1 46.84 36.45 45.85 37.13C45.48 37.39 45.05 37.51 44.63 37.51C43.95 37.51 43.25 37.18 42.83 36.56ZM78.32 34.66C77.24 34.14 76.78 32.85 77.3 31.77C77.81 30.69 79.11 30.23 80.19 30.75C81.27 31.27 81.73 32.56 81.21 33.64C80.84 34.42 80.06 34.88 79.25 34.88C78.95 34.88 78.62 34.81 78.32 34.66ZM53.51 30.9C53.21 29.74 53.91 28.55 55.07 28.26C56.24 27.96 57.42 28.66 57.71 29.82C58.01 30.98 57.31 32.17 56.15 32.46C55.97 32.51 55.79 32.53 55.61 32.53C54.64 32.53 53.76 31.88 53.51 30.9ZM67.43 31.61C66.24 31.49 65.37 30.43 65.49 29.24C65.61 28.05 66.67 27.18 67.86 27.3C69.06 27.42 69.93 28.48 69.81 29.67C69.7 30.79 68.75 31.63 67.65 31.63C67.57 31.63 67.5 31.62 67.43 31.61Z" fill="white"/>
<path d="M113.8 36.1C113.8 47.64 104.45 57.0001 92.9 57.0001C92.28 57.0001 91.66 56.9701 91.04 56.9101C88.84 56.7301 86.74 56.19 84.79 55.36C83.72 54.91 82.69 54.3701 81.72 53.7501C78.92 51.9801 76.57 49.5501 74.89 46.6801C73.05 43.5801 72 39.9501 72 36.0901C72 24.5401 81.36 15.1801 92.9 15.1801C96.25 15.1801 99.42 15.97 102.23 17.39C105.22 18.87 107.8 21.06 109.75 23.73C110.43 24.65 111.04 25.6501 111.56 26.6901C112.52 28.5901 113.19 30.6501 113.53 32.8101C113.71 33.8801 113.8 34.98 113.8 36.1Z" fill="#FFB103"/>
<path d="M109.75 23.73L81.71 53.75C78.91 51.98 76.56 49.55 74.88 46.68L102.23 17.39C105.22 18.87 107.8 21.06 109.75 23.73Z" fill="white"/>
<path d="M113.54 32.8101L91.04 56.9101C88.84 56.7301 86.74 56.19 84.79 55.36L111.56 26.6901C112.52 28.5901 113.2 30.6501 113.54 32.8101Z" fill="white"/>
<path d="M107.32 36.1C107.32 44.06 100.87 50.52 92.9 50.52C92.47 50.52 92.04 50.5 91.62 50.46C90.1 50.33 88.65 49.96 87.31 49.39C86.57 49.08 85.86 48.71 85.19 48.28C83.26 47.06 81.63 45.38 80.47 43.4C79.2 41.26 78.48 38.76 78.48 36.09C78.48 28.12 84.94 21.66 92.9 21.66C95.21 21.66 97.4 22.2 99.34 23.18C101.41 24.2 103.18 25.71 104.53 27.55C105 28.19 105.42 28.87 105.78 29.59C106.44 30.9 106.91 32.32 107.14 33.82C107.26 34.57 107.32 35.33 107.32 36.1Z" fill="#DD8D00"/>
<path d="M99.4211 36.0892L92.8945 29.5626L86.368 36.0892L92.8945 42.6157L99.4211 36.0892Z" fill="white"/>
<path d="M58.2 91.7C58.2 103.24 48.85 112.6 37.3 112.6C36.68 112.6 36.06 112.57 35.44 112.51C33.24 112.33 31.14 111.79 29.19 110.96C28.12 110.51 27.09 109.97 26.12 109.35C23.32 107.58 20.97 105.15 19.29 102.28C17.45 99.18 16.4 95.55 16.4 91.69C16.4 80.14 25.76 70.78 37.3 70.78C40.65 70.78 43.82 71.57 46.63 72.99C49.62 74.47 52.2 76.66 54.15 79.33C54.83 80.25 55.44 81.25 55.96 82.29C56.92 84.19 57.59 86.25 57.93 88.41C58.11 89.48 58.2 90.58 58.2 91.7Z" fill="#AE9EDD"/>
<path d="M54.16 79.33L26.12 109.35C23.32 107.58 20.97 105.15 19.29 102.28L46.64 72.99C49.63 74.47 52.2 76.66 54.16 79.33Z" fill="white"/>
<path d="M57.9401 88.41L35.4401 112.51C33.2401 112.33 31.1401 111.79 29.1901 110.96L55.9601 82.28C56.9301 84.18 57.6001 86.24 57.9401 88.41Z" fill="white"/>
<path d="M51.72 91.7C51.72 99.66 45.27 106.12 37.3 106.12C36.87 106.12 36.44 106.1 36.02 106.06C34.5 105.93 33.05 105.56 31.71 104.99C30.97 104.68 30.26 104.31 29.59 103.88C27.66 102.66 26.03 100.98 24.87 99C23.6 96.86 22.88 94.36 22.88 91.69C22.88 83.72 29.34 77.26 37.3 77.26C39.61 77.26 41.8 77.8 43.74 78.78C45.81 79.8 47.58 81.31 48.93 83.15C49.4 83.79 49.82 84.47 50.18 85.19C50.84 86.5 51.31 87.92 51.54 89.42C51.66 90.17 51.72 90.93 51.72 91.7Z" fill="#7982B2"/>
<path d="M37.292 85.1711L30.7655 91.6976L37.292 98.2242L43.8186 91.6976L37.292 85.1711Z" fill="white"/>
<defs>
<linearGradient id="paint0_linear_192_621" x1="9.38965" y1="6.7271" x2="124.244" y2="126.795" gradientUnits="userSpaceOnUse">
<stop offset="0.00640146" stop-color="#CE0099"/>
<stop offset="1" stop-color="#53267A"/>
</linearGradient>
</defs>
</svg>
