<svg width="129" height="128" viewBox="0 0 129 128" fill="none" xmlns="http://www.w3.org/2000/svg">
<path d="M128.18 64C128.18 89.8 127.05 105.3 120.73 114.56C115.27 122.56 105.95 125.91 90.1601 127.22C87.8301 127.42 85.3601 127.57 82.7401 127.68C77.2401 127.92 71.0801 128 64.1801 128C59.8401 128 55.7801 127.97 52.0001 127.89C49.7801 127.84 47.65 127.77 45.61 127.68C43.02 127.57 40.5701 127.42 38.2701 127.23C38.2701 127.22 38.2701 127.22 38.2701 127.22H38.2101C23.5901 126.01 14.5101 123.05 8.9201 116.27C8.4601 115.73 8.04007 115.16 7.63007 114.56C7.46007 114.31 7.30008 114.06 7.14008 113.81C6.32008 112.51 5.59007 111.09 4.95007 109.55C4.02007 107.32 3.2701 104.82 2.6601 102.03C0.650095 92.88 0.180054 80.56 0.180054 64C0.180054 5.76001 5.94005 0 64.1801 0C74.3301 0 82.8901 0.179999 90.0901 0.779999C95.8801 1.25 100.8 2.00001 104.98 3.15001C112.59 5.25001 117.75 8.68 121.22 14.2C121.61 14.81 121.98 15.45 122.32 16.11C122.71 16.85 123.07 17.63 123.41 18.44C124.34 20.67 125.09 23.16 125.71 25.95C126.6 30 127.18 34.67 127.56 40.06C128.04 46.84 128.18 54.76 128.18 64Z" fill="url(#paint0_linear_192_620)"/>
<path d="M103.08 86.5401C102.84 86.5401 102.6 86.4801 102.37 86.3601C101.64 85.9701 101.37 85.0601 101.76 84.3301C105.09 78.1301 106.86 71.1001 106.86 64.0101V63.8301C106.86 63.0001 107.53 62.3301 108.36 62.3301C109.19 62.3301 109.86 63.0001 109.86 63.8301V64.0101C109.86 71.5901 107.97 79.1101 104.4 85.7501C104.13 86.2501 103.61 86.5401 103.08 86.5401ZM19.4201 65.5501C18.5901 65.5501 17.9201 64.92 17.9201 64.1V64.0101C17.9201 56.4601 19.7901 48.97 23.3301 42.35C23.7201 41.62 24.63 41.3401 25.36 41.7401C26.09 42.1301 26.3701 43.0401 25.9701 43.7701C22.6601 49.9501 20.9101 56.9501 20.9101 64.0101C20.9201 64.8301 20.2401 65.5501 19.4201 65.5501Z" fill="#D8EAFD" stroke="#D8EAFD" stroke-miterlimit="10"/>
<path d="M90.6301 104.37C58.2501 115.28 63.8101 113.41 62.1901 113.91C54.9901 116.14 47.5001 116.19 41.4301 114.71C36.1901 113.43 33.8901 115.02 31.5101 117.54C30.7001 118.4 29.8901 119.37 28.9401 120.37C15.7401 117.16 11.3801 115.26 7.14008 113.81C6.32008 112.51 5.59007 111.09 4.95007 109.55C6.91007 106.96 8.99008 104.33 10.9601 101.9C13.7501 98.4801 16.3501 95.4601 18.1401 93.4901C32.4401 77.8101 36.79 84.4601 51.36 87.8401C54.77 88.6401 58.1401 89.5801 61.5301 90.4601C63.6601 91.0201 64.9801 93.4901 64.4801 95.5201C63.9801 97.5701 61.6401 99.17 59.3201 98.6C56.1701 97.82 51.0001 96.5601 47.1301 95.6201C45.3501 95.1801 43.55 96.2801 43.11 98.0601L45.3901 98.6201C46.7401 98.9501 55.3601 101.15 58.8701 101.92C59.9201 102.15 61.1301 102.08 62.1701 101.79C68.2101 100.11 77.8301 96.7801 81.5201 95.9601C90.7001 93.9401 102.68 100.31 90.6301 104.37Z" fill="#FFA87D"/>
<path d="M38.2701 127.22H38.2101C23.5901 126.01 14.5101 123.05 8.9201 116.27C8.4601 115.73 8.04007 115.16 7.63007 114.56C7.46007 114.31 7.30008 114.06 7.14008 113.81C6.32008 112.51 5.59007 111.09 4.95007 109.55C4.02007 107.32 3.2701 104.82 2.6601 102.03L3.37006 101.1C4.70006 99.3601 7.18011 99.0301 8.9201 100.35L10.9601 101.9L11.2001 102.08L31.5101 117.54L31.6301 117.63L31.6201 117.64L37.3201 121.96C38.9601 123.21 39.3501 125.5 38.2701 127.22Z" fill="#049AFB"/>
<path d="M123.41 18.44C121.46 21.04 119.38 23.67 117.39 26.1C114.61 29.52 112.01 32.55 110.21 34.52C95.9101 50.19 91.5601 43.55 77.0001 40.16C73.5901 39.37 70.2101 38.43 66.8201 37.54C64.7001 36.99 63.3801 34.51 63.8701 32.48C64.3701 30.43 66.7101 28.83 69.0401 29.41C72.1901 30.19 77.3601 31.44 81.2201 32.39C83.0101 32.82 84.8101 31.73 85.2501 29.94L82.9701 29.39C81.6101 29.06 72.9901 26.86 69.4801 26.08C68.4401 25.85 67.2201 25.92 66.18 26.21C60.14 27.89 50.5301 31.23 46.8401 32.04C37.6601 34.06 25.6801 27.69 37.7301 23.63C70.1101 12.73 64.5501 14.6 66.1701 14.1C73.3601 11.86 80.8501 11.81 86.93 13.29C92.16 14.56 94.4701 12.98 96.8401 10.47C97.6501 9.61 98.4601 8.64 99.4101 7.63C112.62 10.84 116.98 12.75 121.22 14.2C121.61 14.81 121.98 15.45 122.32 16.11C122.71 16.85 123.07 17.63 123.41 18.44Z" fill="#C9745D"/>
<path d="M125.71 25.95L124.98 26.9C123.65 28.64 121.17 28.97 119.44 27.66L117.39 26.1L117.16 25.92L96.8401 10.47L96.7301 10.38V10.37L91.0401 6.04004C89.3901 4.79004 89.0001 2.49003 90.0901 0.780029C95.8801 1.25003 100.8 2.00004 104.98 3.15004C112.59 5.25004 117.75 8.68003 121.22 14.2C121.61 14.81 121.98 15.45 122.32 16.11C122.71 16.85 123.07 17.63 123.41 18.44C124.34 20.67 125.09 23.16 125.71 25.95Z" fill="#D8EAFD"/>
<path d="M83.2001 64.01C83.2001 74.51 74.6901 83.03 64.1801 83.03C63.6101 83.03 63.0501 83 62.4901 82.95C60.4901 82.78 58.58 82.3 56.8 81.54C55.83 81.13 54.8901 80.64 54.0001 80.07C51.4501 78.46 49.3101 76.25 47.7801 73.64C46.1101 70.82 45.1501 67.52 45.1501 64.01C45.1501 53.5 53.6701 44.98 64.1701 44.98C67.2201 44.98 70.1101 45.7 72.6601 46.99C75.3901 48.33 77.7301 50.33 79.5101 52.76C80.1301 53.6 80.6901 54.5 81.1601 55.45C82.0401 57.18 82.6501 59.05 82.9601 61.02C83.1201 61.99 83.2001 62.99 83.2001 64.01Z" fill="#FFB103"/>
<path d="M79.5201 52.76L54.0001 80.08C51.4501 78.47 49.3101 76.26 47.7801 73.65L72.6701 46.99C75.3901 48.33 77.7401 50.32 79.5201 52.76Z" fill="white"/>
<path d="M82.9601 61.02L62.4901 82.95C60.4901 82.78 58.58 82.3 56.8 81.54L81.1701 55.44C82.0401 57.17 82.6501 59.05 82.9601 61.02Z" fill="white"/>
<path d="M77.3 64.01C77.3 71.26 71.4301 77.14 64.1701 77.14C63.7801 77.14 63.3901 77.12 63.0001 77.09C61.6201 76.97 60.3001 76.64 59.0701 76.12C58.4001 75.84 57.7501 75.5 57.1401 75.11C55.3801 74 53.9001 72.47 52.8501 70.67C51.7001 68.72 51.0401 66.45 51.0401 64.02C51.0401 56.77 56.9201 50.89 64.1701 50.89C66.2801 50.89 68.2701 51.38 70.0301 52.28C71.9101 53.21 73.5301 54.58 74.7601 56.26C75.1901 56.84 75.5701 57.46 75.9001 58.12C76.5001 59.31 76.9301 60.6 77.1401 61.97C77.2501 62.62 77.3 63.31 77.3 64.01Z" fill="#DD8D00"/>
<defs>
<linearGradient id="paint0_linear_192_620" x1="9.38716" y1="6.7271" x2="124.241" y2="126.795" gradientUnits="userSpaceOnUse">
<stop offset="0.00640146" stop-color="#CE0099"/>
<stop offset="1" stop-color="#53267A"/>
</linearGradient>
</defs>
</svg>
