<?xml version="1.0" encoding="utf-8"?>
<!-- Generator: Adobe Illustrator 25.2.3, SVG Export Plug-In . SVG Version: 6.00 Build 0)  -->
<svg version="1.1" id="Layer_1" xmlns="http://www.w3.org/2000/svg" xmlns:xlink="http://www.w3.org/1999/xlink" x="0px" y="0px"
	 viewBox="0 0 630.33 415.67" style="enable-background:new 0 0 630.33 415.67;" xml:space="preserve">
<style type="text/css">
	.st0{display:none;fill:none;stroke:#B0008B;stroke-width:2;stroke-linecap:round;stroke-linejoin:round;stroke-miterlimit:10;}
	.st1{display:none;fill:#FC30D5;}
	.st2{fill:#B0008B;}
	.st3{display:none;fill:none;stroke:#B0008B;stroke-width:2;stroke-miterlimit:10;}
	.st4{fill:#E80185;}
	.st5{fill-rule:evenodd;clip-rule:evenodd;fill:#E80185;}
	.st6{fill:url(#SVGID_1_);}
	.st7{fill:#FFFFFF;}
	.st8{fill:url(#SVGID_2_);}
	.st9{fill:#E0E0E0;}
	.st10{fill:#EAEAEA;}
	.st11{fill:url(#SVGID_3_);}
	.st12{fill:url(#SVGID_4_);}
	.st13{fill:url(#SVGID_5_);}
	.st14{display:none;fill:#B0008B;}
	.st15{fill:#353983;}
	.st16{display:none;}
	.st17{display:inline;fill:#140314;}
	.st18{display:inline;}
	.st19{fill:url(#SVGID_6_);}
	.st20{fill:#140314;}
</style>
<polyline class="st0" points="-2887.89,7233.91 -2827.02,7233.91 -2827.02,7210.33 "/>
<polyline class="st0" points="-3133.41,7233.91 -3194.28,7233.91 -3194.28,7208.96 "/>
<line class="st0" x1="-3010.78" y1="7209.39" x2="-3010.78" y2="7232.67"/>
<path class="st1" d="M-2960.63,7278.78l5.78,13.17c0.21,0.47,0.82,0.59,1.19,0.22l7.39-7.39c0.36-0.36,0.25-0.98-0.22-1.19
	l-13.17-5.78C-2960.27,7277.54-2960.9,7278.17-2960.63,7278.78z"/>
<polyline class="st0" points="-2830.29,7315.58 -2830.29,7303.09 -2934.56,7303.09 -2950.44,7287.78 "/>
<path class="st1" d="M-2826.3,7204.28l5.22,13.4c0.19,0.48-0.17,1-0.68,1h-10.44c-0.52,0-0.87-0.52-0.68-1l5.22-13.4
	C-2827.42,7203.66-2826.54,7203.66-2826.3,7204.28z"/>
<path class="st1" d="M-3060.67,7278.78l-5.78,13.17c-0.21,0.47-0.82,0.59-1.19,0.22l-7.39-7.39c-0.36-0.36-0.25-0.98,0.22-1.19
	l13.17-5.78C-3061.03,7277.54-3060.41,7278.17-3060.67,7278.78z"/>
<polyline class="st0" points="-3191.01,7315.58 -3191.01,7303.09 -3086.75,7303.09 -3070.86,7287.78 "/>
<path class="st1" d="M-3195,7204.28l-5.22,13.4c-0.19,0.48,0.17,1,0.68,1h10.44c0.52,0,0.87-0.52,0.68-1l-5.22-13.4
	C-3193.88,7203.66-3194.76,7203.66-3195,7204.28z"/>
<path class="st1" d="M-3011.47,7281.32l-5.22,13.4c-0.19,0.48,0.17,1,0.68,1h10.44c0.52,0,0.87-0.52,0.68-1l-5.22-13.4
	C-3010.34,7280.7-3011.23,7280.7-3011.47,7281.32z"/>
<line class="st0" x1="-3010.78" y1="7293.09" x2="-3010.78" y2="7314.36"/>
<path class="st1" d="M-3011.47,7204.28l-5.22,13.4c-0.19,0.48,0.17,1,0.68,1h10.44c0.52,0,0.87-0.52,0.68-1l-5.22-13.4
	C-3010.34,7203.66-3011.23,7203.66-3011.47,7204.28z"/>
<g>
	<path class="st2" d="M103.25,184.41h-0.86c0,3.03-2.46,5.49-5.49,5.49v0.86c3.03,0,5.49,2.46,5.49,5.49h0.86
		c0-3.03,2.46-5.49,5.49-5.49v-0.86C105.71,189.89,103.25,187.44,103.25,184.41z"/>
	<rect x="102.39" y="182.44" class="st2" width="0.86" height="2.01"/>
	<rect x="102.39" y="195.7" class="st2" width="0.86" height="2.6"/>
	<rect x="106.8" y="189.89" class="st2" width="7.71" height="0.86"/>
	<rect x="91.13" y="189.89" class="st2" width="6.99" height="0.86"/>
	<path class="st2" d="M147.22,213.89H146c0,4.32-3.5,7.83-7.83,7.83v1.22c4.32,0,7.83,3.5,7.83,7.83h1.22c0-4.32,3.5-7.83,7.83-7.83
		v-1.22C150.72,221.72,147.22,218.22,147.22,213.89z"/>
	<rect x="145.99" y="211.09" class="st2" width="1.22" height="2.87"/>
	<rect x="145.99" y="230" class="st2" width="1.22" height="3.7"/>
	<rect x="152.28" y="221.72" class="st2" width="11" height="1.22"/>
	<rect x="129.93" y="221.72" class="st2" width="9.98" height="1.22"/>
</g>
<g>
	<path class="st2" d="M498.51,189.94h-0.58c0,2.04-1.66,3.7-3.7,3.7v0.58c2.04,0,3.7,1.66,3.7,3.7h0.58c0-2.04,1.66-3.7,3.7-3.7
		v-0.58C500.17,193.64,498.51,191.98,498.51,189.94z"/>
	<rect x="497.93" y="188.62" class="st2" width="0.58" height="1.35"/>
	<rect x="497.93" y="197.55" class="st2" width="0.58" height="1.75"/>
	<rect x="500.9" y="193.64" class="st2" width="5.2" height="0.58"/>
	<rect x="490.34" y="193.64" class="st2" width="4.72" height="0.58"/>
	<path class="st2" d="M520.41,165.75h-1.01c0,3.55-2.88,6.43-6.43,6.43v1.01c3.55,0,6.43,2.88,6.43,6.43h1.01
		c0-3.55,2.88-6.43,6.43-6.43v-1.01C523.29,172.18,520.41,169.3,520.41,165.75z"/>
	<rect x="519.41" y="163.45" class="st2" width="1.01" height="2.36"/>
	<rect x="519.41" y="178.99" class="st2" width="1.01" height="3.04"/>
	<rect x="524.57" y="172.18" class="st2" width="9.04" height="1.01"/>
	<rect x="506.2" y="172.18" class="st2" width="8.2" height="1.01"/>
</g>
<polyline class="st3" points="450.78,65.98 436.51,65.98 436.51,80.02 "/>
<polyline class="st3" points="450.78,118.72 436.51,118.72 436.51,104.68 "/>
<polyline class="st3" points="552.21,65.98 566.48,65.98 566.48,80.02 "/>
<polyline class="st3" points="552.21,118.72 566.48,118.72 566.48,104.68 "/>
<path class="st4" d="M265.62,204.97c1.37,0,2.37-0.16,3-0.47c0.63-0.34,0.94-0.92,0.94-1.72c0-0.74-0.34-1.36-1.03-1.84
	c-0.66-0.49-1.76-1.01-3.3-1.59c-0.94-0.34-1.82-0.7-2.62-1.07c-0.77-0.4-1.44-0.86-2.02-1.37c-0.57-0.51-1.03-1.13-1.37-1.84
	c-0.31-0.74-0.47-1.64-0.47-2.7c0-2.06,0.76-3.67,2.27-4.85c1.52-1.2,3.57-1.8,6.18-1.8c1.32,0,2.57,0.13,3.77,0.39
	c1.2,0.23,2.1,0.46,2.7,0.69l-0.94,4.2c-0.57-0.26-1.3-0.49-2.19-0.69c-0.89-0.23-1.92-0.34-3.09-0.34c-1.06,0-1.92,0.19-2.57,0.56
	c-0.66,0.34-0.99,0.89-0.99,1.63c0,0.37,0.06,0.7,0.17,0.99c0.14,0.29,0.37,0.56,0.69,0.81c0.31,0.23,0.73,0.47,1.24,0.73
	c0.51,0.23,1.14,0.47,1.89,0.73c1.23,0.46,2.27,0.92,3.13,1.37c0.86,0.43,1.56,0.93,2.1,1.5c0.57,0.54,0.99,1.17,1.24,1.89
	c0.26,0.71,0.39,1.57,0.39,2.57c0,2.14-0.8,3.77-2.4,4.89c-1.57,1.09-3.83,1.63-6.78,1.63c-1.97,0-3.56-0.17-4.76-0.51
	c-1.2-0.31-2.04-0.57-2.53-0.77l0.9-4.33c0.77,0.31,1.69,0.61,2.74,0.9C263.01,204.83,264.24,204.97,265.62,204.97z"/>
<path class="st4" d="M296.93,208.02c-1,0.26-2.3,0.51-3.9,0.77c-1.6,0.29-3.36,0.43-5.28,0.43c-1.8,0-3.32-0.26-4.55-0.77
	c-1.2-0.51-2.17-1.23-2.92-2.14c-0.71-0.92-1.23-2-1.54-3.26c-0.31-1.29-0.47-2.69-0.47-4.2v-12.57h5.19v11.75
	c0,2.4,0.34,4.12,1.03,5.15c0.71,1.03,1.94,1.54,3.69,1.54c0.63,0,1.29-0.03,1.97-0.09c0.71-0.06,1.24-0.13,1.59-0.21v-18.14h5.19
	V208.02z"/>
<path class="st4" d="M317.34,197.43c0-2.2-0.44-3.95-1.33-5.23c-0.86-1.29-2.23-1.93-4.12-1.93c-0.86,0-1.67,0.13-2.44,0.39
	c-0.74,0.26-1.34,0.54-1.8,0.86v12.91c0.37,0.09,0.84,0.17,1.42,0.26c0.6,0.06,1.32,0.09,2.14,0.09c1.92,0,3.42-0.64,4.5-1.93
	C316.8,201.51,317.34,199.71,317.34,197.43z M322.66,197.51c0,1.8-0.27,3.43-0.81,4.89c-0.51,1.43-1.27,2.66-2.27,3.69
	c-0.97,1.03-2.16,1.82-3.56,2.36s-2.99,0.81-4.76,0.81c-1.72,0-3.36-0.13-4.93-0.39c-1.54-0.26-2.83-0.54-3.86-0.86v-31.74
	l5.19-0.86v11.62c0.6-0.31,1.33-0.6,2.19-0.86c0.89-0.26,1.86-0.39,2.92-0.39c1.57,0,2.97,0.29,4.2,0.86
	c1.26,0.54,2.3,1.33,3.13,2.36s1.46,2.27,1.89,3.73C322.43,194.18,322.66,195.77,322.66,197.51z"/>
<path class="st4" d="M332.55,204.97c1.37,0,2.37-0.16,3-0.47c0.63-0.34,0.94-0.92,0.94-1.72c0-0.74-0.34-1.36-1.03-1.84
	c-0.66-0.49-1.76-1.01-3.3-1.59c-0.94-0.34-1.82-0.7-2.62-1.07c-0.77-0.4-1.44-0.86-2.02-1.37c-0.57-0.51-1.03-1.13-1.37-1.84
	c-0.31-0.74-0.47-1.64-0.47-2.7c0-2.06,0.76-3.67,2.27-4.85c1.52-1.2,3.57-1.8,6.18-1.8c1.32,0,2.57,0.13,3.77,0.39
	c1.2,0.23,2.1,0.46,2.7,0.69l-0.94,4.2c-0.57-0.26-1.3-0.49-2.19-0.69c-0.89-0.23-1.92-0.34-3.09-0.34c-1.06,0-1.92,0.19-2.57,0.56
	c-0.66,0.34-0.99,0.89-0.99,1.63c0,0.37,0.06,0.7,0.17,0.99c0.14,0.29,0.37,0.56,0.69,0.81c0.31,0.23,0.73,0.47,1.24,0.73
	c0.51,0.23,1.14,0.47,1.89,0.73c1.23,0.46,2.27,0.92,3.13,1.37c0.86,0.43,1.56,0.93,2.1,1.5c0.57,0.54,0.99,1.17,1.24,1.89
	c0.26,0.71,0.39,1.57,0.39,2.57c0,2.14-0.8,3.77-2.4,4.89c-1.57,1.09-3.83,1.63-6.78,1.63c-1.97,0-3.56-0.17-4.76-0.51
	c-1.2-0.31-2.04-0.57-2.53-0.77l0.9-4.33c0.77,0.31,1.69,0.61,2.74,0.9C329.95,204.83,331.18,204.97,332.55,204.97z"/>
<path class="st4" d="M365.75,197.47c0,1.77-0.26,3.39-0.77,4.85c-0.51,1.46-1.24,2.7-2.19,3.73s-2.09,1.83-3.43,2.4
	c-1.32,0.57-2.77,0.86-4.37,0.86s-3.06-0.29-4.37-0.86c-1.32-0.57-2.44-1.37-3.39-2.4s-1.69-2.27-2.23-3.73
	c-0.51-1.46-0.77-3.07-0.77-4.85c0-1.77,0.26-3.37,0.77-4.8c0.54-1.46,1.29-2.7,2.23-3.73c0.97-1.03,2.12-1.82,3.43-2.36
	c1.32-0.57,2.76-0.86,4.33-0.86c1.57,0,3.02,0.29,4.33,0.86c1.34,0.54,2.49,1.33,3.43,2.36s1.67,2.27,2.19,3.73
	C365.48,194.09,365.75,195.7,365.75,197.47z M360.43,197.47c0-2.23-0.49-3.99-1.46-5.28c-0.94-1.32-2.27-1.97-3.99-1.97
	s-3.06,0.66-4.03,1.97c-0.94,1.29-1.42,3.05-1.42,5.28c0,2.26,0.47,4.05,1.42,5.36c0.97,1.32,2.32,1.97,4.03,1.97
	c1.72,0,3.05-0.66,3.99-1.97C359.95,201.51,360.43,199.73,360.43,197.47z"/>
<path class="st4" d="M368.78,197.51c0-1.66,0.26-3.2,0.77-4.63c0.51-1.46,1.24-2.72,2.19-3.77c0.97-1.06,2.14-1.89,3.52-2.49
	c1.37-0.6,2.92-0.9,4.63-0.9c2.12,0,4.12,0.39,6,1.16l-1.12,4.25c-0.6-0.26-1.29-0.47-2.06-0.64c-0.74-0.17-1.54-0.26-2.4-0.26
	c-2.03,0-3.57,0.64-4.63,1.93c-1.06,1.26-1.59,3.05-1.59,5.36c0,2.23,0.5,4,1.5,5.32c1,1.29,2.69,1.93,5.06,1.93
	c0.89,0,1.76-0.09,2.62-0.26s1.6-0.39,2.23-0.64l0.73,4.29c-0.57,0.29-1.44,0.54-2.62,0.77c-1.14,0.23-2.33,0.34-3.56,0.34
	c-1.92,0-3.59-0.29-5.02-0.86c-1.4-0.6-2.57-1.42-3.52-2.44c-0.91-1.06-1.6-2.3-2.06-3.73C369.01,200.77,368.78,199.2,368.78,197.51
	z"/>
<path class="st4" d="M394.42,208.71h-5.19v-22.43h5.19V208.71z M394.97,179.71c0,0.97-0.32,1.74-0.94,2.32
	c-0.63,0.57-1.37,0.86-2.23,0.86c-0.89,0-1.64-0.29-2.27-0.86c-0.63-0.57-0.94-1.34-0.94-2.32c0-1,0.32-1.79,0.94-2.36
	c0.63-0.57,1.39-0.86,2.27-0.86c0.86,0,1.6,0.29,2.23,0.86C394.66,177.93,394.97,178.71,394.97,179.71z"/>
<path class="st4" d="M407.86,205.06c1.6,0,2.82-0.09,3.65-0.26v-5.75c-0.29-0.09-0.7-0.17-1.24-0.26c-0.54-0.09-1.14-0.13-1.8-0.13
	c-0.57,0-1.16,0.04-1.76,0.13c-0.57,0.09-1.1,0.24-1.59,0.47c-0.46,0.23-0.83,0.56-1.12,0.99c-0.29,0.4-0.43,0.92-0.43,1.54
	c0,1.23,0.39,2.09,1.16,2.57C405.5,204.83,406.54,205.06,407.86,205.06z M407.43,185.72c1.72,0,3.16,0.21,4.33,0.64
	c1.17,0.43,2.1,1.03,2.79,1.8c0.72,0.77,1.22,1.72,1.5,2.83c0.32,1.09,0.47,2.29,0.47,3.6v13.6c-0.8,0.17-2.02,0.37-3.65,0.6
	c-1.6,0.26-3.42,0.39-5.45,0.39c-1.34,0-2.57-0.13-3.69-0.39s-2.07-0.67-2.87-1.24c-0.77-0.57-1.39-1.32-1.84-2.23
	c-0.43-0.92-0.64-2.04-0.64-3.39c0-1.29,0.24-2.37,0.73-3.26c0.51-0.89,1.2-1.6,2.06-2.14c0.86-0.57,1.84-0.97,2.96-1.2
	c1.14-0.26,2.33-0.39,3.56-0.39c0.57,0,1.17,0.04,1.8,0.13c0.63,0.06,1.3,0.17,2.02,0.34v-0.86c0-0.6-0.07-1.17-0.21-1.72
	c-0.14-0.54-0.4-1.01-0.77-1.42c-0.34-0.43-0.81-0.76-1.42-0.99c-0.57-0.23-1.3-0.34-2.19-0.34c-1.2,0-2.3,0.09-3.3,0.26
	s-1.81,0.37-2.44,0.6l-0.64-4.2c0.66-0.23,1.62-0.46,2.87-0.69C404.65,185.83,406,185.72,407.43,185.72z"/>
<path class="st4" d="M421.72,208.71v-32.42l5.19-0.86v33.28H421.72z"/>
<path class="st5" d="M239.02,197.65c0,11.69-9.47,21.16-21.16,21.16s-21.16-9.47-21.16-21.16s9.47-21.16,21.16-21.16
	C229.55,176.5,239.02,185.97,239.02,197.65z M217.79,181.01c-4.32,0-7.83,3.5-7.83,7.83v5.08c0,4.32,3.5,7.83,7.83,7.83
	c0.61,0,1.2-0.07,1.76-0.2c0.34-0.08,0.44-0.5,0.18-0.74l-0.04-0.04l-4.51-4.31c-0.7-0.68-1.13-1.63-1.13-2.68v-4.8
	c0-2.06,1.67-3.74,3.74-3.74c2.06,0,3.74,1.67,3.74,3.74v1.62c0,0.31,0.25,0.56,0.56,0.56h2.96c0.31,0,0.56-0.25,0.56-0.56v-1.76
	C225.62,184.51,222.12,181.01,217.79,181.01z M225.62,206.05c0,4.32-3.5,7.83-7.83,7.83c-4.32,0-7.83-3.5-7.83-7.83v-1.76
	c0-0.31,0.25-0.56,0.56-0.56h2.96c0.31,0,0.56,0.25,0.56,0.56v1.62c0,2.06,1.67,3.74,3.74,3.74c2.06,0,3.74-1.67,3.74-3.74v-4.8
	c0-1.05-0.43-2-1.13-2.68l-4.51-4.31l-0.04-0.04c-0.25-0.24-0.16-0.66,0.18-0.74c0.57-0.13,1.16-0.2,1.76-0.2
	c4.32,0,7.83,3.5,7.83,7.83L225.62,206.05L225.62,206.05z"/>
<g>
	
		<linearGradient id="SVGID_1_" gradientUnits="userSpaceOnUse" x1="266.3725" y1="158.8573" x2="363.9675" y2="61.2623" gradientTransform="matrix(1 0 0 -1 0 415.8898)">
		<stop  offset="0" style="stop-color:#F40183"/>
		<stop  offset="1" style="stop-color:#7D0495"/>
	</linearGradient>
	<path class="st6" d="M315.17,364.17c-52.34,0-58.34-6-58.34-58.34s6-58.34,58.34-58.34s58.34,6,58.34,58.34
		S367.51,364.17,315.17,364.17z M315.17,251.49c-50.28,0-54.34,4.06-54.34,54.34s4.06,54.34,54.34,54.34s54.34-4.06,54.34-54.34
		S365.44,251.49,315.17,251.49z"/>
</g>
<path class="st7" d="M287.3,329.22c-0.82-0.68-2.03-0.57-2.71,0.25l0,0l-3.88,4.65c-0.6,0.71-0.6,1.75,0,2.46l3.88,4.65
	c0.68,0.82,1.89,0.93,2.71,0.25c0.82-0.68,0.93-1.89,0.25-2.71l0,0l-2.85-3.42l2.85-3.42C288.23,331.12,288.12,329.9,287.3,329.22
	L287.3,329.22z M277.92,328.78c-1.06,0-1.92,0.86-1.92,1.92l0,0v9.31c0.02,1.06,0.9,1.91,1.96,1.88c1.03-0.02,1.86-0.85,1.88-1.88
	v-9.31C279.85,329.64,278.98,328.78,277.92,328.78z M298.87,328.78c-1.06,0-1.92,0.86-1.92,1.92l0,0v7.39h-4.3v-7.39
	c0.02-1.06-0.82-1.94-1.88-1.96s-1.94,0.82-1.96,1.88c0,0.03,0,0.05,0,0.08v9.31c0,1.06,0.86,1.92,1.92,1.92l0,0h8.15
	c1.06,0,1.92-0.86,1.92-1.92l0,0v-9.31C300.79,329.64,299.93,328.78,298.87,328.78L298.87,328.78L298.87,328.78z M339.25,328.95
	c-0.68-0.31-1.48-0.2-2.06,0.29l-2.82,2.42l-2.82-2.42c-0.81-0.69-2.02-0.6-2.71,0.21c-0.3,0.35-0.46,0.79-0.46,1.25v9.31
	c0.02,1.06,0.9,1.91,1.96,1.88c1.03-0.02,1.86-0.85,1.88-1.88v-5.13l0.91,0.77c0.72,0.62,1.78,0.62,2.5,0l0.9-0.77v5.13
	c0,1.06,0.86,1.92,1.92,1.92s1.92-0.86,1.92-1.92v-9.31C340.37,329.95,339.93,329.27,339.25,328.95L339.25,328.95z M353.89,336.45
	l-5.82-6.98c-0.37-0.44-0.91-0.69-1.48-0.69h-3.49c-1.06,0-1.92,0.86-1.92,1.92l0,0v9.31c0,1.06,0.86,1.92,1.92,1.92h4.82
	c1.06-0.02,1.91-0.9,1.88-1.96c-0.02-1.03-0.85-1.86-1.88-1.88h-2.89v-5.46h0.67l4.8,5.76v1.63c0.02,1.06,0.9,1.91,1.96,1.88
	c1.03-0.02,1.86-0.85,1.88-1.88v-2.33C354.34,337.23,354.18,336.8,353.89,336.45L353.89,336.45z M321.3,329.47
	c-0.37-0.44-0.91-0.69-1.48-0.69h-3.49c-1.06,0-1.92,0.86-1.92,1.92l0,0v9.31c0,1.06,0.86,1.92,1.92,1.92h4.82
	c1.06-0.02,1.91-0.9,1.88-1.96c-0.02-1.03-0.85-1.86-1.88-1.88h-2.89v-5.46h0.67l4.8,5.76v1.63c0.02,1.06,0.9,1.91,1.96,1.88
	c1.03-0.02,1.86-0.85,1.88-1.88v-2.33c0-0.45-0.16-0.89-0.45-1.23L321.3,329.47z M311.67,332.63c1.06-0.02,1.91-0.9,1.88-1.96
	c-0.02-1.03-0.85-1.86-1.88-1.88h-8.15c-1.06,0-1.92,0.86-1.92,1.92l0,0v3.49c0,0.86,0.57,1.61,1.4,1.85l6.75,1.93v0.12h-6.22
	c-1.06-0.02-1.94,0.82-1.96,1.88s0.82,1.94,1.88,1.96c0.03,0,0.05,0,0.08,0h8.15c1.06,0,1.92-0.86,1.92-1.92v-3.49
	c0-0.86-0.57-1.61-1.4-1.85l-6.75-1.93v-0.12H311.67z"/>
<path class="st7" d="M286.73,308.08v0.63c0,0,23.14-9.14,27.64-6.78l-2.71,0.8c0.24,0,4.64,0.29,4.64,0.29
	c0.21,1.84,1.23,3.49,2.79,4.49c2.65,1.75,2.7,2.7,2.7,2.7s-1.37,0.56-1.37,1.27c1.28-0.37,2.6-0.56,3.93-0.57
	c1.2,0.04,2.39,0.23,3.54,0.57c0,0-0.14-0.72-1.99-1.27c-1.85-0.55-3.64-2.51-4.53-3.6c-1.1-1.41-1.37-3.3-0.72-4.97
	c0.64-1.64,2.88-2.56,7.42-4.92c5.39-2.79,6.62-4.87,7.38-6.48s1.89-4.82,2.52-6.33c0.52-1.41,1.42-2.66,2.59-3.6
	c0.8-0.61,4.44-1.99,4.44-1.99s-2.78-2.37-3.69-3.08c-1.13-1.07-2.57-1.78-4.11-2.02c-1.93-0.25-3.89,1.03-5.21,1.89
	c-1.32,0.86-3.89,3.36-4.92,4.08c-1.04,0.72-3.69,1.44-7.92,4.02s-21,13.29-21,13.29l4.32,0.04l-19.38,10.06h1.94l-2.79,2.16
	c1.55,0.35,3.17,0.11,4.54-0.69L286.73,308.08L286.73,308.08z"/>
<g>
	
		<linearGradient id="SVGID_2_" gradientUnits="userSpaceOnUse" x1="84.5625" y1="158.8573" x2="182.1575" y2="61.2623" gradientTransform="matrix(1 0 0 -1 0 415.8898)">
		<stop  offset="0" style="stop-color:#F40183"/>
		<stop  offset="1" style="stop-color:#7D0495"/>
	</linearGradient>
	<path class="st8" d="M133.36,364.17c-52.34,0-58.34-6-58.34-58.34s6-58.34,58.34-58.34s58.34,6,58.34,58.34
		S185.7,364.17,133.36,364.17z M133.36,251.49c-50.28,0-54.34,4.06-54.34,54.34s4.06,54.34,54.34,54.34s54.34-4.06,54.34-54.34
		S183.64,251.49,133.36,251.49z"/>
</g>
<path class="st7" d="M114.46,328.35h-1.98v16.77h1.98V328.35z"/>
<path class="st7" d="M123.1,336.39c-0.76,0-2.92-0.02-2.92-0.02v-6.25h3.47c2.07,0,3.56,0.8,3.56,2.78
	C127.21,334.58,126.91,336.39,123.1,336.39z M120.18,345.12v-7.17c0.85,0.07,2.04,0.16,2.73,0.16c4.96,0,6.32-2.14,6.32-5.26
	c0-3.24-2.43-4.5-5.63-4.5h-5.42v16.77L120.18,345.12L120.18,345.12z"/>
<path class="st7" d="M140.25,335.73h-6.91v-5.65h7.14l0.16-1.72h-9.28v16.77h1.98v-7.79h6.91V335.73L140.25,335.73z"/>
<path class="st7" d="M143.02,342.39c1.49,0.74,3.42,1.29,5.56,1.29c2.39,0,3.65-1.06,3.65-3.33c0-1.36-0.55-2.27-2.69-2.8
	l-3.31-0.83c-2.32-0.57-3.77-1.81-3.77-4.04c0-3.26,2.43-4.66,6.11-4.66c2.04,0,3.88,0.51,5.03,1.22l-0.57,1.56
	c-0.9-0.48-2.66-1.06-4.48-1.06c-2.66,0-4.07,0.9-4.07,2.83c0,1.31,0.87,2.02,2.48,2.41l3.15,0.76c2.5,0.6,4.11,1.81,4.11,4.55
	c0,3.49-2.34,5.1-5.77,5.1c-2.92,0-5.01-0.76-6.02-1.38L143.02,342.39L143.02,342.39z"/>
<path class="st9" d="M133.36,291.06v24.73l21.42-12.36V278.7L133.36,291.06z M153.29,299.93c-1.49,0.65-2.38,2.2-2.2,3.81
	l-15.52,8.97c-0.23-0.17-0.47-0.31-0.72-0.42l-0.02-17.83c1.49-0.65,2.38-2.19,2.2-3.81l15.55-9.07c0.22,0.17,0.46,0.31,0.71,0.42
	V299.93z"/>
<path class="st7" d="M111.95,278.7v24.73l21.41,12.36v-24.73L111.95,278.7z M131.88,312.39c-0.26,0.11-0.5,0.25-0.72,0.42
	l-15.53-8.97c0.19-1.61-0.71-3.16-2.2-3.81V282.1c0.26-0.11,0.5-0.25,0.72-0.42l15.53,8.97c-0.19,1.62,0.71,3.16,2.2,3.81V312.39z"
	/>
<path class="st10" d="M133.36,266.34l-21.41,12.36l21.41,12.36l21.42-12.36L133.36,266.34z M135.56,288.07
	c-1.31-0.96-3.1-0.96-4.41,0l-15.52-8.96c0.03-0.28,0.03-0.56,0-0.83l15.52-8.97c1.31,0.97,3.1,0.97,4.41,0l15.52,8.97
	c-0.03,0.27-0.03,0.55,0,0.83L135.56,288.07z"/>
<g>
	
		<linearGradient id="SVGID_3_" gradientUnits="userSpaceOnUse" x1="448.1725" y1="158.8573" x2="545.7675" y2="61.2624" gradientTransform="matrix(1 0 0 -1 0 415.8898)">
		<stop  offset="0" style="stop-color:#F40183"/>
		<stop  offset="1" style="stop-color:#7D0495"/>
	</linearGradient>
	<path class="st11" d="M496.97,364.17c-52.34,0-58.34-6-58.34-58.34s6-58.34,58.34-58.34s58.34,6,58.34,58.34
		S549.31,364.17,496.97,364.17z M496.97,251.49c-50.28,0-54.34,4.06-54.34,54.34s4.06,54.34,54.34,54.34s54.34-4.06,54.34-54.34
		S547.25,251.49,496.97,251.49z"/>
</g>
<g>
	<path class="st7" d="M288.12,86.62c-2.23,0-3.99-0.69-5.29-2.06c-1.3-1.37-1.95-3.13-1.95-5.26c0-2.13,0.65-3.89,1.95-5.26
		s3.06-2.06,5.29-2.06c1.84,0,3.35,0.45,4.53,1.36s1.9,2.09,2.17,3.56h-2c-0.27-1.01-0.8-1.81-1.6-2.4
		c-0.8-0.59-1.83-0.88-3.08-0.88c-1.65,0-2.96,0.53-3.92,1.58c-0.96,1.05-1.44,2.42-1.44,4.1s0.48,3.05,1.44,4.1
		c0.96,1.05,2.27,1.58,3.92,1.58c1.25,0,2.28-0.29,3.08-0.88s1.33-1.39,1.6-2.4h2c-0.27,1.47-0.99,2.65-2.17,3.56
		C291.47,86.17,289.96,86.62,288.12,86.62z"/>
	<path class="st7" d="M300.44,86.54c-1.07,0-1.92-0.32-2.55-0.97c-0.63-0.65-0.95-1.58-0.95-2.81v-5.68h1.74v5.26
		c0,1.8,0.75,2.7,2.24,2.7c0.88,0,1.54-0.28,1.97-0.85s0.65-1.26,0.65-2.07v-5.04h1.74v9.22h-1.74v-1.68
		c-0.25,0.59-0.65,1.05-1.19,1.4S301.17,86.54,300.44,86.54z"/>
	<path class="st7" d="M311.38,86.54c-1.16,0-2.09-0.29-2.79-0.87s-1.05-1.29-1.05-2.13h1.72c0,0.47,0.2,0.85,0.6,1.15
		s0.93,0.45,1.6,0.45c0.52,0,0.93-0.12,1.24-0.36s0.46-0.57,0.46-0.98c0-0.65-0.3-1.05-0.9-1.2l-2.46-0.64
		c-1.32-0.36-1.98-1.19-1.98-2.48c0-0.76,0.32-1.39,0.96-1.89s1.47-0.75,2.5-0.75c1.12,0,1.99,0.26,2.61,0.77
		c0.62,0.51,0.93,1.18,0.93,2.01h-1.72c0-0.44-0.17-0.79-0.5-1.05s-0.8-0.39-1.4-0.39c-0.48,0-0.88,0.11-1.19,0.33
		s-0.47,0.52-0.47,0.89c0,0.63,0.34,1.02,1.02,1.18l2.3,0.64c0.65,0.17,1.16,0.48,1.52,0.92c0.36,0.44,0.54,0.94,0.54,1.5
		c0,0.88-0.31,1.58-0.94,2.11C313.35,86.28,312.48,86.54,311.38,86.54z"/>
	<path class="st7" d="M320.82,84.84c0.48,0,0.87-0.03,1.16-0.1v1.54c-0.4,0.09-0.91,0.14-1.54,0.14c-0.28,0-0.52-0.01-0.73-0.04
		c-0.21-0.03-0.45-0.1-0.73-0.22s-0.51-0.29-0.7-0.51s-0.35-0.53-0.48-0.94s-0.2-0.9-0.2-1.47v-4.7h-1.66v-1.46h1.66v-2.92h1.74
		v2.92h2.32v1.46h-2.32v4.32c0,0.81,0.12,1.35,0.36,1.6C319.94,84.71,320.31,84.84,320.82,84.84z"/>
	<path class="st7" d="M328.02,86.54c-1.47,0-2.63-0.46-3.5-1.39s-1.3-2.08-1.3-3.47s0.43-2.54,1.3-3.46s2.03-1.38,3.5-1.38
		c1.45,0,2.62,0.46,3.49,1.39s1.31,2.08,1.31,3.45c0,1.39-0.44,2.54-1.31,3.47C330.63,86.08,329.47,86.54,328.02,86.54z
		 M325.77,84.05c0.55,0.62,1.3,0.93,2.25,0.93s1.69-0.31,2.24-0.93s0.82-1.41,0.82-2.37c0-0.95-0.27-1.73-0.82-2.35
		s-1.29-0.93-2.24-0.93c-0.95,0-1.7,0.31-2.25,0.93s-0.83,1.41-0.83,2.37C324.94,82.65,325.21,83.43,325.77,84.05z"/>
	<path class="st7" d="M335.08,86.3v-9.22h1.74v1.68c0.19-0.55,0.52-1,1-1.37s1.07-0.55,1.76-0.55c1.59,0,2.57,0.66,2.96,1.98
		c0.21-0.57,0.59-1.05,1.12-1.42c0.53-0.37,1.15-0.56,1.84-0.56c2.21,0,3.32,1.21,3.32,3.62v5.84h-1.74v-5.5
		c0-1.64-0.67-2.46-2-2.46c-1.51,0-2.26,1.05-2.26,3.16v4.8h-1.74v-5.38c0-1.72-0.66-2.58-1.98-2.58c-0.72,0-1.28,0.26-1.68,0.79
		s-0.6,1.32-0.6,2.37v4.8L335.08,86.3L335.08,86.3z"/>
	<path class="st7" d="M311.9,109.34c-0.91,0.85-2.16,1.28-3.73,1.28s-2.82-0.43-3.73-1.28s-1.37-2.07-1.37-3.64v-9.4h1.82v9.3
		c0,1.09,0.29,1.93,0.88,2.51s1.39,0.87,2.4,0.87s1.81-0.29,2.39-0.87c0.58-0.58,0.87-1.42,0.87-2.51v-9.3h1.84v9.4
		C313.27,107.27,312.81,108.49,311.9,109.34z"/>
	<path class="st7" d="M316.11,110.3v-14h1.82v14H316.11z"/>
	<path class="st7" d="M324.13,110.54c-1.16,0-2.09-0.29-2.79-0.87s-1.05-1.29-1.05-2.13h1.72c0,0.47,0.2,0.85,0.6,1.15
		s0.93,0.45,1.6,0.45c0.52,0,0.93-0.12,1.24-0.36s0.46-0.57,0.46-0.98c0-0.65-0.3-1.05-0.9-1.2l-2.46-0.64
		c-1.32-0.36-1.98-1.19-1.98-2.48c0-0.76,0.32-1.39,0.96-1.89s1.47-0.75,2.5-0.75c1.12,0,1.99,0.26,2.61,0.77
		c0.62,0.51,0.93,1.18,0.93,2.01h-1.72c0-0.44-0.17-0.79-0.5-1.05s-0.8-0.39-1.4-0.39c-0.48,0-0.88,0.11-1.19,0.33
		s-0.47,0.52-0.47,0.89c0,0.63,0.34,1.02,1.02,1.18l2.3,0.64c0.65,0.17,1.16,0.48,1.52,0.92c0.36,0.44,0.54,0.94,0.54,1.5
		c0,0.88-0.31,1.58-0.94,2.11C326.1,110.28,325.23,110.54,324.13,110.54z"/>
</g>
<g>
	
		<linearGradient id="SVGID_4_" gradientUnits="userSpaceOnUse" x1="272.7273" y1="366.2626" x2="357.6127" y2="281.3771" gradientTransform="matrix(1 0 0 -1 0 415.8898)">
		<stop  offset="0" style="stop-color:#3A4A9B"/>
		<stop  offset="1" style="stop-color:#2F2466"/>
	</linearGradient>
	<path class="st12" d="M315.17,134.85c-52.34,0-58.34-4.4-58.34-42.78s6-42.78,58.34-42.78s58.34,4.4,58.34,42.78
		S367.51,134.85,315.17,134.85z M315.17,53.29c-50.28,0-54.34,2.9-54.34,38.78s4.06,38.78,54.34,38.78s54.34-2.9,54.34-38.78
		S365.44,53.29,315.17,53.29z"/>
</g>
<g>
	<path class="st7" d="M100.07,86.83V75.67h-3.8v-1.56h9.25v1.56h-3.8v11.16H100.07z"/>
	<path class="st7" d="M113.16,82.16c0,0.23-0.02,0.54-0.05,0.95h-6.49c0.01,0.8,0.25,1.43,0.73,1.88c0.47,0.46,1.11,0.68,1.91,0.68
		c1.11,0,1.85-0.41,2.22-1.24h1.58c-0.15,0.78-0.57,1.41-1.27,1.89c-0.7,0.48-1.54,0.73-2.53,0.73c-1.28,0-2.3-0.4-3.06-1.19
		c-0.76-0.79-1.14-1.87-1.14-3.23c0-1.33,0.38-2.4,1.13-3.2c0.75-0.8,1.75-1.2,3-1.2c1.19,0,2.15,0.36,2.88,1.09
		C112.79,80.05,113.16,80.99,113.16,82.16z M106.61,81.88h4.98c0-0.74-0.21-1.32-0.65-1.74c-0.43-0.42-1.03-0.64-1.79-0.64
		c-0.75,0-1.35,0.22-1.81,0.65C106.9,80.59,106.65,81.17,106.61,81.88z"/>
	<path class="st7" d="M115.19,86.83v-8.38h1.58v1.53c0.17-0.5,0.47-0.91,0.91-1.25s0.97-0.5,1.6-0.5c1.44,0,2.34,0.6,2.69,1.8
		c0.19-0.52,0.53-0.95,1.02-1.29c0.48-0.34,1.04-0.51,1.67-0.51c2.01,0,3.02,1.1,3.02,3.29v5.31h-1.58v-5
		c0-1.49-0.61-2.23-1.82-2.23c-1.37,0-2.05,0.96-2.05,2.87v4.36h-1.58v-4.89c0-1.56-0.6-2.34-1.8-2.34c-0.65,0-1.16,0.24-1.53,0.72
		c-0.36,0.48-0.55,1.2-0.55,2.15v4.36C116.77,86.83,115.19,86.83,115.19,86.83z"/>
	<path class="st7" d="M134.96,78.23c1.2,0,2.17,0.41,2.93,1.23c0.75,0.82,1.13,1.88,1.13,3.19c0,1.28-0.39,2.34-1.16,3.16
		c-0.78,0.82-1.77,1.24-2.98,1.24c-0.64,0-1.23-0.15-1.77-0.45s-0.94-0.71-1.21-1.24v5.34h-1.58V78.45h1.58v1.47
		c0.27-0.52,0.68-0.93,1.23-1.24C133.67,78.38,134.28,78.23,134.96,78.23z M134.65,85.63c0.81,0,1.48-0.28,2-0.84
		s0.78-1.27,0.78-2.14s-0.26-1.59-0.78-2.15c-0.52-0.56-1.19-0.84-2-0.84c-0.84,0-1.52,0.28-2.04,0.83
		c-0.53,0.56-0.79,1.28-0.79,2.16c0,0.87,0.26,1.59,0.79,2.14C133.13,85.35,133.81,85.63,134.65,85.63z"/>
	<path class="st7" d="M141.05,86.83V74.11h1.58v12.72H141.05z"/>
	<path class="st7" d="M148.82,87.04c-1.3,0-2.31-0.41-3.04-1.24c-0.73-0.82-1.1-1.88-1.1-3.16c0-1.27,0.38-2.33,1.14-3.16
		c0.76-0.84,1.77-1.25,3.04-1.25c0.65,0,1.24,0.15,1.76,0.45c0.52,0.3,0.91,0.72,1.18,1.24v-1.47h1.56v8.38h-1.56v-1.47
		c-0.27,0.51-0.67,0.92-1.22,1.23S149.45,87.04,148.82,87.04z M149.04,85.63c0.88,0,1.58-0.29,2.08-0.86
		c0.5-0.58,0.75-1.28,0.75-2.12c0-0.85-0.25-1.56-0.75-2.14s-1.2-0.86-2.08-0.86c-0.85,0-1.53,0.28-2.04,0.84s-0.76,1.28-0.76,2.15
		s0.25,1.59,0.76,2.14C147.51,85.35,148.19,85.63,149.04,85.63z"/>
	<path class="st7" d="M159.6,85.5c0.44,0,0.79-0.03,1.05-0.09v1.4c-0.36,0.08-0.83,0.13-1.4,0.13c-0.25,0-0.48-0.01-0.66-0.04
		c-0.19-0.02-0.41-0.09-0.66-0.2s-0.47-0.26-0.64-0.46s-0.31-0.48-0.44-0.85s-0.18-0.81-0.18-1.34v-4.27h-1.51v-1.33h1.51V75.8h1.58
		v2.65h2.11v1.33h-2.11v3.92c0,0.74,0.11,1.22,0.33,1.45C158.8,85.39,159.14,85.5,159.6,85.5z"/>
	<path class="st7" d="M169.88,82.16c0,0.23-0.02,0.54-0.05,0.95h-6.49c0.01,0.8,0.25,1.43,0.73,1.88c0.47,0.46,1.11,0.68,1.91,0.68
		c1.11,0,1.85-0.41,2.22-1.24h1.58c-0.15,0.78-0.57,1.41-1.27,1.89c-0.7,0.48-1.54,0.73-2.53,0.73c-1.28,0-2.3-0.4-3.06-1.19
		s-1.14-1.87-1.14-3.23c0-1.33,0.38-2.4,1.13-3.2c0.75-0.8,1.75-1.2,3-1.2c1.19,0,2.15,0.36,2.88,1.09
		C169.51,80.05,169.88,80.99,169.88,82.16z M163.34,81.88h4.98c0-0.74-0.21-1.32-0.65-1.74c-0.43-0.42-1.03-0.64-1.79-0.64
		c-0.75,0-1.35,0.22-1.81,0.65C163.62,80.59,163.38,81.17,163.34,81.88z"/>
	<path class="st7" d="M108.65,108.63V95.91h4.05c2.01,0,3.59,0.62,4.74,1.87s1.73,2.74,1.73,4.49s-0.58,3.24-1.73,4.49
		s-2.73,1.87-4.74,1.87C112.7,108.63,108.65,108.63,108.65,108.63z M110.3,107.14h2.27c1.56,0,2.77-0.48,3.62-1.44
		c0.85-0.96,1.27-2.1,1.27-3.43c0-1.34-0.42-2.49-1.27-3.44c-0.85-0.95-2.05-1.43-3.62-1.43h-2.27V107.14z"/>
	<path class="st7" d="M127.76,108.63l-0.6-1.94h-5.29l-0.6,1.94h-1.8l4.31-12.72h1.47l4.31,12.72H127.76z M122.35,105.18h4.34
		l-2.18-6.98L122.35,105.18z"/>
	<path class="st7" d="M135.89,100.04c1.2,0,2.17,0.41,2.93,1.23c0.75,0.82,1.13,1.88,1.13,3.19c0,1.28-0.39,2.34-1.16,3.16
		c-0.78,0.82-1.77,1.24-2.98,1.24c-0.64,0-1.23-0.15-1.77-0.45s-0.94-0.71-1.21-1.24v5.34h-1.58v-12.25h1.58v1.47
		c0.27-0.52,0.68-0.93,1.23-1.24C134.59,100.19,135.21,100.04,135.89,100.04z M135.58,107.43c0.81,0,1.48-0.28,2-0.84
		s0.78-1.27,0.78-2.14s-0.26-1.59-0.78-2.15c-0.52-0.56-1.19-0.84-2-0.84c-0.84,0-1.52,0.28-2.04,0.83
		c-0.53,0.56-0.79,1.28-0.79,2.16c0,0.87,0.26,1.59,0.79,2.14C134.06,107.15,134.74,107.43,135.58,107.43z"/>
	<path class="st7" d="M146.62,100.04c1.2,0,2.17,0.41,2.93,1.23c0.75,0.82,1.13,1.88,1.13,3.19c0,1.28-0.39,2.34-1.16,3.16
		c-0.78,0.82-1.77,1.24-2.98,1.24c-0.64,0-1.23-0.15-1.77-0.45s-0.94-0.71-1.21-1.24v5.34h-1.58v-12.25h1.58v1.47
		c0.27-0.52,0.68-0.93,1.23-1.24C145.33,100.19,145.95,100.04,146.62,100.04z M146.31,107.43c0.81,0,1.48-0.28,2-0.84
		s0.78-1.27,0.78-2.14s-0.26-1.59-0.78-2.15c-0.52-0.56-1.19-0.84-2-0.84c-0.84,0-1.52,0.28-2.04,0.83
		c-0.53,0.56-0.79,1.28-0.79,2.16c0,0.87,0.26,1.59,0.79,2.14C144.8,107.15,145.48,107.43,146.31,107.43z"/>
	<path class="st7" d="M155.53,108.85c-1.05,0-1.9-0.26-2.53-0.79c-0.64-0.53-0.95-1.17-0.95-1.94h1.56c0,0.42,0.18,0.77,0.55,1.04
		c0.36,0.27,0.85,0.41,1.45,0.41c0.47,0,0.85-0.11,1.13-0.33s0.42-0.51,0.42-0.89c0-0.59-0.27-0.96-0.82-1.09l-2.23-0.58
		c-1.2-0.33-1.8-1.08-1.8-2.25c0-0.69,0.29-1.26,0.87-1.72s1.34-0.68,2.27-0.68c1.02,0,1.81,0.23,2.37,0.7
		c0.56,0.47,0.84,1.08,0.84,1.83h-1.56c0-0.4-0.15-0.72-0.45-0.95c-0.3-0.24-0.73-0.35-1.27-0.35c-0.44,0-0.8,0.1-1.08,0.3
		c-0.28,0.2-0.43,0.47-0.43,0.81c0,0.57,0.31,0.93,0.93,1.07l2.09,0.58c0.59,0.16,1.05,0.44,1.38,0.84c0.33,0.4,0.49,0.85,0.49,1.36
		c0,0.8-0.28,1.44-0.85,1.92S156.53,108.85,155.53,108.85z"/>
</g>
<g>
	
		<linearGradient id="SVGID_5_" gradientUnits="userSpaceOnUse" x1="90.9173" y1="366.2625" x2="175.8027" y2="281.3771" gradientTransform="matrix(1 0 0 -1 0 415.8898)">
		<stop  offset="0" style="stop-color:#3A4A9B"/>
		<stop  offset="1" style="stop-color:#2F2466"/>
	</linearGradient>
	<path class="st13" d="M133.36,134.85c-52.34,0-58.34-4.4-58.34-42.78s6-42.78,58.34-42.78s58.34,4.4,58.34,42.78
		S185.7,134.85,133.36,134.85z M133.36,53.29c-50.28,0-54.34,2.9-54.34,38.78s4.06,38.78,54.34,38.78s54.34-2.9,54.34-38.78
		S183.64,53.29,133.36,53.29z"/>
</g>
<path class="st7" d="M496.98,314.95l-0.64,0.37l0.12,0.07l0.53-0.3v0.6l21.44-12.38v-1.34l-21.44,12.38L496.98,314.95L496.98,314.95
	z M496.98,310.88l-4.17,2.41l0.2,0.12l3.96-2.29v0.5l21.44-12.38V298l-21.44,12.38v0.5H496.98z M496.98,306.82l-7.69,4.44l0.29,0.17
	l7.4-4.27v0.4l21.44-12.38v-1.14l-21.44,12.38L496.98,306.82L496.98,306.82z M518.42,278.53l-0.32-0.18l-17.17,9.91l-2.23-1.29
	l5.22-3.01v-0.75l11.3-6.52l-0.55-0.32l-10.75,6.2v-0.65l-6.98,4.03l-2.41-1.39l17.17-9.91l-0.47-0.27l-17.17,9.91l-2.34-1.35
	l3.81-2.2l-0.71-0.41l13.36-7.72l-0.38-0.22l-13.36,7.72l-0.68-0.39l-3.82,2.2v0.79l-3.58,2.07l-0.26-0.15l-10.59,6.11v1.04
	l11.49-6.63l-0.26-0.15l3.2-1.85v0.81l2.35,1.36l-2.49,1.44l-0.17-0.1l-14.11,8.15v0.94l14.93-8.62l-0.18-0.1l2.49-1.44l2.41,1.39
	l-5.23,3.02v0.55l-14.43,8.33v0.84l14.43-8.33v0.64l2.24,1.29l-16.67,9.62v0.36l0.33,0.19l16.98-9.8l2.32,1.34l-5.2,2.97v0.68
	l-11.22,6.48l0.55,0.32l10.67-6.16v0.79l6.99-4.04l2.11,1.22l-2.07,1.2v0.2l-14.73,8.5l0.47,0.27l14.27-8.24v0.2l2.89-1.67
	l2.29,1.32l-3.74,2.16l0.33,0.19l-1.77,1.02v0.3l-11.21,6.47l0.38,0.22l10.83-6.25v0.3l2.67-1.54l0.54,0.31l3.74-2.15v-0.62
	l14.5-8.37v-1.04l-14.5,8.37v-0.38l-2.29-1.32l16.79-9.69v-0.94l-17.6,10.16l-2.11-1.22l5.22-3.01v-0.69l14.5-8.37v-0.84l-14.5,8.37
	v-0.52l-2.35-1.36l16.85-9.73v-0.37H518.42z M491.73,291.01l5.22-3.01l2.23,1.29l-2.49,1.44l-2.73,1.58L491.73,291.01L491.73,291.01
	z M502.16,291.01l-5.24,3l-2.32-1.34l2.4-1.39l2.82-1.63L502.16,291.01L502.16,291.01z M483.22,282.96l21.44-12.38l-0.29-0.17
	l-21.44,12.38l-0.35-0.2l-7.06,4.08v1.14l8.05-4.65L483.22,282.96z M479.7,280.93l21.45-12.38l-0.2-0.12l-21.45,12.38l-0.44-0.25
	l-3.53,2.04v1.24l4.61-2.66L479.7,280.93z M476.17,278.9l21.45-12.39l-0.12-0.07l-21.45,12.39l-0.52-0.3h-0.01v1.34l1.17-0.68
	L476.17,278.9z"/>
<path class="st7" d="M463.71,338.41c0,2.35-1.79,3.26-3.84,3.26h-0.91c-2.07,0-3.41-1.03-3.76-2.81c-0.04-0.2,0.07-0.34,0.3-0.34
	h0.57c0.17,0,0.31,0.13,0.32,0.3l0,0l0,0c0.29,1.22,1.08,1.72,2.58,1.72h0.91c1.53,0,2.73-0.48,2.73-2.17s-1.47-1.88-3.15-2.07
	c-2.44-0.27-4.07-0.69-4.07-3.15c0-2.15,1.45-3.01,3.69-3.01h0.66c2.1,0,3.53,0.95,3.62,3.01c0,0.23-0.07,0.34-0.32,0.34h-0.5
	c-0.18,0.01-0.33-0.12-0.34-0.3v-0.04c-0.11-1.36-0.95-1.99-2.51-1.99h-0.57c-1.63,0-2.62,0.48-2.62,2.01c0,1.63,1.18,1.9,2.96,2.1
	C461.79,335.61,463.71,335.88,463.71,338.41z"/>
<path class="st7" d="M465.97,337.64v-7.05c-0.02-0.16,0.09-0.32,0.25-0.34h0.52c0.16-0.03,0.32,0.08,0.34,0.25l0,0
	c0.01,0.03,0.01,0.06,0,0.1v6.99c0,1.97,0.45,2.98,2.49,2.98h0.34c1.35,0.03,2.61-0.63,3.34-1.77v-8.21
	c-0.03-0.16,0.08-0.32,0.24-0.34h0.53c0.16-0.03,0.32,0.08,0.34,0.24l0,0c0.01,0.03,0.01,0.07,0,0.1v10.62
	c0.03,0.16-0.08,0.32-0.24,0.34l0,0c-0.03,0.01-0.07,0.01-0.1,0h-0.43c-0.16,0.03-0.32-0.08-0.34-0.24c0-0.03,0-0.07,0-0.1v-1.42
	c-0.78,1.18-2.1,1.87-3.51,1.86h-0.18C466.92,341.65,465.97,340.27,465.97,337.64z"/>
<path class="st7" d="M486.08,334.28v3.23c0,2.65-1.65,4.16-4,4.16h-0.81c-1.7,0-2.62-0.69-3.08-1.86v1.4
	c0.03,0.16-0.08,0.32-0.25,0.34c0,0,0,0-0.01,0c-0.03,0.01-0.06,0.01-0.09,0h-0.43c-0.17,0.02-0.32-0.09-0.34-0.26
	c0-0.03,0-0.06,0-0.09v-15.15c-0.02-0.16,0.09-0.32,0.25-0.34h0.52c0.16-0.03,0.32,0.08,0.34,0.25l0,0c0.01,0.03,0.01,0.06,0,0.1
	v5.81c0.45-1.13,1.38-1.72,3.08-1.72h0.83C484.43,330.16,486.08,331.59,486.08,334.28z M484.97,334.34c0-2.1-1.03-3.1-2.92-3.1
	h-0.95c-1.88,0-2.92,1-2.92,3.1v3.26c0,1.94,1.03,2.99,2.92,2.99h0.95c1.88,0,2.92-1.03,2.92-2.99V334.34z"/>
<path class="st7" d="M496.52,338.41c0,2.35-1.79,3.26-3.85,3.26h-0.9c-2.07,0-3.41-1.03-3.76-2.81c-0.04-0.2,0.07-0.34,0.3-0.34
	h0.57c0.17,0,0.31,0.13,0.32,0.3l0,0l0,0c0.29,1.22,1.08,1.72,2.58,1.72h0.9c1.54,0,2.74-0.48,2.74-2.17s-1.47-1.88-3.15-2.07
	c-2.44-0.27-4.07-0.69-4.07-3.15c0-2.15,1.45-3.01,3.69-3.01h0.66c2.1,0,3.53,0.95,3.62,3.01c0,0.23-0.07,0.34-0.31,0.34h-0.5
	c-0.18,0.01-0.33-0.12-0.34-0.3v-0.04c-0.11-1.36-0.95-1.99-2.51-1.99h-0.57c-1.63,0-2.62,0.48-2.62,2.01c0,1.63,1.18,1.9,2.96,2.1
	C494.6,335.61,496.52,335.88,496.52,338.41z"/>
<path class="st7" d="M500.89,331.31V338c0,1.79,0.43,2.51,1.95,2.56c0.2-0.02,0.29,0.14,0.29,0.34v0.38
	c0.01,0.16-0.11,0.31-0.27,0.32l0,0h-0.04c-2.22-0.04-3.01-1.2-3.01-3.55v-6.74h-1.23c-0.17,0.02-0.32-0.09-0.34-0.26
	c0-0.03,0-0.06,0-0.09v-0.34c0-0.25,0.11-0.36,0.34-0.36h1.22v-1.31c-0.03-0.16,0.08-0.32,0.24-0.34h0.53
	c0.16-0.03,0.32,0.08,0.34,0.25l0,0c0.01,0.03,0.01,0.06,0,0.1v1.3h1.86c0.25,0,0.34,0.11,0.34,0.34v0.38
	c0.03,0.16-0.08,0.32-0.25,0.34c0,0,0,0-0.01,0c-0.03,0.01-0.06,0.01-0.09,0L500.89,331.31z"/>
<path class="st7" d="M511.27,331.4c-0.37-0.13-0.76-0.19-1.15-0.18h-0.27c-1.34-0.02-2.6,0.66-3.32,1.79v8.21
	c0.03,0.16-0.08,0.32-0.24,0.34l0,0c-0.03,0.01-0.07,0.01-0.1,0h-0.43c-0.16,0.03-0.32-0.08-0.34-0.24c0-0.03,0-0.07,0-0.1V330.6
	c-0.03-0.16,0.08-0.32,0.24-0.34h0.53c0.16-0.03,0.32,0.08,0.34,0.24l0,0c0.01,0.03,0.01,0.07,0,0.1v1.42
	c0.83-1.21,2.22-1.9,3.69-1.84c0.5,0,0.99,0.06,1.47,0.18c0.17,0.04,0.27,0.21,0.22,0.38l0,0c0,0.01,0,0.03,0,0.04l-0.18,0.48
	c-0.05,0.15-0.22,0.23-0.37,0.18h-0.01C511.31,331.44,511.29,331.42,511.27,331.4z"/>
<path class="st7" d="M521.52,341.56h-0.72c-0.25,0-0.34-0.23-0.34-0.54v-1.36c-0.67,1.26-1.99,2.04-3.41,2.01H516
	c-2.03,0-3.28-1.13-3.28-3.37s1.29-3.26,3.23-3.26h4.48v-0.69c0-2.41-0.59-3.1-2.76-3.1h-0.43c-0.97-0.04-1.94,0.17-2.81,0.61
	c-0.2,0.11-0.41,0.16-0.47-0.02l-0.25-0.48c-0.07-0.13-0.04-0.25,0.18-0.38c0.9-0.59,2.1-0.79,3.35-0.79h0.43
	c2.81,0,3.87,1.29,3.87,4.16v6.69c0,0.12,0.02,0.23,0.04,0.34C521.61,341.45,521.63,341.56,521.52,341.56z M520.43,338.08v-2.01
	h-4.46c-1.4,0-2.17,0.54-2.17,2.24s0.77,2.29,2.17,2.29h0.94C518.53,340.68,519.99,339.64,520.43,338.08z"/>
<path class="st7" d="M526.09,331.31V338c0,1.79,0.43,2.51,1.95,2.56c0.2-0.02,0.29,0.14,0.29,0.34l-0.02,0.38
	c0.01,0.16-0.11,0.31-0.27,0.32l0,0H528c-2.22-0.04-3.01-1.2-3.01-3.55v-6.74h-1.23c-0.17,0.02-0.32-0.09-0.34-0.26
	c0-0.03,0-0.06,0-0.09v-0.34c0-0.25,0.11-0.36,0.34-0.36h1.22v-1.31c-0.03-0.16,0.08-0.32,0.24-0.34h0.53
	c0.16-0.03,0.32,0.08,0.34,0.25l0,0c0.01,0.03,0.01,0.06,0,0.1v1.3h1.9c0.25,0,0.34,0.11,0.34,0.34v0.38
	c0.03,0.16-0.08,0.32-0.25,0.34c0,0,0,0-0.01,0c-0.03,0.01-0.06,0.01-0.09,0L526.09,331.31z"/>
<path class="st7" d="M538.75,334.25v1.43c0,0.38-0.31,0.69-0.69,0.69h-6.9v1.33c0,1.83,1.03,2.87,2.92,2.87h0.75
	c1.58,0,2.01-0.66,2.71-1.49c0.16-0.18,0.25-0.23,0.47-0.07l0.3,0.2c0.22,0.16,0.2,0.3,0.07,0.48c-0.81,1-1.63,1.97-3.55,1.97h-0.75
	c-2.37,0-4.07-1.49-4.07-4.03v-3.37c0-2.69,1.7-4.12,4.07-4.12h0.75C536.76,330.16,538.75,331.61,538.75,334.25z M537.6,334.34
	c0-2.1-1.2-3.1-2.78-3.1h-0.75c-1.88,0-2.92,1.03-2.92,3.1v1.03h6.46L537.6,334.34z"/>
<path class="st14" d="M568.67,77.11L558,71.08c-0.37-0.21-0.61-0.61-0.61-1.04V66.6c0-0.43,0.23-0.83,0.61-1.04l10.67-6.03
	c0.79-0.45,1.78,0.13,1.78,1.04v15.5C570.45,76.99,569.46,77.56,568.67,77.11z"/>
<path class="st14" d="M560.87,71.99h-10.58c-0.62,0-1.12-0.5-1.12-1.12V65.8c0-0.62,0.5-1.12,1.12-1.12h10.58
	c0.62,0,1.12,0.5,1.12,1.12v5.07C561.99,71.48,561.49,71.99,560.87,71.99z"/>
<path class="st14" d="M556.58,82.35L556.58,82.35c-1.29,0.2-2.51-0.69-2.71-1.98l-1.27-8.23c-0.2-1.29,0.69-2.51,1.98-2.71l0,0
	c1.29-0.2,2.51,0.69,2.71,1.98l1.27,8.23C558.76,80.94,557.87,82.15,556.58,82.35z"/>
<path class="st15" d="M100.72,59.33V57c0-0.23-0.18-0.43-0.41-0.45l-2.07-0.18c-0.19-0.02-0.35-0.16-0.39-0.35
	c-0.18-0.81-0.48-1.58-0.88-2.28c-0.09-0.16-0.08-0.36,0.04-0.5l1.3-1.53c0.27-0.31,0.25-0.58,0.09-0.74l-1.65-1.66
	c-0.16-0.17-0.43-0.18-0.61-0.03l-1.59,1.34c-0.15,0.13-0.36,0.14-0.52,0.03c-0.69-0.43-1.44-0.77-2.23-0.99
	c-0.18-0.05-0.31-0.2-0.33-0.39c-0.04-0.52-0.13-1.59-0.18-2.18c-0.02-0.23-0.21-0.41-0.44-0.41l-2.34-0.01
	c-0.23,0-0.43,0.18-0.45,0.41l-0.18,2.07c-0.02,0.19-0.16,0.35-0.35,0.39c-0.81,0.18-1.58,0.48-2.28,0.88
	c-0.16,0.09-0.36,0.08-0.5-0.04l-1.53-1.3c-0.31-0.27-0.58-0.25-0.74-0.09l-1.66,1.65c-0.17,0.16-0.18,0.43-0.03,0.61l1.34,1.59
	c0.13,0.15,0.14,0.36,0.03,0.52c-0.43,0.69-0.77,1.44-0.99,2.23c-0.05,0.18-0.2,0.31-0.38,0.33c-0.5,0.04-1.51,0.13-2.07,0.18
	c-0.23,0.02-0.41,0.21-0.41,0.45v2.34c0,0.23,0.18,0.43,0.41,0.45l1.96,0.17c0.19,0.02,0.35,0.16,0.39,0.35
	c0.18,0.81,0.48,1.58,0.88,2.28c0.09,0.16,0.08,0.36-0.04,0.5l-1.3,1.53c-0.27,0.31-0.25,0.58-0.09,0.74l1.65,1.65
	c0.16,0.16,0.43,0.18,0.61,0.03l1.59-1.34c0.15-0.13,0.36-0.14,0.52-0.03c0.69,0.43,1.44,0.77,2.24,0.99
	c0.18,0.05,0.31,0.2,0.33,0.38c0.04,0.5,0.13,1.51,0.17,2.07c0.02,0.23,0.21,0.41,0.45,0.41h2.34c0.23,0,0.43-0.18,0.45-0.41
	l0.18-1.96c0.02-0.19,0.16-0.35,0.35-0.39c0.81-0.19,1.58-0.48,2.28-0.88c0.16-0.09,0.36-0.08,0.5,0.04l1.53,1.3
	c0.31,0.27,0.58,0.25,0.74,0.09l1.66-1.65c0.17-0.16,0.18-0.43,0.03-0.61l-1.34-1.59c-0.13-0.15-0.14-0.36-0.03-0.52
	c0.43-0.69,0.77-1.44,0.99-2.23c0.05-0.18,0.2-0.31,0.39-0.33c0.53-0.04,1.6-0.13,2.19-0.18C100.54,59.76,100.72,59.56,100.72,59.33
	z"/>
<path class="st15" d="M183,122.96v-1.62c0-0.16-0.12-0.3-0.28-0.31l-1.44-0.12c-0.14-0.01-0.24-0.11-0.27-0.24
	c-0.13-0.56-0.34-1.1-0.61-1.59c-0.06-0.11-0.05-0.25,0.03-0.35l0.9-1.06c0.19-0.22,0.18-0.4,0.06-0.51l-1.15-1.15
	c-0.11-0.11-0.3-0.12-0.42-0.02l-1.1,0.93c-0.1,0.09-0.25,0.09-0.36,0.02c-0.48-0.3-1-0.53-1.55-0.69
	c-0.13-0.04-0.22-0.14-0.23-0.27c-0.03-0.36-0.09-1.11-0.12-1.52c-0.01-0.16-0.15-0.28-0.31-0.28h-1.62c-0.16,0-0.3,0.12-0.31,0.28
	l-0.12,1.44c-0.01,0.14-0.11,0.24-0.24,0.27c-0.56,0.13-1.1,0.34-1.59,0.61c-0.11,0.06-0.25,0.05-0.35-0.03l-1.06-0.9
	c-0.22-0.19-0.4-0.18-0.51-0.06l-1.15,1.15c-0.11,0.11-0.12,0.3-0.02,0.42l0.93,1.1c0.09,0.1,0.09,0.25,0.02,0.36
	c-0.3,0.48-0.53,1-0.69,1.55c-0.04,0.12-0.14,0.22-0.27,0.23c-0.35,0.03-1.05,0.09-1.44,0.12c-0.16,0.01-0.28,0.15-0.28,0.31v1.63
	c0,0.16,0.12,0.3,0.28,0.31l1.36,0.12c0.13,0.01,0.24,0.11,0.27,0.24c0.13,0.56,0.34,1.1,0.61,1.59c0.06,0.11,0.06,0.25-0.03,0.35
	l-0.9,1.06c-0.19,0.22-0.18,0.4-0.06,0.51l1.15,1.15c0.11,0.11,0.3,0.12,0.42,0.02l1.1-0.93c0.1-0.09,0.25-0.09,0.36-0.02
	c0.48,0.3,1,0.53,1.55,0.69c0.13,0.04,0.22,0.14,0.23,0.27c0.03,0.35,0.09,1.05,0.12,1.44c0.01,0.16,0.15,0.28,0.31,0.28h1.63
	c0.16,0,0.3-0.12,0.31-0.28l0.12-1.36c0.01-0.13,0.11-0.24,0.24-0.27c0.56-0.13,1.1-0.34,1.59-0.61c0.11-0.06,0.25-0.05,0.35,0.03
	l1.06,0.9c0.22,0.19,0.4,0.18,0.51,0.06l1.15-1.15c0.11-0.11,0.12-0.3,0.02-0.42l-0.93-1.1c-0.09-0.1-0.09-0.25-0.02-0.36
	c0.3-0.48,0.53-1,0.69-1.55c0.04-0.13,0.14-0.22,0.27-0.23c0.37-0.03,1.11-0.09,1.52-0.12C182.88,123.25,183,123.12,183,122.96z
	 M175.8,124.45c-1.87,0.41-3.5-1.22-3.08-3.08c0.21-0.94,0.97-1.7,1.91-1.91c1.87-0.41,3.5,1.22,3.09,3.09
	C177.5,123.48,176.74,124.24,175.8,124.45z"/>
<path class="st15" d="M114.23,63.83v-1.31c0-0.18-0.14-0.33-0.32-0.35l-1.16-0.1c-0.15-0.01-0.27-0.12-0.3-0.27
	c-0.11-0.47-0.28-0.91-0.51-1.31c-0.07-0.13-0.06-0.28,0.04-0.39l0.8-0.94c0.12-0.14,0.11-0.34-0.02-0.47l-0.92-0.93
	c-0.13-0.13-0.33-0.14-0.47-0.02l-0.89,0.75c-0.11,0.1-0.28,0.1-0.4,0.03c-0.4-0.24-0.83-0.44-1.29-0.57
	c-0.14-0.04-0.24-0.16-0.25-0.3l-0.1-1.23c-0.01-0.18-0.17-0.32-0.35-0.32h-1.31c-0.18,0-0.33,0.14-0.35,0.32l-0.1,1.16
	c-0.01,0.15-0.12,0.27-0.27,0.3c-0.46,0.11-0.91,0.28-1.31,0.51c-0.13,0.07-0.28,0.06-0.39-0.04l-0.94-0.8
	c-0.14-0.12-0.34-0.11-0.47,0.02l-0.93,0.92c-0.13,0.13-0.14,0.33-0.02,0.47l0.75,0.89c0.1,0.12,0.1,0.28,0.03,0.4
	c-0.24,0.4-0.44,0.83-0.57,1.29c-0.04,0.14-0.16,0.24-0.3,0.25l-1.16,0.1c-0.18,0.02-0.32,0.17-0.32,0.35v1.31
	c0,0.18,0.14,0.33,0.32,0.35l1.09,0.1c0.15,0.01,0.27,0.12,0.3,0.27c0.11,0.46,0.28,0.91,0.51,1.31c0.07,0.13,0.06,0.28-0.04,0.39
	l-0.8,0.94c-0.12,0.14-0.11,0.34,0.02,0.47l0.92,0.92c0.13,0.13,0.33,0.14,0.47,0.02l0.89-0.75c0.12-0.1,0.28-0.1,0.4-0.03
	c0.4,0.24,0.83,0.44,1.29,0.57c0.14,0.04,0.24,0.16,0.25,0.3l0.1,1.16c0.02,0.18,0.17,0.32,0.35,0.32h1.31
	c0.18,0,0.33-0.14,0.35-0.32l0.1-1.09c0.01-0.15,0.12-0.27,0.27-0.3c0.46-0.11,0.91-0.28,1.31-0.51c0.13-0.07,0.28-0.06,0.39,0.04
	l0.94,0.8c0.14,0.12,0.34,0.11,0.47-0.02l0.93-0.92c0.13-0.13,0.14-0.33,0.02-0.47l-0.75-0.89c-0.1-0.12-0.1-0.28-0.03-0.4
	c0.24-0.4,0.44-0.83,0.57-1.29c0.04-0.14,0.16-0.24,0.3-0.25l1.23-0.1C114.1,64.16,114.23,64.01,114.23,63.83z M107.75,64.6
	c-1.22,0.29-2.3-0.78-2-2c0.14-0.57,0.61-1.05,1.18-1.18c1.22-0.3,2.3,0.78,2,2C108.79,63.99,108.32,64.46,107.75,64.6z"/>
<path class="st15" d="M371.18,53.9l-16.05,13.77c-0.26,0.22-0.55,0.39-0.88,0.49c-0.87,0.28-2.89,0.93-6.33,2.03
	c-0.28,0.09-0.54-0.2-0.41-0.47c1.64-3.4,2.51-5.2,2.88-5.97c0.15-0.32,0.37-0.59,0.63-0.82l16.03-13.75
	c0.55-0.49,1.61-0.17,2.37,0.71l1.37,1.57C371.56,52.33,371.73,53.42,371.18,53.9z"/>
<g>
	<path class="st15" d="M274.42,132.33h-15.8c-0.9,0-1.63-0.73-1.63-1.63v-9.94c0-0.9,0.73-1.63,1.63-1.63h15.8
		c0.9,0,1.63,0.73,1.63,1.63v9.94C276.05,131.6,275.32,132.33,274.42,132.33z"/>
	<path class="st15" d="M274.42,133.33h-15.8c-1.45,0-2.63-1.18-2.63-2.63v-9.94c0-1.45,1.18-2.63,2.63-2.63h15.8
		c1.45,0,2.63,1.18,2.63,2.63v9.94C277.05,132.15,275.87,133.33,274.42,133.33z M258.61,120.12c-0.35,0-0.63,0.28-0.63,0.63v9.94
		c0,0.35,0.28,0.63,0.63,0.63h15.8c0.35,0,0.63-0.28,0.63-0.63v-9.94c0-0.35-0.28-0.63-0.63-0.63H258.61z"/>
</g>
<g>
	<path class="st15" d="M283.57,123.78h-13.94c-1.42,0-2.58-1.16-2.58-2.58v-8.69c0-1.42,1.16-2.58,2.58-2.58h13.94
		c1.42,0,2.58,1.16,2.58,2.58v8.69C286.15,122.63,284.99,123.78,283.57,123.78z M269.63,111.94c-0.32,0-0.58,0.26-0.58,0.58v8.69
		c0,0.32,0.26,0.58,0.58,0.58h13.94c0.32,0,0.58-0.26,0.58-0.58v-8.69c0-0.32-0.26-0.58-0.58-0.58H269.63z"/>
</g>
<g class="st16">
	<path class="st17" d="M546.6,142.16c-0.54,0-1.05-0.29-1.32-0.75l-2.43-4.04l-1.91,1.79c-0.29,0.27-0.66,0.42-1.05,0.42
		c-0.78,0-1.44-0.58-1.53-1.35l-1.85-14.62c-0.06-0.44,0.08-0.88,0.37-1.21s0.72-0.53,1.16-0.53c0.32,0,0.63,0.1,0.89,0.28
		l12.03,8.51c0.48,0.34,0.72,0.9,0.64,1.48c-0.08,0.58-0.48,1.05-1.03,1.24l-2.47,0.84l2.43,4.04c0.44,0.73,0.2,1.68-0.53,2.12
		l-2.6,1.56C547.15,142.08,546.88,142.16,546.6,142.16z"/>
	<g class="st18">
		<path class="st15" d="M538.03,122.84c0.11,0,0.22,0.03,0.32,0.11l12.03,8.51c0.38,0.27,0.29,0.85-0.14,1l-3.62,1.24l3.05,5.08
			c0.16,0.27,0.07,0.61-0.19,0.78l-2.6,1.56c-0.09,0.05-0.19,0.08-0.29,0.08c-0.19,0-0.38-0.1-0.48-0.27l-3.05-5.08l-2.79,2.61
			c-0.11,0.11-0.25,0.15-0.38,0.15c-0.27,0-0.52-0.19-0.56-0.49l-1.85-14.62C537.43,123.12,537.72,122.84,538.03,122.84
			 M538.03,120.89c-0.72,0-1.42,0.31-1.9,0.86c-0.48,0.54-0.7,1.26-0.61,1.98l1.85,14.62c0.16,1.26,1.24,2.2,2.5,2.2
			c0.64,0,1.25-0.24,1.72-0.68l1.02-0.96l1.8,3c0.45,0.75,1.28,1.22,2.16,1.22c0.46,0,0.9-0.12,1.3-0.36l2.6-1.56
			c1.19-0.72,1.58-2.27,0.86-3.46l-1.8-3l1.33-0.45c0.9-0.31,1.54-1.08,1.68-2.02s-0.26-1.87-1.04-2.42l-12.03-8.51
			C539.06,121.05,538.56,120.89,538.03,120.89L538.03,120.89z"/>
	</g>
</g>
<g>
	<path class="st7" d="M481.81,86.3v-14h4.46c2.21,0,3.95,0.69,5.22,2.06c1.27,1.37,1.9,3.02,1.9,4.94s-0.63,3.57-1.9,4.94
		s-3.01,2.06-5.22,2.06H481.81z M483.63,84.66h2.5c1.72,0,3.05-0.53,3.98-1.58c0.93-1.05,1.4-2.31,1.4-3.78
		c0-1.48-0.47-2.74-1.4-3.79s-2.26-1.57-3.98-1.57h-2.5V84.66z"/>
	<path class="st7" d="M503.71,81.16c0,0.25-0.02,0.6-0.06,1.04h-7.14c0.01,0.88,0.28,1.57,0.8,2.07s1.22,0.75,2.1,0.75
		c1.23,0,2.04-0.45,2.44-1.36h1.74c-0.16,0.85-0.63,1.55-1.4,2.08s-1.7,0.8-2.78,0.8c-1.41,0-2.54-0.44-3.37-1.31
		c-0.83-0.87-1.25-2.06-1.25-3.55c0-1.47,0.41-2.64,1.24-3.52s1.93-1.32,3.3-1.32c1.31,0,2.36,0.4,3.17,1.2
		C503.31,78.84,503.71,79.88,503.71,81.16z M496.51,80.86h5.48c0-0.81-0.24-1.45-0.71-1.92s-1.13-0.7-1.97-0.7
		c-0.83,0-1.49,0.24-1.99,0.72C496.82,79.44,496.55,80.07,496.51,80.86z"/>
	<path class="st7" d="M508.19,86.3l-4.06-9.22h1.86l2.9,6.9l2.92-6.9h1.86l-4.06,9.22H508.19z"/>
	<path class="st7" d="M480.78,108.84c0.48,0,0.87-0.03,1.16-0.1v1.54c-0.4,0.09-0.91,0.14-1.54,0.14c-0.28,0-0.52-0.01-0.73-0.04
		c-0.21-0.03-0.45-0.1-0.73-0.22s-0.51-0.29-0.7-0.51s-0.35-0.53-0.48-0.94s-0.2-0.9-0.2-1.47v-4.7h-1.66v-1.46h1.66v-2.92h1.74
		v2.92h2.32v1.46h-2.32v4.32c0,0.81,0.12,1.35,0.36,1.6C479.9,108.71,480.28,108.84,480.78,108.84z"/>
	<path class="st7" d="M487.98,110.54c-1.47,0-2.63-0.46-3.5-1.39s-1.3-2.08-1.3-3.47s0.43-2.54,1.3-3.46s2.03-1.38,3.5-1.38
		c1.45,0,2.62,0.46,3.49,1.39s1.31,2.08,1.31,3.45c0,1.39-0.44,2.54-1.31,3.47S489.44,110.54,487.98,110.54z M485.73,108.05
		c0.55,0.62,1.3,0.93,2.25,0.93s1.69-0.31,2.24-0.93s0.82-1.41,0.82-2.37c0-0.95-0.27-1.73-0.82-2.35s-1.29-0.93-2.24-0.93
		c-0.95,0-1.7,0.31-2.25,0.93s-0.83,1.41-0.83,2.37C484.9,106.65,485.18,107.43,485.73,108.05z"/>
	<path class="st7" d="M499.22,110.54c-1.47,0-2.63-0.46-3.5-1.39s-1.3-2.08-1.3-3.47s0.43-2.54,1.3-3.46s2.03-1.38,3.5-1.38
		c1.45,0,2.62,0.46,3.49,1.39s1.31,2.08,1.31,3.45c0,1.39-0.44,2.54-1.31,3.47S500.68,110.54,499.22,110.54z M496.97,108.05
		c0.55,0.62,1.3,0.93,2.25,0.93s1.69-0.31,2.24-0.93s0.82-1.41,0.82-2.37c0-0.95-0.27-1.73-0.82-2.35s-1.29-0.93-2.24-0.93
		c-0.95,0-1.7,0.31-2.25,0.93s-0.83,1.41-0.83,2.37C496.14,106.65,496.42,107.43,496.97,108.05z"/>
	<path class="st7" d="M506.28,110.3v-14h1.74v14H506.28z"/>
	<path class="st7" d="M514.12,110.54c-1.16,0-2.09-0.29-2.79-0.87c-0.7-0.58-1.05-1.29-1.05-2.13H512c0,0.47,0.2,0.85,0.6,1.15
		c0.4,0.3,0.93,0.45,1.6,0.45c0.52,0,0.93-0.12,1.24-0.36s0.46-0.57,0.46-0.98c0-0.65-0.3-1.05-0.9-1.2l-2.46-0.64
		c-1.32-0.36-1.98-1.19-1.98-2.48c0-0.76,0.32-1.39,0.96-1.89c0.64-0.5,1.47-0.75,2.5-0.75c1.12,0,1.99,0.26,2.61,0.77
		c0.62,0.51,0.93,1.18,0.93,2.01h-1.72c0-0.44-0.17-0.79-0.5-1.05s-0.8-0.39-1.4-0.39c-0.48,0-0.88,0.11-1.19,0.33
		s-0.47,0.52-0.47,0.89c0,0.63,0.34,1.02,1.02,1.18l2.3,0.64c0.65,0.17,1.16,0.48,1.52,0.92c0.36,0.44,0.54,0.94,0.54,1.5
		c0,0.88-0.31,1.58-0.94,2.11C516.1,110.28,515.23,110.54,514.12,110.54z"/>
</g>
<g>
	
		<linearGradient id="SVGID_6_" gradientUnits="userSpaceOnUse" x1="454.5273" y1="366.2625" x2="539.4127" y2="281.3771" gradientTransform="matrix(1 0 0 -1 0 415.8898)">
		<stop  offset="0" style="stop-color:#3A4A9B"/>
		<stop  offset="1" style="stop-color:#2F2466"/>
	</linearGradient>
	<path class="st19" d="M496.97,134.85c-52.34,0-58.34-4.4-58.34-42.78s6-42.78,58.34-42.78s58.34,4.4,58.34,42.78
		S549.31,134.85,496.97,134.85z M496.97,53.29c-50.28,0-54.34,2.9-54.34,38.78s4.06,38.78,54.34,38.78s54.34-2.9,54.34-38.78
		S547.25,53.29,496.97,53.29z"/>
</g>
<g>
	<g>
		<path class="st15" d="M466.48,118.02h-1.38c-3.84,0-6.97-3.13-6.97-6.97V98.04c0-2.74-2.23-4.97-4.97-4.97v-2
			c2.74,0,4.97-2.23,4.97-4.97V73.08c0-3.84,3.13-6.97,6.97-6.97h1.38v2h-1.38c-2.74,0-4.97,2.23-4.97,4.97V86.1
			c0,2.53-1.35,4.75-3.37,5.97c2.02,1.22,3.37,3.44,3.37,5.97v13.02c0,2.74,2.23,4.97,4.97,4.97h1.38V118.02z"/>
	</g>
	<g>
		<path class="st15" d="M528.84,118.02h-1.38v-2h1.38c2.74,0,4.97-2.23,4.97-4.97V98.04c0-2.53,1.35-4.75,3.37-5.97
			c-2.02-1.22-3.37-3.44-3.37-5.97V73.08c0-2.74-2.23-4.97-4.97-4.97h-1.38v-2h1.38c3.84,0,6.97,3.13,6.97,6.97V86.1
			c0,2.74,2.23,4.97,4.97,4.97v2c-2.74,0-4.97,2.23-4.97,4.97v13.02C535.81,114.9,532.68,118.02,528.84,118.02z"/>
	</g>
</g>
<path class="st20" d="M90.43,61.78c-2.92,0.65-5.46-1.9-4.81-4.82c0.33-1.47,1.51-2.66,2.98-2.98c2.92-0.65,5.46,1.9,4.82,4.82
	C93.09,60.27,91.9,61.46,90.43,61.78z"/>
</svg>
