<svg width="138" height="40" viewBox="0 0 138 40" fill="none" xmlns="http://www.w3.org/2000/svg">
<path fill-rule="evenodd" clip-rule="evenodd" d="M8.51818 32.2366H27.9623L27.0337 29.2299L29.2551 31.1363L31.2909 32.9608L35 36.0604V6.70802C34.9074 4.88347 33.3365 3.33301 31.3891 3.33301L8.52502 3.3371C6.5791 3.3371 5 4.89028 5 6.71483V28.8603C5 30.7844 6.57636 32.2366 8.51818 32.2366ZM22.9019 11.0826L22.8569 11.0989L22.8732 11.0826H22.9019ZM12.4959 12.813C14.9955 10.9939 17.3123 11.0812 17.3123 11.0812L17.4991 11.2653C14.4405 11.9948 13.0537 13.3612 13.0537 13.3612C13.0537 13.3612 13.4246 13.1798 14.0723 12.903C18.1919 11.283 22.6905 11.4003 26.8551 13.4512C26.8551 13.4512 25.4655 12.1735 22.595 11.3553L22.8487 11.1058C23.2455 11.1071 25.3455 11.1808 27.5927 12.8239C27.5927 12.8239 30.1074 17.1194 30.1074 22.3967C30.0923 22.3785 30.0318 22.441 29.9203 22.5562C29.4146 23.0784 27.8607 24.6833 24.7469 24.7503C24.7469 24.7503 24.1032 24.0222 23.6451 23.3867C25.8678 22.7485 26.6995 21.4722 26.6995 21.4722C26.1712 21.805 25.6765 22.0398 25.2386 22.2476L25.2386 22.2477C25.0719 22.3268 24.9135 22.402 24.7646 22.4772C23.9534 22.8342 23.1408 23.0142 22.3295 23.1939L22.2719 23.2067C18.5991 23.8027 16.4308 22.9109 14.4608 22.1006L14.4605 22.1005C14.3212 22.0432 14.1828 21.9863 14.045 21.9303L13.3318 21.5676C13.3318 21.5676 14.1623 22.844 16.2964 23.4821C15.7359 24.1217 15.1809 24.8485 15.1809 24.8485C11.3818 24.7585 9.99637 22.3858 9.99637 22.3858C9.99637 17.1003 12.4959 12.813 12.4959 12.813ZM23.1509 20.7485C24.1205 20.7485 24.91 19.9303 24.91 18.9212C24.91 17.9189 24.1246 17.1008 23.1509 17.1008V17.1049C22.1854 17.1049 21.3945 17.9203 21.3918 18.9294C21.3918 19.9303 22.1814 20.7485 23.1509 20.7485ZM18.6091 18.9216C18.6091 19.9307 17.8196 20.7489 16.85 20.7489C15.8805 20.7489 15.0909 19.9307 15.0909 18.9298C15.0909 17.9207 15.8805 17.1052 16.85 17.1052L16.8555 17.1011C17.8251 17.1011 18.6091 17.9193 18.6091 18.9216Z" fill="#CD4B99"/>
<path d="M57.92 28V11.2H63.272C65.928 11.2 68.016 12.024 69.536 13.672C71.056 15.32 71.816 17.296 71.816 19.6C71.816 21.904 71.056 23.88 69.536 25.528C68.016 27.176 65.928 28 63.272 28H57.92ZM60.104 26.032H63.104C65.168 26.032 66.76 25.4 67.88 24.136C69 22.872 69.56 21.36 69.56 19.6C69.56 17.824 69 16.312 67.88 15.064C66.76 13.8 65.168 13.168 63.104 13.168H60.104V26.032ZM75.4498 15.04C74.9538 15.04 74.5458 14.88 74.2258 14.56C73.9058 14.24 73.7458 13.84 73.7458 13.36C73.7458 12.88 73.9058 12.48 74.2258 12.16C74.5458 11.824 74.9538 11.656 75.4498 11.656C75.9298 11.656 76.3298 11.824 76.6498 12.16C76.9698 12.48 77.1298 12.88 77.1298 13.36C77.1298 13.84 76.9698 14.24 76.6498 14.56C76.3298 14.88 75.9298 15.04 75.4498 15.04ZM74.3938 28V16.936H76.4818V28H74.3938ZM83.8091 28.288C82.4171 28.288 81.2971 27.944 80.4491 27.256C79.6171 26.552 79.2011 25.696 79.2011 24.688H81.2651C81.2651 25.248 81.5051 25.712 81.9851 26.08C82.4651 26.432 83.1051 26.608 83.9051 26.608C84.5291 26.608 85.0251 26.464 85.3931 26.176C85.7611 25.888 85.9451 25.496 85.9451 25C85.9451 24.216 85.5851 23.736 84.8651 23.56L81.9131 22.792C80.3291 22.36 79.5371 21.368 79.5371 19.816C79.5371 18.904 79.9211 18.152 80.6891 17.56C81.4571 16.952 82.4571 16.648 83.6891 16.648C85.0331 16.648 86.0731 16.96 86.8091 17.584C87.5611 18.192 87.9371 18.992 87.9371 19.984H85.8731C85.8731 19.456 85.6731 19.04 85.2731 18.736C84.8731 18.416 84.3131 18.256 83.5931 18.256C83.0171 18.256 82.5371 18.392 82.1531 18.664C81.7851 18.92 81.6011 19.272 81.6011 19.72C81.6011 20.472 82.0091 20.944 82.8251 21.136L85.5851 21.904C86.3691 22.112 86.9771 22.48 87.4091 23.008C87.8411 23.536 88.0571 24.136 88.0571 24.808C88.0571 25.864 87.6811 26.712 86.9291 27.352C86.1771 27.976 85.1371 28.288 83.8091 28.288ZM95.5018 28.288C93.8218 28.288 92.4858 27.76 91.4938 26.704C90.5018 25.632 90.0058 24.224 90.0058 22.48C90.0058 20.736 90.5018 19.336 91.4938 18.28C92.4858 17.208 93.8218 16.672 95.5018 16.672C96.9898 16.672 98.1898 17.048 99.1018 17.8C100.014 18.536 100.534 19.528 100.662 20.776H98.5738C98.2858 19.288 97.2618 18.544 95.5018 18.544C94.4298 18.544 93.5898 18.896 92.9818 19.6C92.3738 20.288 92.0698 21.248 92.0698 22.48C92.0698 23.712 92.3738 24.68 92.9818 25.384C93.5898 26.072 94.4298 26.416 95.5018 26.416C97.2458 26.416 98.2698 25.696 98.5738 24.256H100.662C100.534 25.488 100.014 26.472 99.1018 27.208C98.1898 27.928 96.9898 28.288 95.5018 28.288ZM108.375 28.288C106.615 28.288 105.215 27.736 104.175 26.632C103.135 25.512 102.615 24.12 102.615 22.456C102.615 20.792 103.135 19.408 104.175 18.304C105.215 17.2 106.615 16.648 108.375 16.648C110.119 16.648 111.511 17.208 112.551 18.328C113.607 19.432 114.135 20.808 114.135 22.456C114.135 24.12 113.607 25.512 112.551 26.632C111.511 27.736 110.119 28.288 108.375 28.288ZM105.663 25.312C106.335 26.048 107.239 26.416 108.375 26.416C109.511 26.416 110.407 26.048 111.063 25.312C111.719 24.56 112.047 23.608 112.047 22.456C112.047 21.32 111.719 20.384 111.063 19.648C110.407 18.896 109.511 18.52 108.375 18.52C107.239 18.52 106.335 18.896 105.663 19.648C105.007 20.384 104.679 21.328 104.679 22.48C104.679 23.616 105.007 24.56 105.663 25.312ZM116.839 28V16.936H118.927V19.456C119.135 18.576 119.543 17.912 120.151 17.464C120.759 17 121.431 16.768 122.167 16.768C122.599 16.768 122.935 16.8 123.175 16.864V18.784C122.935 18.736 122.591 18.712 122.143 18.712C121.103 18.712 120.303 19.128 119.743 19.96C119.199 20.792 118.927 21.856 118.927 23.152V28H116.839ZM133.538 11.2H135.626V28H133.562V26.056C133.21 26.728 132.674 27.272 131.954 27.688C131.234 28.088 130.458 28.288 129.626 28.288C127.914 28.288 126.57 27.744 125.594 26.656C124.634 25.568 124.154 24.176 124.154 22.48C124.154 20.8 124.65 19.408 125.642 18.304C126.65 17.2 127.994 16.648 129.674 16.648C130.538 16.648 131.314 16.848 132.002 17.248C132.69 17.648 133.21 18.192 133.562 18.88V17.728H133.538V11.2ZM129.914 26.416C131.082 26.416 131.994 26.04 132.65 25.288C133.322 24.52 133.658 23.584 133.658 22.48C133.658 21.36 133.322 20.424 132.65 19.672C131.994 18.904 131.082 18.52 129.914 18.52C128.794 18.52 127.898 18.896 127.226 19.648C126.554 20.384 126.218 21.328 126.218 22.48C126.218 23.632 126.554 24.576 127.226 25.312C127.898 26.048 128.794 26.416 129.914 26.416Z" fill="#CD4B99"/>
<path d="M57.92 28V11.2H63.272C65.928 11.2 68.016 12.024 69.536 13.672C71.056 15.32 71.816 17.296 71.816 19.6C71.816 21.904 71.056 23.88 69.536 25.528C68.016 27.176 65.928 28 63.272 28H57.92ZM60.104 26.032H63.104C65.168 26.032 66.76 25.4 67.88 24.136C69 22.872 69.56 21.36 69.56 19.6C69.56 17.824 69 16.312 67.88 15.064C66.76 13.8 65.168 13.168 63.104 13.168H60.104V26.032ZM75.4498 15.04C74.9538 15.04 74.5458 14.88 74.2258 14.56C73.9058 14.24 73.7458 13.84 73.7458 13.36C73.7458 12.88 73.9058 12.48 74.2258 12.16C74.5458 11.824 74.9538 11.656 75.4498 11.656C75.9298 11.656 76.3298 11.824 76.6498 12.16C76.9698 12.48 77.1298 12.88 77.1298 13.36C77.1298 13.84 76.9698 14.24 76.6498 14.56C76.3298 14.88 75.9298 15.04 75.4498 15.04ZM74.3938 28V16.936H76.4818V28H74.3938ZM83.8091 28.288C82.4171 28.288 81.2971 27.944 80.4491 27.256C79.6171 26.552 79.2011 25.696 79.2011 24.688H81.2651C81.2651 25.248 81.5051 25.712 81.9851 26.08C82.4651 26.432 83.1051 26.608 83.9051 26.608C84.5291 26.608 85.0251 26.464 85.3931 26.176C85.7611 25.888 85.9451 25.496 85.9451 25C85.9451 24.216 85.5851 23.736 84.8651 23.56L81.9131 22.792C80.3291 22.36 79.5371 21.368 79.5371 19.816C79.5371 18.904 79.9211 18.152 80.6891 17.56C81.4571 16.952 82.4571 16.648 83.6891 16.648C85.0331 16.648 86.0731 16.96 86.8091 17.584C87.5611 18.192 87.9371 18.992 87.9371 19.984H85.8731C85.8731 19.456 85.6731 19.04 85.2731 18.736C84.8731 18.416 84.3131 18.256 83.5931 18.256C83.0171 18.256 82.5371 18.392 82.1531 18.664C81.7851 18.92 81.6011 19.272 81.6011 19.72C81.6011 20.472 82.0091 20.944 82.8251 21.136L85.5851 21.904C86.3691 22.112 86.9771 22.48 87.4091 23.008C87.8411 23.536 88.0571 24.136 88.0571 24.808C88.0571 25.864 87.6811 26.712 86.9291 27.352C86.1771 27.976 85.1371 28.288 83.8091 28.288ZM95.5018 28.288C93.8218 28.288 92.4858 27.76 91.4938 26.704C90.5018 25.632 90.0058 24.224 90.0058 22.48C90.0058 20.736 90.5018 19.336 91.4938 18.28C92.4858 17.208 93.8218 16.672 95.5018 16.672C96.9898 16.672 98.1898 17.048 99.1018 17.8C100.014 18.536 100.534 19.528 100.662 20.776H98.5738C98.2858 19.288 97.2618 18.544 95.5018 18.544C94.4298 18.544 93.5898 18.896 92.9818 19.6C92.3738 20.288 92.0698 21.248 92.0698 22.48C92.0698 23.712 92.3738 24.68 92.9818 25.384C93.5898 26.072 94.4298 26.416 95.5018 26.416C97.2458 26.416 98.2698 25.696 98.5738 24.256H100.662C100.534 25.488 100.014 26.472 99.1018 27.208C98.1898 27.928 96.9898 28.288 95.5018 28.288ZM108.375 28.288C106.615 28.288 105.215 27.736 104.175 26.632C103.135 25.512 102.615 24.12 102.615 22.456C102.615 20.792 103.135 19.408 104.175 18.304C105.215 17.2 106.615 16.648 108.375 16.648C110.119 16.648 111.511 17.208 112.551 18.328C113.607 19.432 114.135 20.808 114.135 22.456C114.135 24.12 113.607 25.512 112.551 26.632C111.511 27.736 110.119 28.288 108.375 28.288ZM105.663 25.312C106.335 26.048 107.239 26.416 108.375 26.416C109.511 26.416 110.407 26.048 111.063 25.312C111.719 24.56 112.047 23.608 112.047 22.456C112.047 21.32 111.719 20.384 111.063 19.648C110.407 18.896 109.511 18.52 108.375 18.52C107.239 18.52 106.335 18.896 105.663 19.648C105.007 20.384 104.679 21.328 104.679 22.48C104.679 23.616 105.007 24.56 105.663 25.312ZM116.839 28V16.936H118.927V19.456C119.135 18.576 119.543 17.912 120.151 17.464C120.759 17 121.431 16.768 122.167 16.768C122.599 16.768 122.935 16.8 123.175 16.864V18.784C122.935 18.736 122.591 18.712 122.143 18.712C121.103 18.712 120.303 19.128 119.743 19.96C119.199 20.792 118.927 21.856 118.927 23.152V28H116.839ZM133.538 11.2H135.626V28H133.562V26.056C133.21 26.728 132.674 27.272 131.954 27.688C131.234 28.088 130.458 28.288 129.626 28.288C127.914 28.288 126.57 27.744 125.594 26.656C124.634 25.568 124.154 24.176 124.154 22.48C124.154 20.8 124.65 19.408 125.642 18.304C126.65 17.2 127.994 16.648 129.674 16.648C130.538 16.648 131.314 16.848 132.002 17.248C132.69 17.648 133.21 18.192 133.562 18.88V17.728H133.538V11.2ZM129.914 26.416C131.082 26.416 131.994 26.04 132.65 25.288C133.322 24.52 133.658 23.584 133.658 22.48C133.658 21.36 133.322 20.424 132.65 19.672C131.994 18.904 131.082 18.52 129.914 18.52C128.794 18.52 127.898 18.896 127.226 19.648C126.554 20.384 126.218 21.328 126.218 22.48C126.218 23.632 126.554 24.576 127.226 25.312C127.898 26.048 128.794 26.416 129.914 26.416Z" fill="#CD4B99"/>
</svg>
