<svg width="155" height="40" viewBox="0 0 155 40" fill="none" xmlns="http://www.w3.org/2000/svg">
<path d="M16.4131 24.975L15.8617 32.7307C16.6506 32.7307 16.9923 32.3919 17.402 31.9849L21.1007 28.45L28.7648 34.0626C30.1703 34.846 31.1606 34.4335 31.54 32.7695L36.5705 9.19678L36.5719 9.19539C37.0177 7.11757 35.8204 6.30504 34.451 6.81478L4.88088 18.1359C2.86278 18.9193 2.89333 20.0443 4.53782 20.554L12.0977 22.9055L29.6578 11.9177C30.4842 11.3704 31.2357 11.6732 30.6176 12.2205L16.4131 24.975Z" fill="#CD4B99"/>
<path d="M61.16 28V13.264H56.144V11.2H68.36V13.264H63.344V28H61.16ZM78.4441 21.832C78.4441 22.136 78.4201 22.552 78.3721 23.08H69.8041C69.8201 24.136 70.1401 24.968 70.7641 25.576C71.3881 26.168 72.2281 26.464 73.2841 26.464C74.7561 26.464 75.7321 25.92 76.2121 24.832H78.3001C78.1081 25.856 77.5481 26.688 76.6201 27.328C75.6921 27.968 74.5801 28.288 73.2841 28.288C71.5881 28.288 70.2361 27.768 69.2281 26.728C68.2361 25.672 67.7401 24.248 67.7401 22.456C67.7401 20.696 68.2361 19.288 69.2281 18.232C70.2201 17.176 71.5401 16.648 73.1881 16.648C74.7561 16.648 76.0201 17.128 76.9801 18.088C77.9561 19.048 78.4441 20.296 78.4441 21.832ZM69.8041 21.472H76.3801C76.3801 20.496 76.0921 19.728 75.5161 19.168C74.9561 18.608 74.1721 18.328 73.1641 18.328C72.1721 18.328 71.3721 18.616 70.7641 19.192C70.1721 19.768 69.8521 20.528 69.8041 21.472ZM81.1438 28V11.2H83.2318V28H81.1438ZM96.6551 21.832C96.6551 22.136 96.6311 22.552 96.5831 23.08H88.0151C88.0311 24.136 88.3511 24.968 88.9751 25.576C89.5991 26.168 90.4391 26.464 91.4951 26.464C92.9671 26.464 93.9431 25.92 94.4231 24.832H96.5111C96.3191 25.856 95.7591 26.688 94.8311 27.328C93.9031 27.968 92.7911 28.288 91.4951 28.288C89.7991 28.288 88.4471 27.768 87.4391 26.728C86.4471 25.672 85.9511 24.248 85.9511 22.456C85.9511 20.696 86.4471 19.288 87.4391 18.232C88.4311 17.176 89.7511 16.648 91.3991 16.648C92.9671 16.648 94.2311 17.128 95.1911 18.088C96.1671 19.048 96.6551 20.296 96.6551 21.832ZM88.0151 21.472H94.5911C94.5911 20.496 94.3031 19.728 93.7271 19.168C93.1671 18.608 92.3831 18.328 91.3751 18.328C90.3831 18.328 89.5831 18.616 88.9751 19.192C88.3831 19.768 88.0631 20.528 88.0151 21.472ZM108.062 16.936H110.126V27.712C110.126 29.824 109.486 31.376 108.206 32.368C107.278 33.056 106.006 33.4 104.39 33.4C102.774 33.4 101.47 33.04 100.478 32.32C99.4222 31.584 98.8702 30.608 98.8222 29.392H101.006C101.102 30.064 101.43 30.608 101.99 31.024C102.566 31.44 103.366 31.648 104.39 31.648C106.838 31.648 108.062 30.384 108.062 27.856V26.056C107.726 26.744 107.19 27.288 106.454 27.688C105.718 28.088 104.942 28.288 104.126 28.288C102.462 28.288 101.134 27.736 100.142 26.632C99.1502 25.528 98.6542 24.144 98.6542 22.48C98.6542 20.816 99.1662 19.432 100.19 18.328C101.23 17.208 102.558 16.648 104.174 16.648C105.022 16.648 105.79 16.848 106.478 17.248C107.182 17.648 107.71 18.192 108.062 18.88V16.936ZM104.414 26.416C105.55 26.416 106.454 26.04 107.126 25.288C107.814 24.536 108.158 23.6 108.158 22.48C108.158 21.36 107.814 20.424 107.126 19.672C106.454 18.904 105.55 18.52 104.414 18.52C103.326 18.52 102.438 18.896 101.75 19.648C101.062 20.384 100.718 21.328 100.718 22.48C100.718 23.616 101.062 24.56 101.75 25.312C102.438 26.048 103.326 26.416 104.414 26.416ZM113.722 28V16.936H115.81V19.456C116.018 18.576 116.426 17.912 117.034 17.464C117.642 17 118.314 16.768 119.05 16.768C119.482 16.768 119.818 16.8 120.058 16.864V18.784C119.818 18.736 119.474 18.712 119.026 18.712C117.986 18.712 117.186 19.128 116.626 19.96C116.082 20.792 115.81 21.856 115.81 23.152V28H113.722ZM126.509 28.288C124.797 28.288 123.453 27.744 122.477 26.656C121.517 25.568 121.037 24.176 121.037 22.48C121.037 20.8 121.533 19.408 122.525 18.304C123.533 17.2 124.877 16.648 126.557 16.648C127.421 16.648 128.197 16.848 128.885 17.248C129.573 17.648 130.093 18.192 130.445 18.88V16.936H132.509V28H130.445V26.056C130.093 26.728 129.557 27.272 128.837 27.688C128.117 28.088 127.341 28.288 126.509 28.288ZM126.797 26.416C127.965 26.416 128.877 26.04 129.533 25.288C130.205 24.52 130.541 23.584 130.541 22.48C130.541 21.36 130.205 20.424 129.533 19.672C128.877 18.904 127.965 18.52 126.797 18.52C125.677 18.52 124.781 18.896 124.109 19.648C123.437 20.384 123.101 21.328 123.101 22.48C123.101 23.632 123.437 24.576 124.109 25.312C124.781 26.048 125.677 26.416 126.797 26.416ZM136.105 28V16.936H138.193V18.952C138.417 18.296 138.817 17.752 139.393 17.32C139.969 16.872 140.673 16.648 141.505 16.648C143.409 16.648 144.593 17.44 145.057 19.024C145.313 18.336 145.761 17.768 146.401 17.32C147.041 16.872 147.777 16.648 148.609 16.648C151.265 16.648 152.593 18.096 152.593 20.992V28H150.505V21.4C150.505 19.432 149.705 18.448 148.105 18.448C146.297 18.448 145.393 19.712 145.393 22.24V28H143.305V21.544C143.305 19.48 142.513 18.448 140.929 18.448C140.065 18.448 139.393 18.768 138.913 19.408C138.433 20.032 138.193 20.976 138.193 22.24V28H136.105Z" fill="#CD4B99"/>
<path d="M61.16 28V13.264H56.144V11.2H68.36V13.264H63.344V28H61.16ZM78.4441 21.832C78.4441 22.136 78.4201 22.552 78.3721 23.08H69.8041C69.8201 24.136 70.1401 24.968 70.7641 25.576C71.3881 26.168 72.2281 26.464 73.2841 26.464C74.7561 26.464 75.7321 25.92 76.2121 24.832H78.3001C78.1081 25.856 77.5481 26.688 76.6201 27.328C75.6921 27.968 74.5801 28.288 73.2841 28.288C71.5881 28.288 70.2361 27.768 69.2281 26.728C68.2361 25.672 67.7401 24.248 67.7401 22.456C67.7401 20.696 68.2361 19.288 69.2281 18.232C70.2201 17.176 71.5401 16.648 73.1881 16.648C74.7561 16.648 76.0201 17.128 76.9801 18.088C77.9561 19.048 78.4441 20.296 78.4441 21.832ZM69.8041 21.472H76.3801C76.3801 20.496 76.0921 19.728 75.5161 19.168C74.9561 18.608 74.1721 18.328 73.1641 18.328C72.1721 18.328 71.3721 18.616 70.7641 19.192C70.1721 19.768 69.8521 20.528 69.8041 21.472ZM81.1438 28V11.2H83.2318V28H81.1438ZM96.6551 21.832C96.6551 22.136 96.6311 22.552 96.5831 23.08H88.0151C88.0311 24.136 88.3511 24.968 88.9751 25.576C89.5991 26.168 90.4391 26.464 91.4951 26.464C92.9671 26.464 93.9431 25.92 94.4231 24.832H96.5111C96.3191 25.856 95.7591 26.688 94.8311 27.328C93.9031 27.968 92.7911 28.288 91.4951 28.288C89.7991 28.288 88.4471 27.768 87.4391 26.728C86.4471 25.672 85.9511 24.248 85.9511 22.456C85.9511 20.696 86.4471 19.288 87.4391 18.232C88.4311 17.176 89.7511 16.648 91.3991 16.648C92.9671 16.648 94.2311 17.128 95.1911 18.088C96.1671 19.048 96.6551 20.296 96.6551 21.832ZM88.0151 21.472H94.5911C94.5911 20.496 94.3031 19.728 93.7271 19.168C93.1671 18.608 92.3831 18.328 91.3751 18.328C90.3831 18.328 89.5831 18.616 88.9751 19.192C88.3831 19.768 88.0631 20.528 88.0151 21.472ZM108.062 16.936H110.126V27.712C110.126 29.824 109.486 31.376 108.206 32.368C107.278 33.056 106.006 33.4 104.39 33.4C102.774 33.4 101.47 33.04 100.478 32.32C99.4222 31.584 98.8702 30.608 98.8222 29.392H101.006C101.102 30.064 101.43 30.608 101.99 31.024C102.566 31.44 103.366 31.648 104.39 31.648C106.838 31.648 108.062 30.384 108.062 27.856V26.056C107.726 26.744 107.19 27.288 106.454 27.688C105.718 28.088 104.942 28.288 104.126 28.288C102.462 28.288 101.134 27.736 100.142 26.632C99.1502 25.528 98.6542 24.144 98.6542 22.48C98.6542 20.816 99.1662 19.432 100.19 18.328C101.23 17.208 102.558 16.648 104.174 16.648C105.022 16.648 105.79 16.848 106.478 17.248C107.182 17.648 107.71 18.192 108.062 18.88V16.936ZM104.414 26.416C105.55 26.416 106.454 26.04 107.126 25.288C107.814 24.536 108.158 23.6 108.158 22.48C108.158 21.36 107.814 20.424 107.126 19.672C106.454 18.904 105.55 18.52 104.414 18.52C103.326 18.52 102.438 18.896 101.75 19.648C101.062 20.384 100.718 21.328 100.718 22.48C100.718 23.616 101.062 24.56 101.75 25.312C102.438 26.048 103.326 26.416 104.414 26.416ZM113.722 28V16.936H115.81V19.456C116.018 18.576 116.426 17.912 117.034 17.464C117.642 17 118.314 16.768 119.05 16.768C119.482 16.768 119.818 16.8 120.058 16.864V18.784C119.818 18.736 119.474 18.712 119.026 18.712C117.986 18.712 117.186 19.128 116.626 19.96C116.082 20.792 115.81 21.856 115.81 23.152V28H113.722ZM126.509 28.288C124.797 28.288 123.453 27.744 122.477 26.656C121.517 25.568 121.037 24.176 121.037 22.48C121.037 20.8 121.533 19.408 122.525 18.304C123.533 17.2 124.877 16.648 126.557 16.648C127.421 16.648 128.197 16.848 128.885 17.248C129.573 17.648 130.093 18.192 130.445 18.88V16.936H132.509V28H130.445V26.056C130.093 26.728 129.557 27.272 128.837 27.688C128.117 28.088 127.341 28.288 126.509 28.288ZM126.797 26.416C127.965 26.416 128.877 26.04 129.533 25.288C130.205 24.52 130.541 23.584 130.541 22.48C130.541 21.36 130.205 20.424 129.533 19.672C128.877 18.904 127.965 18.52 126.797 18.52C125.677 18.52 124.781 18.896 124.109 19.648C123.437 20.384 123.101 21.328 123.101 22.48C123.101 23.632 123.437 24.576 124.109 25.312C124.781 26.048 125.677 26.416 126.797 26.416ZM136.105 28V16.936H138.193V18.952C138.417 18.296 138.817 17.752 139.393 17.32C139.969 16.872 140.673 16.648 141.505 16.648C143.409 16.648 144.593 17.44 145.057 19.024C145.313 18.336 145.761 17.768 146.401 17.32C147.041 16.872 147.777 16.648 148.609 16.648C151.265 16.648 152.593 18.096 152.593 20.992V28H150.505V21.4C150.505 19.432 149.705 18.448 148.105 18.448C146.297 18.448 145.393 19.712 145.393 22.24V28H143.305V21.544C143.305 19.48 142.513 18.448 140.929 18.448C140.065 18.448 139.393 18.768 138.913 19.408C138.433 20.032 138.193 20.976 138.193 22.24V28H136.105Z" fill="#CD4B99"/>
</svg>
