<svg width="129" height="40" viewBox="0 0 129 40" fill="none" xmlns="http://www.w3.org/2000/svg">
<path d="M14.4377 32.7089C25.7557 32.7089 31.9479 23.3298 31.9479 15.1988C31.9479 14.9351 31.942 14.6655 31.9303 14.4019C33.1348 13.5308 34.1744 12.4517 35 11.2155C33.8782 11.7147 32.6871 12.0407 31.4674 12.1823C32.7516 11.4126 33.7132 10.2033 34.1738 8.77863C32.9657 9.49462 31.6445 9.99969 30.2668 10.2722C29.3385 9.28587 28.1112 8.63282 26.7746 8.41399C25.438 8.19516 24.0665 8.42274 22.8722 9.06154C21.6779 9.70035 20.7273 10.7148 20.1673 11.9481C19.6074 13.1813 19.4693 14.5647 19.7744 15.8843C17.3281 15.7615 14.9349 15.1261 12.75 14.019C10.565 12.912 8.63712 11.3582 7.09121 9.45832C6.3055 10.813 6.06507 12.416 6.41879 13.9415C6.77251 15.4671 7.69383 16.8007 8.99551 17.6714C8.01829 17.6404 7.06247 17.3773 6.20703 16.9038V16.98C6.20616 18.4016 6.69762 19.7797 7.59789 20.8799C8.49815 21.9801 9.75165 22.7346 11.1453 23.0152C10.2401 23.2628 9.28998 23.2989 8.36855 23.1206C8.76182 24.3432 9.52697 25.4125 10.5572 26.1793C11.5875 26.9461 12.8314 27.3722 14.1154 27.398C11.9355 29.1103 9.24272 30.0391 6.4707 30.0347C5.97911 30.0339 5.488 30.0038 5 29.9445C7.81607 31.7511 11.0919 32.7107 14.4377 32.7089Z" fill="#CD4B99"/>
<path d="M61.16 28V13.264H56.144V11.2H68.36V13.264H63.344V28H61.16ZM71.4048 28L67.3248 16.936H69.6048L72.2688 25L74.9568 16.936H77.1888L79.8768 25L82.5408 16.936H84.8448L80.7408 28H78.9648L76.0608 19.504L73.1808 28H71.4048ZM87.8716 15.04C87.3756 15.04 86.9676 14.88 86.6476 14.56C86.3276 14.24 86.1676 13.84 86.1676 13.36C86.1676 12.88 86.3276 12.48 86.6476 12.16C86.9676 11.824 87.3756 11.656 87.8716 11.656C88.3516 11.656 88.7516 11.824 89.0716 12.16C89.3916 12.48 89.5516 12.88 89.5516 13.36C89.5516 13.84 89.3916 14.24 89.0716 14.56C88.7516 14.88 88.3516 15.04 87.8716 15.04ZM86.8156 28V16.936H88.9036V28H86.8156ZM97.1429 26.248C97.7189 26.248 98.1829 26.208 98.5349 26.128V27.976C98.0549 28.088 97.4389 28.144 96.6869 28.144C96.3509 28.144 96.0549 28.128 95.7989 28.096C95.5589 28.064 95.2709 27.976 94.9349 27.832C94.5989 27.688 94.3189 27.488 94.0949 27.232C93.8709 26.96 93.6789 26.584 93.5189 26.104C93.3589 25.608 93.2789 25.016 93.2789 24.328V18.688H91.2869V16.936H93.2789V13.432H95.3669V16.936H98.1509V18.688H95.3669V23.872C95.3669 24.848 95.5109 25.488 95.7989 25.792C96.0869 26.096 96.5349 26.248 97.1429 26.248ZM105.698 26.248C106.274 26.248 106.738 26.208 107.09 26.128V27.976C106.61 28.088 105.994 28.144 105.242 28.144C104.906 28.144 104.61 28.128 104.354 28.096C104.114 28.064 103.826 27.976 103.49 27.832C103.154 27.688 102.874 27.488 102.65 27.232C102.426 26.96 102.234 26.584 102.074 26.104C101.914 25.608 101.834 25.016 101.834 24.328V18.688H99.8416V16.936H101.834V13.432H103.922V16.936H106.706V18.688H103.922V23.872C103.922 24.848 104.066 25.488 104.354 25.792C104.642 26.096 105.09 26.248 105.698 26.248ZM119.296 21.832C119.296 22.136 119.272 22.552 119.224 23.08H110.656C110.672 24.136 110.992 24.968 111.616 25.576C112.24 26.168 113.08 26.464 114.136 26.464C115.608 26.464 116.584 25.92 117.064 24.832H119.152C118.96 25.856 118.4 26.688 117.472 27.328C116.544 27.968 115.432 28.288 114.136 28.288C112.44 28.288 111.088 27.768 110.08 26.728C109.088 25.672 108.592 24.248 108.592 22.456C108.592 20.696 109.088 19.288 110.08 18.232C111.072 17.176 112.392 16.648 114.04 16.648C115.608 16.648 116.872 17.128 117.832 18.088C118.808 19.048 119.296 20.296 119.296 21.832ZM110.656 21.472H117.232C117.232 20.496 116.944 19.728 116.368 19.168C115.808 18.608 115.024 18.328 114.016 18.328C113.024 18.328 112.224 18.616 111.616 19.192C111.024 19.768 110.704 20.528 110.656 21.472ZM121.995 28V16.936H124.083V19.456C124.291 18.576 124.699 17.912 125.307 17.464C125.915 17 126.587 16.768 127.323 16.768C127.755 16.768 128.091 16.8 128.331 16.864V18.784C128.091 18.736 127.747 18.712 127.299 18.712C126.259 18.712 125.459 19.128 124.899 19.96C124.355 20.792 124.083 21.856 124.083 23.152V28H121.995Z" fill="#CD4B99"/>
<path d="M61.16 28V13.264H56.144V11.2H68.36V13.264H63.344V28H61.16ZM71.4048 28L67.3248 16.936H69.6048L72.2688 25L74.9568 16.936H77.1888L79.8768 25L82.5408 16.936H84.8448L80.7408 28H78.9648L76.0608 19.504L73.1808 28H71.4048ZM87.8716 15.04C87.3756 15.04 86.9676 14.88 86.6476 14.56C86.3276 14.24 86.1676 13.84 86.1676 13.36C86.1676 12.88 86.3276 12.48 86.6476 12.16C86.9676 11.824 87.3756 11.656 87.8716 11.656C88.3516 11.656 88.7516 11.824 89.0716 12.16C89.3916 12.48 89.5516 12.88 89.5516 13.36C89.5516 13.84 89.3916 14.24 89.0716 14.56C88.7516 14.88 88.3516 15.04 87.8716 15.04ZM86.8156 28V16.936H88.9036V28H86.8156ZM97.1429 26.248C97.7189 26.248 98.1829 26.208 98.5349 26.128V27.976C98.0549 28.088 97.4389 28.144 96.6869 28.144C96.3509 28.144 96.0549 28.128 95.7989 28.096C95.5589 28.064 95.2709 27.976 94.9349 27.832C94.5989 27.688 94.3189 27.488 94.0949 27.232C93.8709 26.96 93.6789 26.584 93.5189 26.104C93.3589 25.608 93.2789 25.016 93.2789 24.328V18.688H91.2869V16.936H93.2789V13.432H95.3669V16.936H98.1509V18.688H95.3669V23.872C95.3669 24.848 95.5109 25.488 95.7989 25.792C96.0869 26.096 96.5349 26.248 97.1429 26.248ZM105.698 26.248C106.274 26.248 106.738 26.208 107.09 26.128V27.976C106.61 28.088 105.994 28.144 105.242 28.144C104.906 28.144 104.61 28.128 104.354 28.096C104.114 28.064 103.826 27.976 103.49 27.832C103.154 27.688 102.874 27.488 102.65 27.232C102.426 26.96 102.234 26.584 102.074 26.104C101.914 25.608 101.834 25.016 101.834 24.328V18.688H99.8416V16.936H101.834V13.432H103.922V16.936H106.706V18.688H103.922V23.872C103.922 24.848 104.066 25.488 104.354 25.792C104.642 26.096 105.09 26.248 105.698 26.248ZM119.296 21.832C119.296 22.136 119.272 22.552 119.224 23.08H110.656C110.672 24.136 110.992 24.968 111.616 25.576C112.24 26.168 113.08 26.464 114.136 26.464C115.608 26.464 116.584 25.92 117.064 24.832H119.152C118.96 25.856 118.4 26.688 117.472 27.328C116.544 27.968 115.432 28.288 114.136 28.288C112.44 28.288 111.088 27.768 110.08 26.728C109.088 25.672 108.592 24.248 108.592 22.456C108.592 20.696 109.088 19.288 110.08 18.232C111.072 17.176 112.392 16.648 114.04 16.648C115.608 16.648 116.872 17.128 117.832 18.088C118.808 19.048 119.296 20.296 119.296 21.832ZM110.656 21.472H117.232C117.232 20.496 116.944 19.728 116.368 19.168C115.808 18.608 115.024 18.328 114.016 18.328C113.024 18.328 112.224 18.616 111.616 19.192C111.024 19.768 110.704 20.528 110.656 21.472ZM121.995 28V16.936H124.083V19.456C124.291 18.576 124.699 17.912 125.307 17.464C125.915 17 126.587 16.768 127.323 16.768C127.755 16.768 128.091 16.8 128.331 16.864V18.784C128.091 18.736 127.747 18.712 127.299 18.712C126.259 18.712 125.459 19.128 124.899 19.96C124.355 20.792 124.083 21.856 124.083 23.152V28H121.995Z" fill="#CD4B99"/>
</svg>
