<svg width="134" height="40" viewBox="0 0 134 40" fill="none" xmlns="http://www.w3.org/2000/svg">
<path fill-rule="evenodd" clip-rule="evenodd" d="M20 1.66699C9.87079 1.66699 1.66663 9.87116 1.66663 20.0003C1.66663 28.1128 6.91454 34.9649 14.202 37.3941C15.1187 37.5545 15.4625 37.0045 15.4625 36.5232C15.4625 36.0878 15.4395 34.6441 15.4395 33.1087C10.8333 33.9566 9.64163 31.9857 9.27496 30.9545C9.06871 30.4274 8.17496 28.8003 7.39579 28.3649C6.75413 28.0212 5.83746 27.1732 7.37288 27.1503C8.81663 27.1274 9.84788 28.4795 10.1916 29.0295C11.8416 31.8024 14.477 31.0232 15.5312 30.542C15.6916 29.3503 16.1729 28.5482 16.7 28.0899C12.6208 27.6316 8.35829 26.0503 8.35829 19.0378C8.35829 17.0441 9.06871 15.3941 10.2375 14.1107C10.0541 13.6524 9.41246 11.7732 10.4208 9.25241C10.4208 9.25241 11.9562 8.77116 15.4625 11.1316C16.9291 10.7191 18.4875 10.5128 20.0458 10.5128C21.6041 10.5128 23.1625 10.7191 24.6291 11.1316C28.1354 8.74824 29.6708 9.25241 29.6708 9.25241C30.6791 11.7732 30.0375 13.6524 29.8541 14.1107C31.0229 15.3941 31.7333 17.0212 31.7333 19.0378C31.7333 26.0732 27.4479 27.6316 23.3687 28.0899C24.0333 28.6628 24.6062 29.7628 24.6062 31.4816C24.6062 33.9337 24.5833 35.9045 24.5833 36.5232C24.5833 37.0045 24.927 37.5774 25.8437 37.3941C33.0854 34.9649 38.3333 28.0899 38.3333 20.0003C38.3333 9.87116 30.1291 1.66699 20 1.66699Z" fill="#CD4B99"/>
<path d="M75.368 19.84V21.808H73.52C73.152 23.84 72.28 25.448 70.904 26.632C69.528 27.8 67.736 28.384 65.528 28.384C62.904 28.384 60.808 27.56 59.24 25.912C57.672 24.264 56.896 22.192 56.912 19.696C56.912 17.184 57.68 15.08 59.216 13.384C60.768 11.672 62.912 10.816 65.648 10.816C67.584 10.816 69.216 11.304 70.544 12.28C71.872 13.256 72.648 14.496 72.872 16H70.472C70.232 15.04 69.68 14.264 68.816 13.672C67.968 13.08 66.912 12.784 65.648 12.784C63.568 12.784 61.968 13.432 60.848 14.728C59.744 16.024 59.192 17.68 59.192 19.696C59.192 21.616 59.76 23.216 60.896 24.496C62.048 25.776 63.592 26.416 65.528 26.416C67.096 26.416 68.36 26.024 69.32 25.24C70.296 24.44 70.936 23.296 71.24 21.808H67.16V19.84H75.368ZM78.7544 15.04C78.2584 15.04 77.8504 14.88 77.5304 14.56C77.2104 14.24 77.0504 13.84 77.0504 13.36C77.0504 12.88 77.2104 12.48 77.5304 12.16C77.8504 11.824 78.2584 11.656 78.7544 11.656C79.2344 11.656 79.6344 11.824 79.9544 12.16C80.2744 12.48 80.4344 12.88 80.4344 13.36C80.4344 13.84 80.2744 14.24 79.9544 14.56C79.6344 14.88 79.2344 15.04 78.7544 15.04ZM77.6984 28V16.936H79.7864V28H77.6984ZM88.0258 26.248C88.6018 26.248 89.0658 26.208 89.4178 26.128V27.976C88.9378 28.088 88.3218 28.144 87.5698 28.144C87.2338 28.144 86.9378 28.128 86.6818 28.096C86.4418 28.064 86.1538 27.976 85.8178 27.832C85.4818 27.688 85.2018 27.488 84.9778 27.232C84.7538 26.96 84.5618 26.584 84.4018 26.104C84.2418 25.608 84.1618 25.016 84.1618 24.328V18.688H82.1698V16.936H84.1618V13.432H86.2498V16.936H89.0338V18.688H86.2498V23.872C86.2498 24.848 86.3938 25.488 86.6818 25.792C86.9698 26.096 87.4178 26.248 88.0258 26.248ZM92.0684 28V11.2H94.2524V18.664H102.076V11.2H104.26V28H102.076V20.632H94.2524V28H92.0684ZM112.06 28.288C110.78 28.288 109.756 27.904 108.988 27.136C108.236 26.352 107.86 25.224 107.86 23.752V16.936H109.948V23.248C109.948 25.408 110.844 26.488 112.636 26.488C113.692 26.488 114.476 26.152 114.988 25.48C115.516 24.792 115.78 23.96 115.78 22.984V16.936H117.868V28H115.78V25.984C115.476 26.688 114.996 27.248 114.34 27.664C113.7 28.08 112.94 28.288 112.06 28.288ZM127.6 16.648C129.184 16.648 130.472 17.192 131.464 18.28C132.456 19.352 132.952 20.752 132.952 22.48C132.952 24.176 132.44 25.568 131.416 26.656C130.392 27.744 129.08 28.288 127.48 28.288C126.632 28.288 125.848 28.088 125.128 27.688C124.424 27.288 123.896 26.744 123.544 26.056V28H121.456V11.2H123.544V18.88C123.896 18.192 124.432 17.648 125.152 17.248C125.888 16.848 126.704 16.648 127.6 16.648ZM127.192 26.416C128.264 26.416 129.144 26.048 129.832 25.312C130.52 24.576 130.864 23.632 130.864 22.48C130.864 21.328 130.52 20.384 129.832 19.648C129.144 18.896 128.264 18.52 127.192 18.52C126.088 18.52 125.184 18.888 124.48 19.624C123.792 20.36 123.448 21.312 123.448 22.48C123.448 23.632 123.792 24.576 124.48 25.312C125.184 26.048 126.088 26.416 127.192 26.416Z" fill="#CD4B99"/>
<path d="M75.368 19.84V21.808H73.52C73.152 23.84 72.28 25.448 70.904 26.632C69.528 27.8 67.736 28.384 65.528 28.384C62.904 28.384 60.808 27.56 59.24 25.912C57.672 24.264 56.896 22.192 56.912 19.696C56.912 17.184 57.68 15.08 59.216 13.384C60.768 11.672 62.912 10.816 65.648 10.816C67.584 10.816 69.216 11.304 70.544 12.28C71.872 13.256 72.648 14.496 72.872 16H70.472C70.232 15.04 69.68 14.264 68.816 13.672C67.968 13.08 66.912 12.784 65.648 12.784C63.568 12.784 61.968 13.432 60.848 14.728C59.744 16.024 59.192 17.68 59.192 19.696C59.192 21.616 59.76 23.216 60.896 24.496C62.048 25.776 63.592 26.416 65.528 26.416C67.096 26.416 68.36 26.024 69.32 25.24C70.296 24.44 70.936 23.296 71.24 21.808H67.16V19.84H75.368ZM78.7544 15.04C78.2584 15.04 77.8504 14.88 77.5304 14.56C77.2104 14.24 77.0504 13.84 77.0504 13.36C77.0504 12.88 77.2104 12.48 77.5304 12.16C77.8504 11.824 78.2584 11.656 78.7544 11.656C79.2344 11.656 79.6344 11.824 79.9544 12.16C80.2744 12.48 80.4344 12.88 80.4344 13.36C80.4344 13.84 80.2744 14.24 79.9544 14.56C79.6344 14.88 79.2344 15.04 78.7544 15.04ZM77.6984 28V16.936H79.7864V28H77.6984ZM88.0258 26.248C88.6018 26.248 89.0658 26.208 89.4178 26.128V27.976C88.9378 28.088 88.3218 28.144 87.5698 28.144C87.2338 28.144 86.9378 28.128 86.6818 28.096C86.4418 28.064 86.1538 27.976 85.8178 27.832C85.4818 27.688 85.2018 27.488 84.9778 27.232C84.7538 26.96 84.5618 26.584 84.4018 26.104C84.2418 25.608 84.1618 25.016 84.1618 24.328V18.688H82.1698V16.936H84.1618V13.432H86.2498V16.936H89.0338V18.688H86.2498V23.872C86.2498 24.848 86.3938 25.488 86.6818 25.792C86.9698 26.096 87.4178 26.248 88.0258 26.248ZM92.0684 28V11.2H94.2524V18.664H102.076V11.2H104.26V28H102.076V20.632H94.2524V28H92.0684ZM112.06 28.288C110.78 28.288 109.756 27.904 108.988 27.136C108.236 26.352 107.86 25.224 107.86 23.752V16.936H109.948V23.248C109.948 25.408 110.844 26.488 112.636 26.488C113.692 26.488 114.476 26.152 114.988 25.48C115.516 24.792 115.78 23.96 115.78 22.984V16.936H117.868V28H115.78V25.984C115.476 26.688 114.996 27.248 114.34 27.664C113.7 28.08 112.94 28.288 112.06 28.288ZM127.6 16.648C129.184 16.648 130.472 17.192 131.464 18.28C132.456 19.352 132.952 20.752 132.952 22.48C132.952 24.176 132.44 25.568 131.416 26.656C130.392 27.744 129.08 28.288 127.48 28.288C126.632 28.288 125.848 28.088 125.128 27.688C124.424 27.288 123.896 26.744 123.544 26.056V28H121.456V11.2H123.544V18.88C123.896 18.192 124.432 17.648 125.152 17.248C125.888 16.848 126.704 16.648 127.6 16.648ZM127.192 26.416C128.264 26.416 129.144 26.048 129.832 25.312C130.52 24.576 130.864 23.632 130.864 22.48C130.864 21.328 130.52 20.384 129.832 19.648C129.144 18.896 128.264 18.52 127.192 18.52C126.088 18.52 125.184 18.888 124.48 19.624C123.792 20.36 123.448 21.312 123.448 22.48C123.448 23.632 123.792 24.576 124.48 25.312C125.184 26.048 126.088 26.416 127.192 26.416Z" fill="#CD4B99"/>
</svg>
