<svg width="145" height="40" viewBox="0 0 145 40" fill="none" xmlns="http://www.w3.org/2000/svg">
<path d="M37.9681 13.7273C37.9681 13.7273 37.61 11.2766 36.5071 10.2005C35.1106 8.78427 33.5494 8.77733 32.8333 8.69402C27.7057 8.33301 20.0071 8.33301 20.0071 8.33301H19.9928C19.9928 8.33301 12.2942 8.33301 7.16663 8.69402C6.45048 8.77733 4.88928 8.78427 3.4928 10.2005C2.38993 11.2766 2.03902 13.7273 2.03902 13.7273C2.03902 13.7273 1.66663 16.6085 1.66663 19.4827V22.1764C1.66663 25.0506 2.03186 27.9317 2.03186 27.9317C2.03186 27.9317 2.38993 30.3824 3.48564 31.4585C4.88212 32.8748 6.71545 32.8262 7.53186 32.9789C10.4681 33.2497 20 33.333 20 33.333C20 33.333 27.7057 33.3191 32.8333 32.9651C33.5494 32.8817 35.1106 32.8748 36.5071 31.4585C37.61 30.3824 37.9681 27.9317 37.9681 27.9317C37.9681 27.9317 38.3333 25.0575 38.3333 22.1764V19.4827C38.3333 16.6085 37.9681 13.7273 37.9681 13.7273ZM16.2115 25.4463V15.456L26.1158 20.4685L16.2115 25.4463Z" fill="#CD4B99"/>
<path d="M67.208 11.2H69.608L61.16 28H58.736L62.12 21.328L55.76 11.2H58.304L63.224 19.072L67.208 11.2ZM73.8048 28.288C72.0448 28.288 70.6448 27.736 69.6048 26.632C68.5648 25.512 68.0448 24.12 68.0448 22.456C68.0448 20.792 68.5648 19.408 69.6048 18.304C70.6448 17.2 72.0448 16.648 73.8048 16.648C75.5488 16.648 76.9408 17.208 77.9808 18.328C79.0368 19.432 79.5648 20.808 79.5648 22.456C79.5648 24.12 79.0368 25.512 77.9808 26.632C76.9408 27.736 75.5488 28.288 73.8048 28.288ZM71.0928 25.312C71.7648 26.048 72.6688 26.416 73.8048 26.416C74.9408 26.416 75.8368 26.048 76.4928 25.312C77.1488 24.56 77.4768 23.608 77.4768 22.456C77.4768 21.32 77.1488 20.384 76.4928 19.648C75.8368 18.896 74.9408 18.52 73.8048 18.52C72.6688 18.52 71.7648 18.896 71.0928 19.648C70.4368 20.384 70.1088 21.328 70.1088 22.48C70.1088 23.616 70.4368 24.56 71.0928 25.312ZM86.3488 28.288C85.0688 28.288 84.0448 27.904 83.2768 27.136C82.5248 26.352 82.1488 25.224 82.1488 23.752V16.936H84.2368V23.248C84.2368 25.408 85.1328 26.488 86.9248 26.488C87.9808 26.488 88.7648 26.152 89.2768 25.48C89.8048 24.792 90.0688 23.96 90.0688 22.984V16.936H92.1568V28H90.0688V25.984C89.7648 26.688 89.2848 27.248 88.6288 27.664C87.9888 28.08 87.2288 28.288 86.3488 28.288ZM98.7538 28V13.264H93.7378V11.2H105.954V13.264H100.938V28H98.7538ZM110.56 28.288C109.28 28.288 108.256 27.904 107.488 27.136C106.736 26.352 106.36 25.224 106.36 23.752V16.936H108.448V23.248C108.448 25.408 109.344 26.488 111.136 26.488C112.192 26.488 112.976 26.152 113.488 25.48C114.016 24.792 114.28 23.96 114.28 22.984V16.936H116.368V28H114.28V25.984C113.976 26.688 113.496 27.248 112.84 27.664C112.2 28.08 111.44 28.288 110.56 28.288ZM126.1 16.648C127.684 16.648 128.972 17.192 129.964 18.28C130.956 19.352 131.452 20.752 131.452 22.48C131.452 24.176 130.94 25.568 129.916 26.656C128.892 27.744 127.58 28.288 125.98 28.288C125.132 28.288 124.348 28.088 123.628 27.688C122.924 27.288 122.396 26.744 122.044 26.056V28H119.956V11.2H122.044V18.88C122.396 18.192 122.932 17.648 123.652 17.248C124.388 16.848 125.204 16.648 126.1 16.648ZM125.692 26.416C126.764 26.416 127.644 26.048 128.332 25.312C129.02 24.576 129.364 23.632 129.364 22.48C129.364 21.328 129.02 20.384 128.332 19.648C127.644 18.896 126.764 18.52 125.692 18.52C124.588 18.52 123.684 18.888 122.98 19.624C122.292 20.36 121.948 21.312 121.948 22.48C121.948 23.632 122.292 24.576 122.98 25.312C123.684 26.048 124.588 26.416 125.692 26.416ZM143.952 21.832C143.952 22.136 143.928 22.552 143.88 23.08H135.312C135.328 24.136 135.648 24.968 136.272 25.576C136.896 26.168 137.736 26.464 138.792 26.464C140.264 26.464 141.24 25.92 141.72 24.832H143.808C143.616 25.856 143.056 26.688 142.128 27.328C141.2 27.968 140.088 28.288 138.792 28.288C137.096 28.288 135.744 27.768 134.736 26.728C133.744 25.672 133.248 24.248 133.248 22.456C133.248 20.696 133.744 19.288 134.736 18.232C135.728 17.176 137.048 16.648 138.696 16.648C140.264 16.648 141.528 17.128 142.488 18.088C143.464 19.048 143.952 20.296 143.952 21.832ZM135.312 21.472H141.888C141.888 20.496 141.6 19.728 141.024 19.168C140.464 18.608 139.68 18.328 138.672 18.328C137.68 18.328 136.88 18.616 136.272 19.192C135.68 19.768 135.36 20.528 135.312 21.472Z" fill="#CD4B99"/>
<path d="M67.208 11.2H69.608L61.16 28H58.736L62.12 21.328L55.76 11.2H58.304L63.224 19.072L67.208 11.2ZM73.8048 28.288C72.0448 28.288 70.6448 27.736 69.6048 26.632C68.5648 25.512 68.0448 24.12 68.0448 22.456C68.0448 20.792 68.5648 19.408 69.6048 18.304C70.6448 17.2 72.0448 16.648 73.8048 16.648C75.5488 16.648 76.9408 17.208 77.9808 18.328C79.0368 19.432 79.5648 20.808 79.5648 22.456C79.5648 24.12 79.0368 25.512 77.9808 26.632C76.9408 27.736 75.5488 28.288 73.8048 28.288ZM71.0928 25.312C71.7648 26.048 72.6688 26.416 73.8048 26.416C74.9408 26.416 75.8368 26.048 76.4928 25.312C77.1488 24.56 77.4768 23.608 77.4768 22.456C77.4768 21.32 77.1488 20.384 76.4928 19.648C75.8368 18.896 74.9408 18.52 73.8048 18.52C72.6688 18.52 71.7648 18.896 71.0928 19.648C70.4368 20.384 70.1088 21.328 70.1088 22.48C70.1088 23.616 70.4368 24.56 71.0928 25.312ZM86.3488 28.288C85.0688 28.288 84.0448 27.904 83.2768 27.136C82.5248 26.352 82.1488 25.224 82.1488 23.752V16.936H84.2368V23.248C84.2368 25.408 85.1328 26.488 86.9248 26.488C87.9808 26.488 88.7648 26.152 89.2768 25.48C89.8048 24.792 90.0688 23.96 90.0688 22.984V16.936H92.1568V28H90.0688V25.984C89.7648 26.688 89.2848 27.248 88.6288 27.664C87.9888 28.08 87.2288 28.288 86.3488 28.288ZM98.7538 28V13.264H93.7378V11.2H105.954V13.264H100.938V28H98.7538ZM110.56 28.288C109.28 28.288 108.256 27.904 107.488 27.136C106.736 26.352 106.36 25.224 106.36 23.752V16.936H108.448V23.248C108.448 25.408 109.344 26.488 111.136 26.488C112.192 26.488 112.976 26.152 113.488 25.48C114.016 24.792 114.28 23.96 114.28 22.984V16.936H116.368V28H114.28V25.984C113.976 26.688 113.496 27.248 112.84 27.664C112.2 28.08 111.44 28.288 110.56 28.288ZM126.1 16.648C127.684 16.648 128.972 17.192 129.964 18.28C130.956 19.352 131.452 20.752 131.452 22.48C131.452 24.176 130.94 25.568 129.916 26.656C128.892 27.744 127.58 28.288 125.98 28.288C125.132 28.288 124.348 28.088 123.628 27.688C122.924 27.288 122.396 26.744 122.044 26.056V28H119.956V11.2H122.044V18.88C122.396 18.192 122.932 17.648 123.652 17.248C124.388 16.848 125.204 16.648 126.1 16.648ZM125.692 26.416C126.764 26.416 127.644 26.048 128.332 25.312C129.02 24.576 129.364 23.632 129.364 22.48C129.364 21.328 129.02 20.384 128.332 19.648C127.644 18.896 126.764 18.52 125.692 18.52C124.588 18.52 123.684 18.888 122.98 19.624C122.292 20.36 121.948 21.312 121.948 22.48C121.948 23.632 122.292 24.576 122.98 25.312C123.684 26.048 124.588 26.416 125.692 26.416ZM143.952 21.832C143.952 22.136 143.928 22.552 143.88 23.08H135.312C135.328 24.136 135.648 24.968 136.272 25.576C136.896 26.168 137.736 26.464 138.792 26.464C140.264 26.464 141.24 25.92 141.72 24.832H143.808C143.616 25.856 143.056 26.688 142.128 27.328C141.2 27.968 140.088 28.288 138.792 28.288C137.096 28.288 135.744 27.768 134.736 26.728C133.744 25.672 133.248 24.248 133.248 22.456C133.248 20.696 133.744 19.288 134.736 18.232C135.728 17.176 137.048 16.648 138.696 16.648C140.264 16.648 141.528 17.128 142.488 18.088C143.464 19.048 143.952 20.296 143.952 21.832ZM135.312 21.472H141.888C141.888 20.496 141.6 19.728 141.024 19.168C140.464 18.608 139.68 18.328 138.672 18.328C137.68 18.328 136.88 18.616 136.272 19.192C135.68 19.768 135.36 20.528 135.312 21.472Z" fill="#CD4B99"/>
</svg>
