<svg width="104" height="40" viewBox="0 0 104 40" fill="none" xmlns="http://www.w3.org/2000/svg">
<path fill-rule="evenodd" clip-rule="evenodd" d="M38.3333 20.0003C38.3333 30.1255 30.1252 38.3337 20 38.3337C9.87474 38.3337 1.66663 30.1255 1.66663 20.0003C1.66663 9.8751 9.87474 1.66699 20 1.66699C30.1252 1.66699 38.3333 9.8751 38.3333 20.0003ZM19.9375 5.57673C16.1912 5.57673 13.1542 8.61373 13.1542 12.3601V16.7601C13.1542 20.5064 16.1912 23.5434 19.9375 23.5434C20.4633 23.5434 20.9752 23.4836 21.4666 23.3703C21.7618 23.3023 21.8446 22.9381 21.6256 22.7289L21.5889 22.6939L17.6811 18.9614C17.0751 18.3729 16.6986 17.5493 16.6986 16.6378V12.4823C16.6986 10.6935 18.1487 9.2434 19.9375 9.2434C21.7263 9.2434 23.1764 10.6935 23.1764 12.4823V12.6059C23.1764 13.5847 23.9698 14.3781 24.9486 14.3781C25.9274 14.3781 26.7208 13.5847 26.7208 12.6059V12.3601C26.7208 8.61373 23.6838 5.57673 19.9375 5.57673ZM26.7221 27.2725C26.7221 31.0189 23.6851 34.0559 19.9388 34.0559C16.1925 34.0559 13.1555 31.0189 13.1555 27.2725V27.0281C13.1555 26.0493 13.9489 25.2559 14.9277 25.2559C15.9065 25.2559 16.6999 26.0493 16.6999 27.0281V27.1503C16.6999 28.9391 18.15 30.3892 19.9388 30.3892C21.7276 30.3892 23.1777 28.9391 23.1777 27.1503V22.9948C23.1777 22.0833 22.8012 21.2597 22.1952 20.6712L18.2874 16.9387L18.2507 16.9037C18.0317 16.6945 18.1145 16.3303 18.4096 16.2623C18.9011 16.149 19.413 16.0892 19.9388 16.0892C23.6851 16.0892 26.7221 19.1262 26.7221 22.8725V27.2725Z" fill="#CD4B99"/>
<path d="M65.504 19.408C66.464 19.52 67.264 19.936 67.904 20.656C68.56 21.36 68.888 22.28 68.888 23.416C68.888 24.824 68.424 25.944 67.496 26.776C66.568 27.592 65.296 28 63.68 28H57.92V11.2H63.44C65.056 11.2 66.328 11.584 67.256 12.352C68.2 13.12 68.672 14.184 68.672 15.544C68.672 17.72 67.616 19.008 65.504 19.408ZM63.368 13.144H60.104V18.52H63.512C64.424 18.52 65.144 18.28 65.672 17.8C66.216 17.32 66.488 16.664 66.488 15.832C66.488 14.968 66.208 14.304 65.648 13.84C65.104 13.376 64.344 13.144 63.368 13.144ZM63.656 26.056C64.6 26.056 65.344 25.808 65.888 25.312C66.432 24.8 66.704 24.096 66.704 23.2C66.704 22.384 66.432 21.72 65.888 21.208C65.36 20.696 64.672 20.44 63.824 20.44H60.104V26.056H63.656ZM71.7688 28V11.2H73.8568V28H71.7688ZM82.3361 28.288C80.5761 28.288 79.1761 27.736 78.1361 26.632C77.0961 25.512 76.5761 24.12 76.5761 22.456C76.5761 20.792 77.0961 19.408 78.1361 18.304C79.1761 17.2 80.5761 16.648 82.3361 16.648C84.0801 16.648 85.4721 17.208 86.5121 18.328C87.5681 19.432 88.0961 20.808 88.0961 22.456C88.0961 24.12 87.5681 25.512 86.5121 26.632C85.4721 27.736 84.0801 28.288 82.3361 28.288ZM79.6241 25.312C80.2961 26.048 81.2001 26.416 82.3361 26.416C83.4721 26.416 84.3681 26.048 85.0241 25.312C85.6801 24.56 86.0081 23.608 86.0081 22.456C86.0081 21.32 85.6801 20.384 85.0241 19.648C84.3681 18.896 83.4721 18.52 82.3361 18.52C81.2001 18.52 80.2961 18.896 79.6241 19.648C78.9681 20.384 78.6401 21.328 78.6401 22.48C78.6401 23.616 78.9681 24.56 79.6241 25.312ZM99.5075 16.936H101.572V27.712C101.572 29.824 100.932 31.376 99.6515 32.368C98.7235 33.056 97.4515 33.4 95.8355 33.4C94.2195 33.4 92.9155 33.04 91.9235 32.32C90.8675 31.584 90.3155 30.608 90.2675 29.392H92.4515C92.5475 30.064 92.8755 30.608 93.4355 31.024C94.0115 31.44 94.8115 31.648 95.8355 31.648C98.2835 31.648 99.5075 30.384 99.5075 27.856V26.056C99.1715 26.744 98.6355 27.288 97.8995 27.688C97.1635 28.088 96.3875 28.288 95.5715 28.288C93.9075 28.288 92.5795 27.736 91.5875 26.632C90.5955 25.528 90.0995 24.144 90.0995 22.48C90.0995 20.816 90.6115 19.432 91.6355 18.328C92.6755 17.208 94.0035 16.648 95.6195 16.648C96.4675 16.648 97.2355 16.848 97.9235 17.248C98.6275 17.648 99.1555 18.192 99.5075 18.88V16.936ZM95.8595 26.416C96.9955 26.416 97.8995 26.04 98.5715 25.288C99.2595 24.536 99.6035 23.6 99.6035 22.48C99.6035 21.36 99.2595 20.424 98.5715 19.672C97.8995 18.904 96.9955 18.52 95.8595 18.52C94.7715 18.52 93.8835 18.896 93.1955 19.648C92.5075 20.384 92.1635 21.328 92.1635 22.48C92.1635 23.616 92.5075 24.56 93.1955 25.312C93.8835 26.048 94.7715 26.416 95.8595 26.416Z" fill="#CD4B99"/>
<path d="M65.504 19.408C66.464 19.52 67.264 19.936 67.904 20.656C68.56 21.36 68.888 22.28 68.888 23.416C68.888 24.824 68.424 25.944 67.496 26.776C66.568 27.592 65.296 28 63.68 28H57.92V11.2H63.44C65.056 11.2 66.328 11.584 67.256 12.352C68.2 13.12 68.672 14.184 68.672 15.544C68.672 17.72 67.616 19.008 65.504 19.408ZM63.368 13.144H60.104V18.52H63.512C64.424 18.52 65.144 18.28 65.672 17.8C66.216 17.32 66.488 16.664 66.488 15.832C66.488 14.968 66.208 14.304 65.648 13.84C65.104 13.376 64.344 13.144 63.368 13.144ZM63.656 26.056C64.6 26.056 65.344 25.808 65.888 25.312C66.432 24.8 66.704 24.096 66.704 23.2C66.704 22.384 66.432 21.72 65.888 21.208C65.36 20.696 64.672 20.44 63.824 20.44H60.104V26.056H63.656ZM71.7688 28V11.2H73.8568V28H71.7688ZM82.3361 28.288C80.5761 28.288 79.1761 27.736 78.1361 26.632C77.0961 25.512 76.5761 24.12 76.5761 22.456C76.5761 20.792 77.0961 19.408 78.1361 18.304C79.1761 17.2 80.5761 16.648 82.3361 16.648C84.0801 16.648 85.4721 17.208 86.5121 18.328C87.5681 19.432 88.0961 20.808 88.0961 22.456C88.0961 24.12 87.5681 25.512 86.5121 26.632C85.4721 27.736 84.0801 28.288 82.3361 28.288ZM79.6241 25.312C80.2961 26.048 81.2001 26.416 82.3361 26.416C83.4721 26.416 84.3681 26.048 85.0241 25.312C85.6801 24.56 86.0081 23.608 86.0081 22.456C86.0081 21.32 85.6801 20.384 85.0241 19.648C84.3681 18.896 83.4721 18.52 82.3361 18.52C81.2001 18.52 80.2961 18.896 79.6241 19.648C78.9681 20.384 78.6401 21.328 78.6401 22.48C78.6401 23.616 78.9681 24.56 79.6241 25.312ZM99.5075 16.936H101.572V27.712C101.572 29.824 100.932 31.376 99.6515 32.368C98.7235 33.056 97.4515 33.4 95.8355 33.4C94.2195 33.4 92.9155 33.04 91.9235 32.32C90.8675 31.584 90.3155 30.608 90.2675 29.392H92.4515C92.5475 30.064 92.8755 30.608 93.4355 31.024C94.0115 31.44 94.8115 31.648 95.8355 31.648C98.2835 31.648 99.5075 30.384 99.5075 27.856V26.056C99.1715 26.744 98.6355 27.288 97.8995 27.688C97.1635 28.088 96.3875 28.288 95.5715 28.288C93.9075 28.288 92.5795 27.736 91.5875 26.632C90.5955 25.528 90.0995 24.144 90.0995 22.48C90.0995 20.816 90.6115 19.432 91.6355 18.328C92.6755 17.208 94.0035 16.648 95.6195 16.648C96.4675 16.648 97.2355 16.848 97.9235 17.248C98.6275 17.648 99.1555 18.192 99.5075 18.88V16.936ZM95.8595 26.416C96.9955 26.416 97.8995 26.04 98.5715 25.288C99.2595 24.536 99.6035 23.6 99.6035 22.48C99.6035 21.36 99.2595 20.424 98.5715 19.672C97.8995 18.904 96.9955 18.52 95.8595 18.52C94.7715 18.52 93.8835 18.896 93.1955 19.648C92.5075 20.384 92.1635 21.328 92.1635 22.48C92.1635 23.616 92.5075 24.56 93.1955 25.312C93.8835 26.048 94.7715 26.416 95.8595 26.416Z" fill="#CD4B99"/>
</svg>
